%TF.GenerationSoftware,KiCad,Pcbnew,(5.1.4-0-10_14)*%
%TF.CreationDate,2021-01-25T16:41:12+01:00*%
%TF.ProjectId,DAUGHTER_ALLin,44415547-4854-4455-925f-414c4c696e2e,rev?*%
%TF.SameCoordinates,Original*%
%TF.FileFunction,Copper,L2,Bot*%
%TF.FilePolarity,Positive*%
%FSLAX46Y46*%
G04 Gerber Fmt 4.6, Leading zero omitted, Abs format (unit mm)*
G04 Created by KiCad (PCBNEW (5.1.4-0-10_14)) date 2021-01-25 16:41:12*
%MOMM*%
%LPD*%
G04 APERTURE LIST*
%ADD10C,0.300000*%
%ADD11R,1.060000X0.650000*%
%ADD12C,0.150000*%
%ADD13C,0.950000*%
%ADD14C,1.150000*%
%ADD15R,0.600000X1.000000*%
%ADD16R,1.700000X1.700000*%
%ADD17O,1.700000X1.700000*%
%ADD18R,0.960000X1.120000*%
%ADD19C,0.875000*%
%ADD20R,0.650000X1.060000*%
%ADD21C,0.500000*%
%ADD22R,0.440000X1.520000*%
%ADD23R,1.200000X0.900000*%
%ADD24C,1.425000*%
%ADD25C,0.800000*%
%ADD26C,0.400000*%
%ADD27C,0.250000*%
%ADD28C,0.500000*%
%ADD29C,1.000000*%
%ADD30C,0.254000*%
G04 APERTURE END LIST*
D10*
X110268100Y-107362000D02*
G75*
G03X110268100Y-107362000I-150000J0D01*
G01*
D11*
X101010900Y-97508100D03*
X101010900Y-95608100D03*
X98810900Y-95608100D03*
X98810900Y-96558100D03*
X98810900Y-97508100D03*
D12*
G36*
X101442179Y-93341044D02*
G01*
X101465234Y-93344463D01*
X101487843Y-93350127D01*
X101509787Y-93357979D01*
X101530857Y-93367944D01*
X101550848Y-93379926D01*
X101569568Y-93393810D01*
X101586838Y-93409462D01*
X101602490Y-93426732D01*
X101616374Y-93445452D01*
X101628356Y-93465443D01*
X101638321Y-93486513D01*
X101646173Y-93508457D01*
X101651837Y-93531066D01*
X101655256Y-93554121D01*
X101656400Y-93577400D01*
X101656400Y-94052400D01*
X101655256Y-94075679D01*
X101651837Y-94098734D01*
X101646173Y-94121343D01*
X101638321Y-94143287D01*
X101628356Y-94164357D01*
X101616374Y-94184348D01*
X101602490Y-94203068D01*
X101586838Y-94220338D01*
X101569568Y-94235990D01*
X101550848Y-94249874D01*
X101530857Y-94261856D01*
X101509787Y-94271821D01*
X101487843Y-94279673D01*
X101465234Y-94285337D01*
X101442179Y-94288756D01*
X101418900Y-94289900D01*
X100843900Y-94289900D01*
X100820621Y-94288756D01*
X100797566Y-94285337D01*
X100774957Y-94279673D01*
X100753013Y-94271821D01*
X100731943Y-94261856D01*
X100711952Y-94249874D01*
X100693232Y-94235990D01*
X100675962Y-94220338D01*
X100660310Y-94203068D01*
X100646426Y-94184348D01*
X100634444Y-94164357D01*
X100624479Y-94143287D01*
X100616627Y-94121343D01*
X100610963Y-94098734D01*
X100607544Y-94075679D01*
X100606400Y-94052400D01*
X100606400Y-93577400D01*
X100607544Y-93554121D01*
X100610963Y-93531066D01*
X100616627Y-93508457D01*
X100624479Y-93486513D01*
X100634444Y-93465443D01*
X100646426Y-93445452D01*
X100660310Y-93426732D01*
X100675962Y-93409462D01*
X100693232Y-93393810D01*
X100711952Y-93379926D01*
X100731943Y-93367944D01*
X100753013Y-93357979D01*
X100774957Y-93350127D01*
X100797566Y-93344463D01*
X100820621Y-93341044D01*
X100843900Y-93339900D01*
X101418900Y-93339900D01*
X101442179Y-93341044D01*
X101442179Y-93341044D01*
G37*
D13*
X101131400Y-93814900D03*
D12*
G36*
X103192179Y-93341044D02*
G01*
X103215234Y-93344463D01*
X103237843Y-93350127D01*
X103259787Y-93357979D01*
X103280857Y-93367944D01*
X103300848Y-93379926D01*
X103319568Y-93393810D01*
X103336838Y-93409462D01*
X103352490Y-93426732D01*
X103366374Y-93445452D01*
X103378356Y-93465443D01*
X103388321Y-93486513D01*
X103396173Y-93508457D01*
X103401837Y-93531066D01*
X103405256Y-93554121D01*
X103406400Y-93577400D01*
X103406400Y-94052400D01*
X103405256Y-94075679D01*
X103401837Y-94098734D01*
X103396173Y-94121343D01*
X103388321Y-94143287D01*
X103378356Y-94164357D01*
X103366374Y-94184348D01*
X103352490Y-94203068D01*
X103336838Y-94220338D01*
X103319568Y-94235990D01*
X103300848Y-94249874D01*
X103280857Y-94261856D01*
X103259787Y-94271821D01*
X103237843Y-94279673D01*
X103215234Y-94285337D01*
X103192179Y-94288756D01*
X103168900Y-94289900D01*
X102593900Y-94289900D01*
X102570621Y-94288756D01*
X102547566Y-94285337D01*
X102524957Y-94279673D01*
X102503013Y-94271821D01*
X102481943Y-94261856D01*
X102461952Y-94249874D01*
X102443232Y-94235990D01*
X102425962Y-94220338D01*
X102410310Y-94203068D01*
X102396426Y-94184348D01*
X102384444Y-94164357D01*
X102374479Y-94143287D01*
X102366627Y-94121343D01*
X102360963Y-94098734D01*
X102357544Y-94075679D01*
X102356400Y-94052400D01*
X102356400Y-93577400D01*
X102357544Y-93554121D01*
X102360963Y-93531066D01*
X102366627Y-93508457D01*
X102374479Y-93486513D01*
X102384444Y-93465443D01*
X102396426Y-93445452D01*
X102410310Y-93426732D01*
X102425962Y-93409462D01*
X102443232Y-93393810D01*
X102461952Y-93379926D01*
X102481943Y-93367944D01*
X102503013Y-93357979D01*
X102524957Y-93350127D01*
X102547566Y-93344463D01*
X102570621Y-93341044D01*
X102593900Y-93339900D01*
X103168900Y-93339900D01*
X103192179Y-93341044D01*
X103192179Y-93341044D01*
G37*
D13*
X102881400Y-93814900D03*
D12*
G36*
X103408005Y-94908504D02*
G01*
X103432273Y-94912104D01*
X103456072Y-94918065D01*
X103479171Y-94926330D01*
X103501350Y-94936820D01*
X103522393Y-94949432D01*
X103542099Y-94964047D01*
X103560277Y-94980523D01*
X103576753Y-94998701D01*
X103591368Y-95018407D01*
X103603980Y-95039450D01*
X103614470Y-95061629D01*
X103622735Y-95084728D01*
X103628696Y-95108527D01*
X103632296Y-95132795D01*
X103633500Y-95157299D01*
X103633500Y-95807301D01*
X103632296Y-95831805D01*
X103628696Y-95856073D01*
X103622735Y-95879872D01*
X103614470Y-95902971D01*
X103603980Y-95925150D01*
X103591368Y-95946193D01*
X103576753Y-95965899D01*
X103560277Y-95984077D01*
X103542099Y-96000553D01*
X103522393Y-96015168D01*
X103501350Y-96027780D01*
X103479171Y-96038270D01*
X103456072Y-96046535D01*
X103432273Y-96052496D01*
X103408005Y-96056096D01*
X103383501Y-96057300D01*
X102483499Y-96057300D01*
X102458995Y-96056096D01*
X102434727Y-96052496D01*
X102410928Y-96046535D01*
X102387829Y-96038270D01*
X102365650Y-96027780D01*
X102344607Y-96015168D01*
X102324901Y-96000553D01*
X102306723Y-95984077D01*
X102290247Y-95965899D01*
X102275632Y-95946193D01*
X102263020Y-95925150D01*
X102252530Y-95902971D01*
X102244265Y-95879872D01*
X102238304Y-95856073D01*
X102234704Y-95831805D01*
X102233500Y-95807301D01*
X102233500Y-95157299D01*
X102234704Y-95132795D01*
X102238304Y-95108527D01*
X102244265Y-95084728D01*
X102252530Y-95061629D01*
X102263020Y-95039450D01*
X102275632Y-95018407D01*
X102290247Y-94998701D01*
X102306723Y-94980523D01*
X102324901Y-94964047D01*
X102344607Y-94949432D01*
X102365650Y-94936820D01*
X102387829Y-94926330D01*
X102410928Y-94918065D01*
X102434727Y-94912104D01*
X102458995Y-94908504D01*
X102483499Y-94907300D01*
X103383501Y-94907300D01*
X103408005Y-94908504D01*
X103408005Y-94908504D01*
G37*
D14*
X102933500Y-95482300D03*
D12*
G36*
X103408005Y-96958504D02*
G01*
X103432273Y-96962104D01*
X103456072Y-96968065D01*
X103479171Y-96976330D01*
X103501350Y-96986820D01*
X103522393Y-96999432D01*
X103542099Y-97014047D01*
X103560277Y-97030523D01*
X103576753Y-97048701D01*
X103591368Y-97068407D01*
X103603980Y-97089450D01*
X103614470Y-97111629D01*
X103622735Y-97134728D01*
X103628696Y-97158527D01*
X103632296Y-97182795D01*
X103633500Y-97207299D01*
X103633500Y-97857301D01*
X103632296Y-97881805D01*
X103628696Y-97906073D01*
X103622735Y-97929872D01*
X103614470Y-97952971D01*
X103603980Y-97975150D01*
X103591368Y-97996193D01*
X103576753Y-98015899D01*
X103560277Y-98034077D01*
X103542099Y-98050553D01*
X103522393Y-98065168D01*
X103501350Y-98077780D01*
X103479171Y-98088270D01*
X103456072Y-98096535D01*
X103432273Y-98102496D01*
X103408005Y-98106096D01*
X103383501Y-98107300D01*
X102483499Y-98107300D01*
X102458995Y-98106096D01*
X102434727Y-98102496D01*
X102410928Y-98096535D01*
X102387829Y-98088270D01*
X102365650Y-98077780D01*
X102344607Y-98065168D01*
X102324901Y-98050553D01*
X102306723Y-98034077D01*
X102290247Y-98015899D01*
X102275632Y-97996193D01*
X102263020Y-97975150D01*
X102252530Y-97952971D01*
X102244265Y-97929872D01*
X102238304Y-97906073D01*
X102234704Y-97881805D01*
X102233500Y-97857301D01*
X102233500Y-97207299D01*
X102234704Y-97182795D01*
X102238304Y-97158527D01*
X102244265Y-97134728D01*
X102252530Y-97111629D01*
X102263020Y-97089450D01*
X102275632Y-97068407D01*
X102290247Y-97048701D01*
X102306723Y-97030523D01*
X102324901Y-97014047D01*
X102344607Y-96999432D01*
X102365650Y-96986820D01*
X102387829Y-96976330D01*
X102410928Y-96968065D01*
X102434727Y-96962104D01*
X102458995Y-96958504D01*
X102483499Y-96957300D01*
X103383501Y-96957300D01*
X103408005Y-96958504D01*
X103408005Y-96958504D01*
G37*
D14*
X102933500Y-97532300D03*
D15*
X104813100Y-108142000D03*
X104813100Y-108897800D03*
X106083100Y-108121800D03*
X106083100Y-108892400D03*
X107353100Y-108892400D03*
X107353100Y-108121800D03*
X104813100Y-102541600D03*
X104813100Y-103292000D03*
X106083100Y-103292000D03*
X106083100Y-102546200D03*
X107353100Y-102546200D03*
X107353100Y-103292000D03*
X108623100Y-103292000D03*
X108623100Y-102546200D03*
X108623100Y-108112000D03*
X108623100Y-108892000D03*
D16*
X79667100Y-98050600D03*
D17*
X77127100Y-98050600D03*
X79667100Y-100590600D03*
X77127100Y-100590600D03*
X79667100Y-103130600D03*
X77127100Y-103130600D03*
X79667100Y-105670600D03*
X77127100Y-105670600D03*
X79667100Y-108210600D03*
X77127100Y-108210600D03*
X79667100Y-110750600D03*
X77127100Y-110750600D03*
X79667100Y-113290600D03*
X77127100Y-113290600D03*
X79667100Y-115830600D03*
X77127100Y-115830600D03*
D18*
X95097600Y-100859300D03*
X92557600Y-100859300D03*
X90017600Y-100859300D03*
X90017600Y-109999300D03*
X92557600Y-109999300D03*
X95097600Y-109999300D03*
D12*
G36*
X116520791Y-96642153D02*
G01*
X116542026Y-96645303D01*
X116562850Y-96650519D01*
X116583062Y-96657751D01*
X116602468Y-96666930D01*
X116620881Y-96677966D01*
X116638124Y-96690754D01*
X116654030Y-96705170D01*
X116668446Y-96721076D01*
X116681234Y-96738319D01*
X116692270Y-96756732D01*
X116701449Y-96776138D01*
X116708681Y-96796350D01*
X116713897Y-96817174D01*
X116717047Y-96838409D01*
X116718100Y-96859850D01*
X116718100Y-97297350D01*
X116717047Y-97318791D01*
X116713897Y-97340026D01*
X116708681Y-97360850D01*
X116701449Y-97381062D01*
X116692270Y-97400468D01*
X116681234Y-97418881D01*
X116668446Y-97436124D01*
X116654030Y-97452030D01*
X116638124Y-97466446D01*
X116620881Y-97479234D01*
X116602468Y-97490270D01*
X116583062Y-97499449D01*
X116562850Y-97506681D01*
X116542026Y-97511897D01*
X116520791Y-97515047D01*
X116499350Y-97516100D01*
X115986850Y-97516100D01*
X115965409Y-97515047D01*
X115944174Y-97511897D01*
X115923350Y-97506681D01*
X115903138Y-97499449D01*
X115883732Y-97490270D01*
X115865319Y-97479234D01*
X115848076Y-97466446D01*
X115832170Y-97452030D01*
X115817754Y-97436124D01*
X115804966Y-97418881D01*
X115793930Y-97400468D01*
X115784751Y-97381062D01*
X115777519Y-97360850D01*
X115772303Y-97340026D01*
X115769153Y-97318791D01*
X115768100Y-97297350D01*
X115768100Y-96859850D01*
X115769153Y-96838409D01*
X115772303Y-96817174D01*
X115777519Y-96796350D01*
X115784751Y-96776138D01*
X115793930Y-96756732D01*
X115804966Y-96738319D01*
X115817754Y-96721076D01*
X115832170Y-96705170D01*
X115848076Y-96690754D01*
X115865319Y-96677966D01*
X115883732Y-96666930D01*
X115903138Y-96657751D01*
X115923350Y-96650519D01*
X115944174Y-96645303D01*
X115965409Y-96642153D01*
X115986850Y-96641100D01*
X116499350Y-96641100D01*
X116520791Y-96642153D01*
X116520791Y-96642153D01*
G37*
D19*
X116243100Y-97078600D03*
D12*
G36*
X116520791Y-98217153D02*
G01*
X116542026Y-98220303D01*
X116562850Y-98225519D01*
X116583062Y-98232751D01*
X116602468Y-98241930D01*
X116620881Y-98252966D01*
X116638124Y-98265754D01*
X116654030Y-98280170D01*
X116668446Y-98296076D01*
X116681234Y-98313319D01*
X116692270Y-98331732D01*
X116701449Y-98351138D01*
X116708681Y-98371350D01*
X116713897Y-98392174D01*
X116717047Y-98413409D01*
X116718100Y-98434850D01*
X116718100Y-98872350D01*
X116717047Y-98893791D01*
X116713897Y-98915026D01*
X116708681Y-98935850D01*
X116701449Y-98956062D01*
X116692270Y-98975468D01*
X116681234Y-98993881D01*
X116668446Y-99011124D01*
X116654030Y-99027030D01*
X116638124Y-99041446D01*
X116620881Y-99054234D01*
X116602468Y-99065270D01*
X116583062Y-99074449D01*
X116562850Y-99081681D01*
X116542026Y-99086897D01*
X116520791Y-99090047D01*
X116499350Y-99091100D01*
X115986850Y-99091100D01*
X115965409Y-99090047D01*
X115944174Y-99086897D01*
X115923350Y-99081681D01*
X115903138Y-99074449D01*
X115883732Y-99065270D01*
X115865319Y-99054234D01*
X115848076Y-99041446D01*
X115832170Y-99027030D01*
X115817754Y-99011124D01*
X115804966Y-98993881D01*
X115793930Y-98975468D01*
X115784751Y-98956062D01*
X115777519Y-98935850D01*
X115772303Y-98915026D01*
X115769153Y-98893791D01*
X115768100Y-98872350D01*
X115768100Y-98434850D01*
X115769153Y-98413409D01*
X115772303Y-98392174D01*
X115777519Y-98371350D01*
X115784751Y-98351138D01*
X115793930Y-98331732D01*
X115804966Y-98313319D01*
X115817754Y-98296076D01*
X115832170Y-98280170D01*
X115848076Y-98265754D01*
X115865319Y-98252966D01*
X115883732Y-98241930D01*
X115903138Y-98232751D01*
X115923350Y-98225519D01*
X115944174Y-98220303D01*
X115965409Y-98217153D01*
X115986850Y-98216100D01*
X116499350Y-98216100D01*
X116520791Y-98217153D01*
X116520791Y-98217153D01*
G37*
D19*
X116243100Y-98653600D03*
D12*
G36*
X119798091Y-96268553D02*
G01*
X119819326Y-96271703D01*
X119840150Y-96276919D01*
X119860362Y-96284151D01*
X119879768Y-96293330D01*
X119898181Y-96304366D01*
X119915424Y-96317154D01*
X119931330Y-96331570D01*
X119945746Y-96347476D01*
X119958534Y-96364719D01*
X119969570Y-96383132D01*
X119978749Y-96402538D01*
X119985981Y-96422750D01*
X119991197Y-96443574D01*
X119994347Y-96464809D01*
X119995400Y-96486250D01*
X119995400Y-96998750D01*
X119994347Y-97020191D01*
X119991197Y-97041426D01*
X119985981Y-97062250D01*
X119978749Y-97082462D01*
X119969570Y-97101868D01*
X119958534Y-97120281D01*
X119945746Y-97137524D01*
X119931330Y-97153430D01*
X119915424Y-97167846D01*
X119898181Y-97180634D01*
X119879768Y-97191670D01*
X119860362Y-97200849D01*
X119840150Y-97208081D01*
X119819326Y-97213297D01*
X119798091Y-97216447D01*
X119776650Y-97217500D01*
X119339150Y-97217500D01*
X119317709Y-97216447D01*
X119296474Y-97213297D01*
X119275650Y-97208081D01*
X119255438Y-97200849D01*
X119236032Y-97191670D01*
X119217619Y-97180634D01*
X119200376Y-97167846D01*
X119184470Y-97153430D01*
X119170054Y-97137524D01*
X119157266Y-97120281D01*
X119146230Y-97101868D01*
X119137051Y-97082462D01*
X119129819Y-97062250D01*
X119124603Y-97041426D01*
X119121453Y-97020191D01*
X119120400Y-96998750D01*
X119120400Y-96486250D01*
X119121453Y-96464809D01*
X119124603Y-96443574D01*
X119129819Y-96422750D01*
X119137051Y-96402538D01*
X119146230Y-96383132D01*
X119157266Y-96364719D01*
X119170054Y-96347476D01*
X119184470Y-96331570D01*
X119200376Y-96317154D01*
X119217619Y-96304366D01*
X119236032Y-96293330D01*
X119255438Y-96284151D01*
X119275650Y-96276919D01*
X119296474Y-96271703D01*
X119317709Y-96268553D01*
X119339150Y-96267500D01*
X119776650Y-96267500D01*
X119798091Y-96268553D01*
X119798091Y-96268553D01*
G37*
D19*
X119557900Y-96742500D03*
D12*
G36*
X118223091Y-96268553D02*
G01*
X118244326Y-96271703D01*
X118265150Y-96276919D01*
X118285362Y-96284151D01*
X118304768Y-96293330D01*
X118323181Y-96304366D01*
X118340424Y-96317154D01*
X118356330Y-96331570D01*
X118370746Y-96347476D01*
X118383534Y-96364719D01*
X118394570Y-96383132D01*
X118403749Y-96402538D01*
X118410981Y-96422750D01*
X118416197Y-96443574D01*
X118419347Y-96464809D01*
X118420400Y-96486250D01*
X118420400Y-96998750D01*
X118419347Y-97020191D01*
X118416197Y-97041426D01*
X118410981Y-97062250D01*
X118403749Y-97082462D01*
X118394570Y-97101868D01*
X118383534Y-97120281D01*
X118370746Y-97137524D01*
X118356330Y-97153430D01*
X118340424Y-97167846D01*
X118323181Y-97180634D01*
X118304768Y-97191670D01*
X118285362Y-97200849D01*
X118265150Y-97208081D01*
X118244326Y-97213297D01*
X118223091Y-97216447D01*
X118201650Y-97217500D01*
X117764150Y-97217500D01*
X117742709Y-97216447D01*
X117721474Y-97213297D01*
X117700650Y-97208081D01*
X117680438Y-97200849D01*
X117661032Y-97191670D01*
X117642619Y-97180634D01*
X117625376Y-97167846D01*
X117609470Y-97153430D01*
X117595054Y-97137524D01*
X117582266Y-97120281D01*
X117571230Y-97101868D01*
X117562051Y-97082462D01*
X117554819Y-97062250D01*
X117549603Y-97041426D01*
X117546453Y-97020191D01*
X117545400Y-96998750D01*
X117545400Y-96486250D01*
X117546453Y-96464809D01*
X117549603Y-96443574D01*
X117554819Y-96422750D01*
X117562051Y-96402538D01*
X117571230Y-96383132D01*
X117582266Y-96364719D01*
X117595054Y-96347476D01*
X117609470Y-96331570D01*
X117625376Y-96317154D01*
X117642619Y-96304366D01*
X117661032Y-96293330D01*
X117680438Y-96284151D01*
X117700650Y-96276919D01*
X117721474Y-96271703D01*
X117742709Y-96268553D01*
X117764150Y-96267500D01*
X118201650Y-96267500D01*
X118223091Y-96268553D01*
X118223091Y-96268553D01*
G37*
D19*
X117982900Y-96742500D03*
D12*
G36*
X117308191Y-111482653D02*
G01*
X117329426Y-111485803D01*
X117350250Y-111491019D01*
X117370462Y-111498251D01*
X117389868Y-111507430D01*
X117408281Y-111518466D01*
X117425524Y-111531254D01*
X117441430Y-111545670D01*
X117455846Y-111561576D01*
X117468634Y-111578819D01*
X117479670Y-111597232D01*
X117488849Y-111616638D01*
X117496081Y-111636850D01*
X117501297Y-111657674D01*
X117504447Y-111678909D01*
X117505500Y-111700350D01*
X117505500Y-112137850D01*
X117504447Y-112159291D01*
X117501297Y-112180526D01*
X117496081Y-112201350D01*
X117488849Y-112221562D01*
X117479670Y-112240968D01*
X117468634Y-112259381D01*
X117455846Y-112276624D01*
X117441430Y-112292530D01*
X117425524Y-112306946D01*
X117408281Y-112319734D01*
X117389868Y-112330770D01*
X117370462Y-112339949D01*
X117350250Y-112347181D01*
X117329426Y-112352397D01*
X117308191Y-112355547D01*
X117286750Y-112356600D01*
X116774250Y-112356600D01*
X116752809Y-112355547D01*
X116731574Y-112352397D01*
X116710750Y-112347181D01*
X116690538Y-112339949D01*
X116671132Y-112330770D01*
X116652719Y-112319734D01*
X116635476Y-112306946D01*
X116619570Y-112292530D01*
X116605154Y-112276624D01*
X116592366Y-112259381D01*
X116581330Y-112240968D01*
X116572151Y-112221562D01*
X116564919Y-112201350D01*
X116559703Y-112180526D01*
X116556553Y-112159291D01*
X116555500Y-112137850D01*
X116555500Y-111700350D01*
X116556553Y-111678909D01*
X116559703Y-111657674D01*
X116564919Y-111636850D01*
X116572151Y-111616638D01*
X116581330Y-111597232D01*
X116592366Y-111578819D01*
X116605154Y-111561576D01*
X116619570Y-111545670D01*
X116635476Y-111531254D01*
X116652719Y-111518466D01*
X116671132Y-111507430D01*
X116690538Y-111498251D01*
X116710750Y-111491019D01*
X116731574Y-111485803D01*
X116752809Y-111482653D01*
X116774250Y-111481600D01*
X117286750Y-111481600D01*
X117308191Y-111482653D01*
X117308191Y-111482653D01*
G37*
D19*
X117030500Y-111919100D03*
D12*
G36*
X117308191Y-109907653D02*
G01*
X117329426Y-109910803D01*
X117350250Y-109916019D01*
X117370462Y-109923251D01*
X117389868Y-109932430D01*
X117408281Y-109943466D01*
X117425524Y-109956254D01*
X117441430Y-109970670D01*
X117455846Y-109986576D01*
X117468634Y-110003819D01*
X117479670Y-110022232D01*
X117488849Y-110041638D01*
X117496081Y-110061850D01*
X117501297Y-110082674D01*
X117504447Y-110103909D01*
X117505500Y-110125350D01*
X117505500Y-110562850D01*
X117504447Y-110584291D01*
X117501297Y-110605526D01*
X117496081Y-110626350D01*
X117488849Y-110646562D01*
X117479670Y-110665968D01*
X117468634Y-110684381D01*
X117455846Y-110701624D01*
X117441430Y-110717530D01*
X117425524Y-110731946D01*
X117408281Y-110744734D01*
X117389868Y-110755770D01*
X117370462Y-110764949D01*
X117350250Y-110772181D01*
X117329426Y-110777397D01*
X117308191Y-110780547D01*
X117286750Y-110781600D01*
X116774250Y-110781600D01*
X116752809Y-110780547D01*
X116731574Y-110777397D01*
X116710750Y-110772181D01*
X116690538Y-110764949D01*
X116671132Y-110755770D01*
X116652719Y-110744734D01*
X116635476Y-110731946D01*
X116619570Y-110717530D01*
X116605154Y-110701624D01*
X116592366Y-110684381D01*
X116581330Y-110665968D01*
X116572151Y-110646562D01*
X116564919Y-110626350D01*
X116559703Y-110605526D01*
X116556553Y-110584291D01*
X116555500Y-110562850D01*
X116555500Y-110125350D01*
X116556553Y-110103909D01*
X116559703Y-110082674D01*
X116564919Y-110061850D01*
X116572151Y-110041638D01*
X116581330Y-110022232D01*
X116592366Y-110003819D01*
X116605154Y-109986576D01*
X116619570Y-109970670D01*
X116635476Y-109956254D01*
X116652719Y-109943466D01*
X116671132Y-109932430D01*
X116690538Y-109923251D01*
X116710750Y-109916019D01*
X116731574Y-109910803D01*
X116752809Y-109907653D01*
X116774250Y-109906600D01*
X117286750Y-109906600D01*
X117308191Y-109907653D01*
X117308191Y-109907653D01*
G37*
D19*
X117030500Y-110344100D03*
D12*
G36*
X120126905Y-100006104D02*
G01*
X120151173Y-100009704D01*
X120174972Y-100015665D01*
X120198071Y-100023930D01*
X120220250Y-100034420D01*
X120241293Y-100047032D01*
X120260999Y-100061647D01*
X120279177Y-100078123D01*
X120295653Y-100096301D01*
X120310268Y-100116007D01*
X120322880Y-100137050D01*
X120333370Y-100159229D01*
X120341635Y-100182328D01*
X120347596Y-100206127D01*
X120351196Y-100230395D01*
X120352400Y-100254899D01*
X120352400Y-101154901D01*
X120351196Y-101179405D01*
X120347596Y-101203673D01*
X120341635Y-101227472D01*
X120333370Y-101250571D01*
X120322880Y-101272750D01*
X120310268Y-101293793D01*
X120295653Y-101313499D01*
X120279177Y-101331677D01*
X120260999Y-101348153D01*
X120241293Y-101362768D01*
X120220250Y-101375380D01*
X120198071Y-101385870D01*
X120174972Y-101394135D01*
X120151173Y-101400096D01*
X120126905Y-101403696D01*
X120102401Y-101404900D01*
X119452399Y-101404900D01*
X119427895Y-101403696D01*
X119403627Y-101400096D01*
X119379828Y-101394135D01*
X119356729Y-101385870D01*
X119334550Y-101375380D01*
X119313507Y-101362768D01*
X119293801Y-101348153D01*
X119275623Y-101331677D01*
X119259147Y-101313499D01*
X119244532Y-101293793D01*
X119231920Y-101272750D01*
X119221430Y-101250571D01*
X119213165Y-101227472D01*
X119207204Y-101203673D01*
X119203604Y-101179405D01*
X119202400Y-101154901D01*
X119202400Y-100254899D01*
X119203604Y-100230395D01*
X119207204Y-100206127D01*
X119213165Y-100182328D01*
X119221430Y-100159229D01*
X119231920Y-100137050D01*
X119244532Y-100116007D01*
X119259147Y-100096301D01*
X119275623Y-100078123D01*
X119293801Y-100061647D01*
X119313507Y-100047032D01*
X119334550Y-100034420D01*
X119356729Y-100023930D01*
X119379828Y-100015665D01*
X119403627Y-100009704D01*
X119427895Y-100006104D01*
X119452399Y-100004900D01*
X120102401Y-100004900D01*
X120126905Y-100006104D01*
X120126905Y-100006104D01*
G37*
D14*
X119777400Y-100704900D03*
D12*
G36*
X122176905Y-100006104D02*
G01*
X122201173Y-100009704D01*
X122224972Y-100015665D01*
X122248071Y-100023930D01*
X122270250Y-100034420D01*
X122291293Y-100047032D01*
X122310999Y-100061647D01*
X122329177Y-100078123D01*
X122345653Y-100096301D01*
X122360268Y-100116007D01*
X122372880Y-100137050D01*
X122383370Y-100159229D01*
X122391635Y-100182328D01*
X122397596Y-100206127D01*
X122401196Y-100230395D01*
X122402400Y-100254899D01*
X122402400Y-101154901D01*
X122401196Y-101179405D01*
X122397596Y-101203673D01*
X122391635Y-101227472D01*
X122383370Y-101250571D01*
X122372880Y-101272750D01*
X122360268Y-101293793D01*
X122345653Y-101313499D01*
X122329177Y-101331677D01*
X122310999Y-101348153D01*
X122291293Y-101362768D01*
X122270250Y-101375380D01*
X122248071Y-101385870D01*
X122224972Y-101394135D01*
X122201173Y-101400096D01*
X122176905Y-101403696D01*
X122152401Y-101404900D01*
X121502399Y-101404900D01*
X121477895Y-101403696D01*
X121453627Y-101400096D01*
X121429828Y-101394135D01*
X121406729Y-101385870D01*
X121384550Y-101375380D01*
X121363507Y-101362768D01*
X121343801Y-101348153D01*
X121325623Y-101331677D01*
X121309147Y-101313499D01*
X121294532Y-101293793D01*
X121281920Y-101272750D01*
X121271430Y-101250571D01*
X121263165Y-101227472D01*
X121257204Y-101203673D01*
X121253604Y-101179405D01*
X121252400Y-101154901D01*
X121252400Y-100254899D01*
X121253604Y-100230395D01*
X121257204Y-100206127D01*
X121263165Y-100182328D01*
X121271430Y-100159229D01*
X121281920Y-100137050D01*
X121294532Y-100116007D01*
X121309147Y-100096301D01*
X121325623Y-100078123D01*
X121343801Y-100061647D01*
X121363507Y-100047032D01*
X121384550Y-100034420D01*
X121406729Y-100023930D01*
X121429828Y-100015665D01*
X121453627Y-100009704D01*
X121477895Y-100006104D01*
X121502399Y-100004900D01*
X122152401Y-100004900D01*
X122176905Y-100006104D01*
X122176905Y-100006104D01*
G37*
D14*
X121827400Y-100704900D03*
D12*
G36*
X120152305Y-98063004D02*
G01*
X120176573Y-98066604D01*
X120200372Y-98072565D01*
X120223471Y-98080830D01*
X120245650Y-98091320D01*
X120266693Y-98103932D01*
X120286399Y-98118547D01*
X120304577Y-98135023D01*
X120321053Y-98153201D01*
X120335668Y-98172907D01*
X120348280Y-98193950D01*
X120358770Y-98216129D01*
X120367035Y-98239228D01*
X120372996Y-98263027D01*
X120376596Y-98287295D01*
X120377800Y-98311799D01*
X120377800Y-99211801D01*
X120376596Y-99236305D01*
X120372996Y-99260573D01*
X120367035Y-99284372D01*
X120358770Y-99307471D01*
X120348280Y-99329650D01*
X120335668Y-99350693D01*
X120321053Y-99370399D01*
X120304577Y-99388577D01*
X120286399Y-99405053D01*
X120266693Y-99419668D01*
X120245650Y-99432280D01*
X120223471Y-99442770D01*
X120200372Y-99451035D01*
X120176573Y-99456996D01*
X120152305Y-99460596D01*
X120127801Y-99461800D01*
X119477799Y-99461800D01*
X119453295Y-99460596D01*
X119429027Y-99456996D01*
X119405228Y-99451035D01*
X119382129Y-99442770D01*
X119359950Y-99432280D01*
X119338907Y-99419668D01*
X119319201Y-99405053D01*
X119301023Y-99388577D01*
X119284547Y-99370399D01*
X119269932Y-99350693D01*
X119257320Y-99329650D01*
X119246830Y-99307471D01*
X119238565Y-99284372D01*
X119232604Y-99260573D01*
X119229004Y-99236305D01*
X119227800Y-99211801D01*
X119227800Y-98311799D01*
X119229004Y-98287295D01*
X119232604Y-98263027D01*
X119238565Y-98239228D01*
X119246830Y-98216129D01*
X119257320Y-98193950D01*
X119269932Y-98172907D01*
X119284547Y-98153201D01*
X119301023Y-98135023D01*
X119319201Y-98118547D01*
X119338907Y-98103932D01*
X119359950Y-98091320D01*
X119382129Y-98080830D01*
X119405228Y-98072565D01*
X119429027Y-98066604D01*
X119453295Y-98063004D01*
X119477799Y-98061800D01*
X120127801Y-98061800D01*
X120152305Y-98063004D01*
X120152305Y-98063004D01*
G37*
D14*
X119802800Y-98761800D03*
D12*
G36*
X122202305Y-98063004D02*
G01*
X122226573Y-98066604D01*
X122250372Y-98072565D01*
X122273471Y-98080830D01*
X122295650Y-98091320D01*
X122316693Y-98103932D01*
X122336399Y-98118547D01*
X122354577Y-98135023D01*
X122371053Y-98153201D01*
X122385668Y-98172907D01*
X122398280Y-98193950D01*
X122408770Y-98216129D01*
X122417035Y-98239228D01*
X122422996Y-98263027D01*
X122426596Y-98287295D01*
X122427800Y-98311799D01*
X122427800Y-99211801D01*
X122426596Y-99236305D01*
X122422996Y-99260573D01*
X122417035Y-99284372D01*
X122408770Y-99307471D01*
X122398280Y-99329650D01*
X122385668Y-99350693D01*
X122371053Y-99370399D01*
X122354577Y-99388577D01*
X122336399Y-99405053D01*
X122316693Y-99419668D01*
X122295650Y-99432280D01*
X122273471Y-99442770D01*
X122250372Y-99451035D01*
X122226573Y-99456996D01*
X122202305Y-99460596D01*
X122177801Y-99461800D01*
X121527799Y-99461800D01*
X121503295Y-99460596D01*
X121479027Y-99456996D01*
X121455228Y-99451035D01*
X121432129Y-99442770D01*
X121409950Y-99432280D01*
X121388907Y-99419668D01*
X121369201Y-99405053D01*
X121351023Y-99388577D01*
X121334547Y-99370399D01*
X121319932Y-99350693D01*
X121307320Y-99329650D01*
X121296830Y-99307471D01*
X121288565Y-99284372D01*
X121282604Y-99260573D01*
X121279004Y-99236305D01*
X121277800Y-99211801D01*
X121277800Y-98311799D01*
X121279004Y-98287295D01*
X121282604Y-98263027D01*
X121288565Y-98239228D01*
X121296830Y-98216129D01*
X121307320Y-98193950D01*
X121319932Y-98172907D01*
X121334547Y-98153201D01*
X121351023Y-98135023D01*
X121369201Y-98118547D01*
X121388907Y-98103932D01*
X121409950Y-98091320D01*
X121432129Y-98080830D01*
X121455228Y-98072565D01*
X121479027Y-98066604D01*
X121503295Y-98063004D01*
X121527799Y-98061800D01*
X122177801Y-98061800D01*
X122202305Y-98063004D01*
X122202305Y-98063004D01*
G37*
D14*
X121852800Y-98761800D03*
D12*
G36*
X120241205Y-111842504D02*
G01*
X120265473Y-111846104D01*
X120289272Y-111852065D01*
X120312371Y-111860330D01*
X120334550Y-111870820D01*
X120355593Y-111883432D01*
X120375299Y-111898047D01*
X120393477Y-111914523D01*
X120409953Y-111932701D01*
X120424568Y-111952407D01*
X120437180Y-111973450D01*
X120447670Y-111995629D01*
X120455935Y-112018728D01*
X120461896Y-112042527D01*
X120465496Y-112066795D01*
X120466700Y-112091299D01*
X120466700Y-112991301D01*
X120465496Y-113015805D01*
X120461896Y-113040073D01*
X120455935Y-113063872D01*
X120447670Y-113086971D01*
X120437180Y-113109150D01*
X120424568Y-113130193D01*
X120409953Y-113149899D01*
X120393477Y-113168077D01*
X120375299Y-113184553D01*
X120355593Y-113199168D01*
X120334550Y-113211780D01*
X120312371Y-113222270D01*
X120289272Y-113230535D01*
X120265473Y-113236496D01*
X120241205Y-113240096D01*
X120216701Y-113241300D01*
X119566699Y-113241300D01*
X119542195Y-113240096D01*
X119517927Y-113236496D01*
X119494128Y-113230535D01*
X119471029Y-113222270D01*
X119448850Y-113211780D01*
X119427807Y-113199168D01*
X119408101Y-113184553D01*
X119389923Y-113168077D01*
X119373447Y-113149899D01*
X119358832Y-113130193D01*
X119346220Y-113109150D01*
X119335730Y-113086971D01*
X119327465Y-113063872D01*
X119321504Y-113040073D01*
X119317904Y-113015805D01*
X119316700Y-112991301D01*
X119316700Y-112091299D01*
X119317904Y-112066795D01*
X119321504Y-112042527D01*
X119327465Y-112018728D01*
X119335730Y-111995629D01*
X119346220Y-111973450D01*
X119358832Y-111952407D01*
X119373447Y-111932701D01*
X119389923Y-111914523D01*
X119408101Y-111898047D01*
X119427807Y-111883432D01*
X119448850Y-111870820D01*
X119471029Y-111860330D01*
X119494128Y-111852065D01*
X119517927Y-111846104D01*
X119542195Y-111842504D01*
X119566699Y-111841300D01*
X120216701Y-111841300D01*
X120241205Y-111842504D01*
X120241205Y-111842504D01*
G37*
D14*
X119891700Y-112541300D03*
D12*
G36*
X122291205Y-111842504D02*
G01*
X122315473Y-111846104D01*
X122339272Y-111852065D01*
X122362371Y-111860330D01*
X122384550Y-111870820D01*
X122405593Y-111883432D01*
X122425299Y-111898047D01*
X122443477Y-111914523D01*
X122459953Y-111932701D01*
X122474568Y-111952407D01*
X122487180Y-111973450D01*
X122497670Y-111995629D01*
X122505935Y-112018728D01*
X122511896Y-112042527D01*
X122515496Y-112066795D01*
X122516700Y-112091299D01*
X122516700Y-112991301D01*
X122515496Y-113015805D01*
X122511896Y-113040073D01*
X122505935Y-113063872D01*
X122497670Y-113086971D01*
X122487180Y-113109150D01*
X122474568Y-113130193D01*
X122459953Y-113149899D01*
X122443477Y-113168077D01*
X122425299Y-113184553D01*
X122405593Y-113199168D01*
X122384550Y-113211780D01*
X122362371Y-113222270D01*
X122339272Y-113230535D01*
X122315473Y-113236496D01*
X122291205Y-113240096D01*
X122266701Y-113241300D01*
X121616699Y-113241300D01*
X121592195Y-113240096D01*
X121567927Y-113236496D01*
X121544128Y-113230535D01*
X121521029Y-113222270D01*
X121498850Y-113211780D01*
X121477807Y-113199168D01*
X121458101Y-113184553D01*
X121439923Y-113168077D01*
X121423447Y-113149899D01*
X121408832Y-113130193D01*
X121396220Y-113109150D01*
X121385730Y-113086971D01*
X121377465Y-113063872D01*
X121371504Y-113040073D01*
X121367904Y-113015805D01*
X121366700Y-112991301D01*
X121366700Y-112091299D01*
X121367904Y-112066795D01*
X121371504Y-112042527D01*
X121377465Y-112018728D01*
X121385730Y-111995629D01*
X121396220Y-111973450D01*
X121408832Y-111952407D01*
X121423447Y-111932701D01*
X121439923Y-111914523D01*
X121458101Y-111898047D01*
X121477807Y-111883432D01*
X121498850Y-111870820D01*
X121521029Y-111860330D01*
X121544128Y-111852065D01*
X121567927Y-111846104D01*
X121592195Y-111842504D01*
X121616699Y-111841300D01*
X122266701Y-111841300D01*
X122291205Y-111842504D01*
X122291205Y-111842504D01*
G37*
D14*
X121941700Y-112541300D03*
D12*
G36*
X120279305Y-109861304D02*
G01*
X120303573Y-109864904D01*
X120327372Y-109870865D01*
X120350471Y-109879130D01*
X120372650Y-109889620D01*
X120393693Y-109902232D01*
X120413399Y-109916847D01*
X120431577Y-109933323D01*
X120448053Y-109951501D01*
X120462668Y-109971207D01*
X120475280Y-109992250D01*
X120485770Y-110014429D01*
X120494035Y-110037528D01*
X120499996Y-110061327D01*
X120503596Y-110085595D01*
X120504800Y-110110099D01*
X120504800Y-111010101D01*
X120503596Y-111034605D01*
X120499996Y-111058873D01*
X120494035Y-111082672D01*
X120485770Y-111105771D01*
X120475280Y-111127950D01*
X120462668Y-111148993D01*
X120448053Y-111168699D01*
X120431577Y-111186877D01*
X120413399Y-111203353D01*
X120393693Y-111217968D01*
X120372650Y-111230580D01*
X120350471Y-111241070D01*
X120327372Y-111249335D01*
X120303573Y-111255296D01*
X120279305Y-111258896D01*
X120254801Y-111260100D01*
X119604799Y-111260100D01*
X119580295Y-111258896D01*
X119556027Y-111255296D01*
X119532228Y-111249335D01*
X119509129Y-111241070D01*
X119486950Y-111230580D01*
X119465907Y-111217968D01*
X119446201Y-111203353D01*
X119428023Y-111186877D01*
X119411547Y-111168699D01*
X119396932Y-111148993D01*
X119384320Y-111127950D01*
X119373830Y-111105771D01*
X119365565Y-111082672D01*
X119359604Y-111058873D01*
X119356004Y-111034605D01*
X119354800Y-111010101D01*
X119354800Y-110110099D01*
X119356004Y-110085595D01*
X119359604Y-110061327D01*
X119365565Y-110037528D01*
X119373830Y-110014429D01*
X119384320Y-109992250D01*
X119396932Y-109971207D01*
X119411547Y-109951501D01*
X119428023Y-109933323D01*
X119446201Y-109916847D01*
X119465907Y-109902232D01*
X119486950Y-109889620D01*
X119509129Y-109879130D01*
X119532228Y-109870865D01*
X119556027Y-109864904D01*
X119580295Y-109861304D01*
X119604799Y-109860100D01*
X120254801Y-109860100D01*
X120279305Y-109861304D01*
X120279305Y-109861304D01*
G37*
D14*
X119929800Y-110560100D03*
D12*
G36*
X122329305Y-109861304D02*
G01*
X122353573Y-109864904D01*
X122377372Y-109870865D01*
X122400471Y-109879130D01*
X122422650Y-109889620D01*
X122443693Y-109902232D01*
X122463399Y-109916847D01*
X122481577Y-109933323D01*
X122498053Y-109951501D01*
X122512668Y-109971207D01*
X122525280Y-109992250D01*
X122535770Y-110014429D01*
X122544035Y-110037528D01*
X122549996Y-110061327D01*
X122553596Y-110085595D01*
X122554800Y-110110099D01*
X122554800Y-111010101D01*
X122553596Y-111034605D01*
X122549996Y-111058873D01*
X122544035Y-111082672D01*
X122535770Y-111105771D01*
X122525280Y-111127950D01*
X122512668Y-111148993D01*
X122498053Y-111168699D01*
X122481577Y-111186877D01*
X122463399Y-111203353D01*
X122443693Y-111217968D01*
X122422650Y-111230580D01*
X122400471Y-111241070D01*
X122377372Y-111249335D01*
X122353573Y-111255296D01*
X122329305Y-111258896D01*
X122304801Y-111260100D01*
X121654799Y-111260100D01*
X121630295Y-111258896D01*
X121606027Y-111255296D01*
X121582228Y-111249335D01*
X121559129Y-111241070D01*
X121536950Y-111230580D01*
X121515907Y-111217968D01*
X121496201Y-111203353D01*
X121478023Y-111186877D01*
X121461547Y-111168699D01*
X121446932Y-111148993D01*
X121434320Y-111127950D01*
X121423830Y-111105771D01*
X121415565Y-111082672D01*
X121409604Y-111058873D01*
X121406004Y-111034605D01*
X121404800Y-111010101D01*
X121404800Y-110110099D01*
X121406004Y-110085595D01*
X121409604Y-110061327D01*
X121415565Y-110037528D01*
X121423830Y-110014429D01*
X121434320Y-109992250D01*
X121446932Y-109971207D01*
X121461547Y-109951501D01*
X121478023Y-109933323D01*
X121496201Y-109916847D01*
X121515907Y-109902232D01*
X121536950Y-109889620D01*
X121559129Y-109879130D01*
X121582228Y-109870865D01*
X121606027Y-109864904D01*
X121630295Y-109861304D01*
X121654799Y-109860100D01*
X122304801Y-109860100D01*
X122329305Y-109861304D01*
X122329305Y-109861304D01*
G37*
D14*
X121979800Y-110560100D03*
D20*
X92621100Y-115571700D03*
X91671100Y-115571700D03*
X93571100Y-115571700D03*
X93571100Y-113371700D03*
X92621100Y-113371700D03*
X91671100Y-113371700D03*
D21*
X98171000Y-116666800D03*
D12*
G36*
X98920398Y-116666800D02*
G01*
X98920398Y-116691334D01*
X98915588Y-116740165D01*
X98906016Y-116788290D01*
X98891772Y-116835245D01*
X98872995Y-116880578D01*
X98849864Y-116923851D01*
X98822604Y-116964650D01*
X98791476Y-117002579D01*
X98756779Y-117037276D01*
X98718850Y-117068404D01*
X98678051Y-117095664D01*
X98634778Y-117118795D01*
X98589445Y-117137572D01*
X98542490Y-117151816D01*
X98494365Y-117161388D01*
X98445534Y-117166198D01*
X98421000Y-117166198D01*
X98421000Y-117166800D01*
X97921000Y-117166800D01*
X97921000Y-117166198D01*
X97896466Y-117166198D01*
X97847635Y-117161388D01*
X97799510Y-117151816D01*
X97752555Y-117137572D01*
X97707222Y-117118795D01*
X97663949Y-117095664D01*
X97623150Y-117068404D01*
X97585221Y-117037276D01*
X97550524Y-117002579D01*
X97519396Y-116964650D01*
X97492136Y-116923851D01*
X97469005Y-116880578D01*
X97450228Y-116835245D01*
X97435984Y-116788290D01*
X97426412Y-116740165D01*
X97421602Y-116691334D01*
X97421602Y-116666800D01*
X97421000Y-116666800D01*
X97421000Y-116166800D01*
X98921000Y-116166800D01*
X98921000Y-116666800D01*
X98920398Y-116666800D01*
X98920398Y-116666800D01*
G37*
D21*
X98171000Y-115366800D03*
D12*
G36*
X97421000Y-115866800D02*
G01*
X97421000Y-115366800D01*
X97421602Y-115366800D01*
X97421602Y-115342266D01*
X97426412Y-115293435D01*
X97435984Y-115245310D01*
X97450228Y-115198355D01*
X97469005Y-115153022D01*
X97492136Y-115109749D01*
X97519396Y-115068950D01*
X97550524Y-115031021D01*
X97585221Y-114996324D01*
X97623150Y-114965196D01*
X97663949Y-114937936D01*
X97707222Y-114914805D01*
X97752555Y-114896028D01*
X97799510Y-114881784D01*
X97847635Y-114872212D01*
X97896466Y-114867402D01*
X97921000Y-114867402D01*
X97921000Y-114866800D01*
X98421000Y-114866800D01*
X98421000Y-114867402D01*
X98445534Y-114867402D01*
X98494365Y-114872212D01*
X98542490Y-114881784D01*
X98589445Y-114896028D01*
X98634778Y-114914805D01*
X98678051Y-114937936D01*
X98718850Y-114965196D01*
X98756779Y-114996324D01*
X98791476Y-115031021D01*
X98822604Y-115068950D01*
X98849864Y-115109749D01*
X98872995Y-115153022D01*
X98891772Y-115198355D01*
X98906016Y-115245310D01*
X98915588Y-115293435D01*
X98920398Y-115342266D01*
X98920398Y-115366800D01*
X98921000Y-115366800D01*
X98921000Y-115866800D01*
X97421000Y-115866800D01*
X97421000Y-115866800D01*
G37*
D22*
X120184900Y-102828600D03*
X119544900Y-102828600D03*
X118904900Y-102828600D03*
X118264900Y-102828600D03*
X117624900Y-102828600D03*
X116984900Y-102828600D03*
X116344900Y-102828600D03*
X115704900Y-102828600D03*
X115704900Y-108258600D03*
X116344900Y-108258600D03*
X116984900Y-108258600D03*
X117624900Y-108258600D03*
X118264900Y-108258600D03*
X118904900Y-108258600D03*
X119544900Y-108258600D03*
X120184900Y-108258600D03*
D23*
X90055700Y-98684600D03*
X90055700Y-95384600D03*
X95224600Y-98773500D03*
X95224600Y-95473500D03*
D12*
G36*
X95540391Y-114568753D02*
G01*
X95561626Y-114571903D01*
X95582450Y-114577119D01*
X95602662Y-114584351D01*
X95622068Y-114593530D01*
X95640481Y-114604566D01*
X95657724Y-114617354D01*
X95673630Y-114631770D01*
X95688046Y-114647676D01*
X95700834Y-114664919D01*
X95711870Y-114683332D01*
X95721049Y-114702738D01*
X95728281Y-114722950D01*
X95733497Y-114743774D01*
X95736647Y-114765009D01*
X95737700Y-114786450D01*
X95737700Y-115223950D01*
X95736647Y-115245391D01*
X95733497Y-115266626D01*
X95728281Y-115287450D01*
X95721049Y-115307662D01*
X95711870Y-115327068D01*
X95700834Y-115345481D01*
X95688046Y-115362724D01*
X95673630Y-115378630D01*
X95657724Y-115393046D01*
X95640481Y-115405834D01*
X95622068Y-115416870D01*
X95602662Y-115426049D01*
X95582450Y-115433281D01*
X95561626Y-115438497D01*
X95540391Y-115441647D01*
X95518950Y-115442700D01*
X95006450Y-115442700D01*
X94985009Y-115441647D01*
X94963774Y-115438497D01*
X94942950Y-115433281D01*
X94922738Y-115426049D01*
X94903332Y-115416870D01*
X94884919Y-115405834D01*
X94867676Y-115393046D01*
X94851770Y-115378630D01*
X94837354Y-115362724D01*
X94824566Y-115345481D01*
X94813530Y-115327068D01*
X94804351Y-115307662D01*
X94797119Y-115287450D01*
X94791903Y-115266626D01*
X94788753Y-115245391D01*
X94787700Y-115223950D01*
X94787700Y-114786450D01*
X94788753Y-114765009D01*
X94791903Y-114743774D01*
X94797119Y-114722950D01*
X94804351Y-114702738D01*
X94813530Y-114683332D01*
X94824566Y-114664919D01*
X94837354Y-114647676D01*
X94851770Y-114631770D01*
X94867676Y-114617354D01*
X94884919Y-114604566D01*
X94903332Y-114593530D01*
X94922738Y-114584351D01*
X94942950Y-114577119D01*
X94963774Y-114571903D01*
X94985009Y-114568753D01*
X95006450Y-114567700D01*
X95518950Y-114567700D01*
X95540391Y-114568753D01*
X95540391Y-114568753D01*
G37*
D19*
X95262700Y-115005200D03*
D12*
G36*
X95540391Y-112993753D02*
G01*
X95561626Y-112996903D01*
X95582450Y-113002119D01*
X95602662Y-113009351D01*
X95622068Y-113018530D01*
X95640481Y-113029566D01*
X95657724Y-113042354D01*
X95673630Y-113056770D01*
X95688046Y-113072676D01*
X95700834Y-113089919D01*
X95711870Y-113108332D01*
X95721049Y-113127738D01*
X95728281Y-113147950D01*
X95733497Y-113168774D01*
X95736647Y-113190009D01*
X95737700Y-113211450D01*
X95737700Y-113648950D01*
X95736647Y-113670391D01*
X95733497Y-113691626D01*
X95728281Y-113712450D01*
X95721049Y-113732662D01*
X95711870Y-113752068D01*
X95700834Y-113770481D01*
X95688046Y-113787724D01*
X95673630Y-113803630D01*
X95657724Y-113818046D01*
X95640481Y-113830834D01*
X95622068Y-113841870D01*
X95602662Y-113851049D01*
X95582450Y-113858281D01*
X95561626Y-113863497D01*
X95540391Y-113866647D01*
X95518950Y-113867700D01*
X95006450Y-113867700D01*
X94985009Y-113866647D01*
X94963774Y-113863497D01*
X94942950Y-113858281D01*
X94922738Y-113851049D01*
X94903332Y-113841870D01*
X94884919Y-113830834D01*
X94867676Y-113818046D01*
X94851770Y-113803630D01*
X94837354Y-113787724D01*
X94824566Y-113770481D01*
X94813530Y-113752068D01*
X94804351Y-113732662D01*
X94797119Y-113712450D01*
X94791903Y-113691626D01*
X94788753Y-113670391D01*
X94787700Y-113648950D01*
X94787700Y-113211450D01*
X94788753Y-113190009D01*
X94791903Y-113168774D01*
X94797119Y-113147950D01*
X94804351Y-113127738D01*
X94813530Y-113108332D01*
X94824566Y-113089919D01*
X94837354Y-113072676D01*
X94851770Y-113056770D01*
X94867676Y-113042354D01*
X94884919Y-113029566D01*
X94903332Y-113018530D01*
X94922738Y-113009351D01*
X94942950Y-113002119D01*
X94963774Y-112996903D01*
X94985009Y-112993753D01*
X95006450Y-112992700D01*
X95518950Y-112992700D01*
X95540391Y-112993753D01*
X95540391Y-112993753D01*
G37*
D19*
X95262700Y-113430200D03*
D12*
G36*
X93159105Y-97075704D02*
G01*
X93183373Y-97079304D01*
X93207172Y-97085265D01*
X93230271Y-97093530D01*
X93252450Y-97104020D01*
X93273493Y-97116632D01*
X93293199Y-97131247D01*
X93311377Y-97147723D01*
X93327853Y-97165901D01*
X93342468Y-97185607D01*
X93355080Y-97206650D01*
X93365570Y-97228829D01*
X93373835Y-97251928D01*
X93379796Y-97275727D01*
X93383396Y-97299995D01*
X93384600Y-97324499D01*
X93384600Y-97974501D01*
X93383396Y-97999005D01*
X93379796Y-98023273D01*
X93373835Y-98047072D01*
X93365570Y-98070171D01*
X93355080Y-98092350D01*
X93342468Y-98113393D01*
X93327853Y-98133099D01*
X93311377Y-98151277D01*
X93293199Y-98167753D01*
X93273493Y-98182368D01*
X93252450Y-98194980D01*
X93230271Y-98205470D01*
X93207172Y-98213735D01*
X93183373Y-98219696D01*
X93159105Y-98223296D01*
X93134601Y-98224500D01*
X92234599Y-98224500D01*
X92210095Y-98223296D01*
X92185827Y-98219696D01*
X92162028Y-98213735D01*
X92138929Y-98205470D01*
X92116750Y-98194980D01*
X92095707Y-98182368D01*
X92076001Y-98167753D01*
X92057823Y-98151277D01*
X92041347Y-98133099D01*
X92026732Y-98113393D01*
X92014120Y-98092350D01*
X92003630Y-98070171D01*
X91995365Y-98047072D01*
X91989404Y-98023273D01*
X91985804Y-97999005D01*
X91984600Y-97974501D01*
X91984600Y-97324499D01*
X91985804Y-97299995D01*
X91989404Y-97275727D01*
X91995365Y-97251928D01*
X92003630Y-97228829D01*
X92014120Y-97206650D01*
X92026732Y-97185607D01*
X92041347Y-97165901D01*
X92057823Y-97147723D01*
X92076001Y-97131247D01*
X92095707Y-97116632D01*
X92116750Y-97104020D01*
X92138929Y-97093530D01*
X92162028Y-97085265D01*
X92185827Y-97079304D01*
X92210095Y-97075704D01*
X92234599Y-97074500D01*
X93134601Y-97074500D01*
X93159105Y-97075704D01*
X93159105Y-97075704D01*
G37*
D14*
X92684600Y-97649500D03*
D12*
G36*
X93159105Y-95025704D02*
G01*
X93183373Y-95029304D01*
X93207172Y-95035265D01*
X93230271Y-95043530D01*
X93252450Y-95054020D01*
X93273493Y-95066632D01*
X93293199Y-95081247D01*
X93311377Y-95097723D01*
X93327853Y-95115901D01*
X93342468Y-95135607D01*
X93355080Y-95156650D01*
X93365570Y-95178829D01*
X93373835Y-95201928D01*
X93379796Y-95225727D01*
X93383396Y-95249995D01*
X93384600Y-95274499D01*
X93384600Y-95924501D01*
X93383396Y-95949005D01*
X93379796Y-95973273D01*
X93373835Y-95997072D01*
X93365570Y-96020171D01*
X93355080Y-96042350D01*
X93342468Y-96063393D01*
X93327853Y-96083099D01*
X93311377Y-96101277D01*
X93293199Y-96117753D01*
X93273493Y-96132368D01*
X93252450Y-96144980D01*
X93230271Y-96155470D01*
X93207172Y-96163735D01*
X93183373Y-96169696D01*
X93159105Y-96173296D01*
X93134601Y-96174500D01*
X92234599Y-96174500D01*
X92210095Y-96173296D01*
X92185827Y-96169696D01*
X92162028Y-96163735D01*
X92138929Y-96155470D01*
X92116750Y-96144980D01*
X92095707Y-96132368D01*
X92076001Y-96117753D01*
X92057823Y-96101277D01*
X92041347Y-96083099D01*
X92026732Y-96063393D01*
X92014120Y-96042350D01*
X92003630Y-96020171D01*
X91995365Y-95997072D01*
X91989404Y-95973273D01*
X91985804Y-95949005D01*
X91984600Y-95924501D01*
X91984600Y-95274499D01*
X91985804Y-95249995D01*
X91989404Y-95225727D01*
X91995365Y-95201928D01*
X92003630Y-95178829D01*
X92014120Y-95156650D01*
X92026732Y-95135607D01*
X92041347Y-95115901D01*
X92057823Y-95097723D01*
X92076001Y-95081247D01*
X92095707Y-95066632D01*
X92116750Y-95054020D01*
X92138929Y-95043530D01*
X92162028Y-95035265D01*
X92185827Y-95029304D01*
X92210095Y-95025704D01*
X92234599Y-95024500D01*
X93134601Y-95024500D01*
X93159105Y-95025704D01*
X93159105Y-95025704D01*
G37*
D14*
X92684600Y-95599500D03*
D12*
G36*
X103389691Y-100389453D02*
G01*
X103410926Y-100392603D01*
X103431750Y-100397819D01*
X103451962Y-100405051D01*
X103471368Y-100414230D01*
X103489781Y-100425266D01*
X103507024Y-100438054D01*
X103522930Y-100452470D01*
X103537346Y-100468376D01*
X103550134Y-100485619D01*
X103561170Y-100504032D01*
X103570349Y-100523438D01*
X103577581Y-100543650D01*
X103582797Y-100564474D01*
X103585947Y-100585709D01*
X103587000Y-100607150D01*
X103587000Y-101119650D01*
X103585947Y-101141091D01*
X103582797Y-101162326D01*
X103577581Y-101183150D01*
X103570349Y-101203362D01*
X103561170Y-101222768D01*
X103550134Y-101241181D01*
X103537346Y-101258424D01*
X103522930Y-101274330D01*
X103507024Y-101288746D01*
X103489781Y-101301534D01*
X103471368Y-101312570D01*
X103451962Y-101321749D01*
X103431750Y-101328981D01*
X103410926Y-101334197D01*
X103389691Y-101337347D01*
X103368250Y-101338400D01*
X102930750Y-101338400D01*
X102909309Y-101337347D01*
X102888074Y-101334197D01*
X102867250Y-101328981D01*
X102847038Y-101321749D01*
X102827632Y-101312570D01*
X102809219Y-101301534D01*
X102791976Y-101288746D01*
X102776070Y-101274330D01*
X102761654Y-101258424D01*
X102748866Y-101241181D01*
X102737830Y-101222768D01*
X102728651Y-101203362D01*
X102721419Y-101183150D01*
X102716203Y-101162326D01*
X102713053Y-101141091D01*
X102712000Y-101119650D01*
X102712000Y-100607150D01*
X102713053Y-100585709D01*
X102716203Y-100564474D01*
X102721419Y-100543650D01*
X102728651Y-100523438D01*
X102737830Y-100504032D01*
X102748866Y-100485619D01*
X102761654Y-100468376D01*
X102776070Y-100452470D01*
X102791976Y-100438054D01*
X102809219Y-100425266D01*
X102827632Y-100414230D01*
X102847038Y-100405051D01*
X102867250Y-100397819D01*
X102888074Y-100392603D01*
X102909309Y-100389453D01*
X102930750Y-100388400D01*
X103368250Y-100388400D01*
X103389691Y-100389453D01*
X103389691Y-100389453D01*
G37*
D19*
X103149500Y-100863400D03*
D12*
G36*
X101814691Y-100389453D02*
G01*
X101835926Y-100392603D01*
X101856750Y-100397819D01*
X101876962Y-100405051D01*
X101896368Y-100414230D01*
X101914781Y-100425266D01*
X101932024Y-100438054D01*
X101947930Y-100452470D01*
X101962346Y-100468376D01*
X101975134Y-100485619D01*
X101986170Y-100504032D01*
X101995349Y-100523438D01*
X102002581Y-100543650D01*
X102007797Y-100564474D01*
X102010947Y-100585709D01*
X102012000Y-100607150D01*
X102012000Y-101119650D01*
X102010947Y-101141091D01*
X102007797Y-101162326D01*
X102002581Y-101183150D01*
X101995349Y-101203362D01*
X101986170Y-101222768D01*
X101975134Y-101241181D01*
X101962346Y-101258424D01*
X101947930Y-101274330D01*
X101932024Y-101288746D01*
X101914781Y-101301534D01*
X101896368Y-101312570D01*
X101876962Y-101321749D01*
X101856750Y-101328981D01*
X101835926Y-101334197D01*
X101814691Y-101337347D01*
X101793250Y-101338400D01*
X101355750Y-101338400D01*
X101334309Y-101337347D01*
X101313074Y-101334197D01*
X101292250Y-101328981D01*
X101272038Y-101321749D01*
X101252632Y-101312570D01*
X101234219Y-101301534D01*
X101216976Y-101288746D01*
X101201070Y-101274330D01*
X101186654Y-101258424D01*
X101173866Y-101241181D01*
X101162830Y-101222768D01*
X101153651Y-101203362D01*
X101146419Y-101183150D01*
X101141203Y-101162326D01*
X101138053Y-101141091D01*
X101137000Y-101119650D01*
X101137000Y-100607150D01*
X101138053Y-100585709D01*
X101141203Y-100564474D01*
X101146419Y-100543650D01*
X101153651Y-100523438D01*
X101162830Y-100504032D01*
X101173866Y-100485619D01*
X101186654Y-100468376D01*
X101201070Y-100452470D01*
X101216976Y-100438054D01*
X101234219Y-100425266D01*
X101252632Y-100414230D01*
X101272038Y-100405051D01*
X101292250Y-100397819D01*
X101313074Y-100392603D01*
X101334309Y-100389453D01*
X101355750Y-100388400D01*
X101793250Y-100388400D01*
X101814691Y-100389453D01*
X101814691Y-100389453D01*
G37*
D19*
X101574500Y-100863400D03*
D12*
G36*
X103148191Y-111603553D02*
G01*
X103169426Y-111606703D01*
X103190250Y-111611919D01*
X103210462Y-111619151D01*
X103229868Y-111628330D01*
X103248281Y-111639366D01*
X103265524Y-111652154D01*
X103281430Y-111666570D01*
X103295846Y-111682476D01*
X103308634Y-111699719D01*
X103319670Y-111718132D01*
X103328849Y-111737538D01*
X103336081Y-111757750D01*
X103341297Y-111778574D01*
X103344447Y-111799809D01*
X103345500Y-111821250D01*
X103345500Y-112333750D01*
X103344447Y-112355191D01*
X103341297Y-112376426D01*
X103336081Y-112397250D01*
X103328849Y-112417462D01*
X103319670Y-112436868D01*
X103308634Y-112455281D01*
X103295846Y-112472524D01*
X103281430Y-112488430D01*
X103265524Y-112502846D01*
X103248281Y-112515634D01*
X103229868Y-112526670D01*
X103210462Y-112535849D01*
X103190250Y-112543081D01*
X103169426Y-112548297D01*
X103148191Y-112551447D01*
X103126750Y-112552500D01*
X102689250Y-112552500D01*
X102667809Y-112551447D01*
X102646574Y-112548297D01*
X102625750Y-112543081D01*
X102605538Y-112535849D01*
X102586132Y-112526670D01*
X102567719Y-112515634D01*
X102550476Y-112502846D01*
X102534570Y-112488430D01*
X102520154Y-112472524D01*
X102507366Y-112455281D01*
X102496330Y-112436868D01*
X102487151Y-112417462D01*
X102479919Y-112397250D01*
X102474703Y-112376426D01*
X102471553Y-112355191D01*
X102470500Y-112333750D01*
X102470500Y-111821250D01*
X102471553Y-111799809D01*
X102474703Y-111778574D01*
X102479919Y-111757750D01*
X102487151Y-111737538D01*
X102496330Y-111718132D01*
X102507366Y-111699719D01*
X102520154Y-111682476D01*
X102534570Y-111666570D01*
X102550476Y-111652154D01*
X102567719Y-111639366D01*
X102586132Y-111628330D01*
X102605538Y-111619151D01*
X102625750Y-111611919D01*
X102646574Y-111606703D01*
X102667809Y-111603553D01*
X102689250Y-111602500D01*
X103126750Y-111602500D01*
X103148191Y-111603553D01*
X103148191Y-111603553D01*
G37*
D19*
X102908000Y-112077500D03*
D12*
G36*
X104723191Y-111603553D02*
G01*
X104744426Y-111606703D01*
X104765250Y-111611919D01*
X104785462Y-111619151D01*
X104804868Y-111628330D01*
X104823281Y-111639366D01*
X104840524Y-111652154D01*
X104856430Y-111666570D01*
X104870846Y-111682476D01*
X104883634Y-111699719D01*
X104894670Y-111718132D01*
X104903849Y-111737538D01*
X104911081Y-111757750D01*
X104916297Y-111778574D01*
X104919447Y-111799809D01*
X104920500Y-111821250D01*
X104920500Y-112333750D01*
X104919447Y-112355191D01*
X104916297Y-112376426D01*
X104911081Y-112397250D01*
X104903849Y-112417462D01*
X104894670Y-112436868D01*
X104883634Y-112455281D01*
X104870846Y-112472524D01*
X104856430Y-112488430D01*
X104840524Y-112502846D01*
X104823281Y-112515634D01*
X104804868Y-112526670D01*
X104785462Y-112535849D01*
X104765250Y-112543081D01*
X104744426Y-112548297D01*
X104723191Y-112551447D01*
X104701750Y-112552500D01*
X104264250Y-112552500D01*
X104242809Y-112551447D01*
X104221574Y-112548297D01*
X104200750Y-112543081D01*
X104180538Y-112535849D01*
X104161132Y-112526670D01*
X104142719Y-112515634D01*
X104125476Y-112502846D01*
X104109570Y-112488430D01*
X104095154Y-112472524D01*
X104082366Y-112455281D01*
X104071330Y-112436868D01*
X104062151Y-112417462D01*
X104054919Y-112397250D01*
X104049703Y-112376426D01*
X104046553Y-112355191D01*
X104045500Y-112333750D01*
X104045500Y-111821250D01*
X104046553Y-111799809D01*
X104049703Y-111778574D01*
X104054919Y-111757750D01*
X104062151Y-111737538D01*
X104071330Y-111718132D01*
X104082366Y-111699719D01*
X104095154Y-111682476D01*
X104109570Y-111666570D01*
X104125476Y-111652154D01*
X104142719Y-111639366D01*
X104161132Y-111628330D01*
X104180538Y-111619151D01*
X104200750Y-111611919D01*
X104221574Y-111606703D01*
X104242809Y-111603553D01*
X104264250Y-111602500D01*
X104701750Y-111602500D01*
X104723191Y-111603553D01*
X104723191Y-111603553D01*
G37*
D19*
X104483000Y-112077500D03*
D12*
G36*
X106196191Y-99786453D02*
G01*
X106217426Y-99789603D01*
X106238250Y-99794819D01*
X106258462Y-99802051D01*
X106277868Y-99811230D01*
X106296281Y-99822266D01*
X106313524Y-99835054D01*
X106329430Y-99849470D01*
X106343846Y-99865376D01*
X106356634Y-99882619D01*
X106367670Y-99901032D01*
X106376849Y-99920438D01*
X106384081Y-99940650D01*
X106389297Y-99961474D01*
X106392447Y-99982709D01*
X106393500Y-100004150D01*
X106393500Y-100516650D01*
X106392447Y-100538091D01*
X106389297Y-100559326D01*
X106384081Y-100580150D01*
X106376849Y-100600362D01*
X106367670Y-100619768D01*
X106356634Y-100638181D01*
X106343846Y-100655424D01*
X106329430Y-100671330D01*
X106313524Y-100685746D01*
X106296281Y-100698534D01*
X106277868Y-100709570D01*
X106258462Y-100718749D01*
X106238250Y-100725981D01*
X106217426Y-100731197D01*
X106196191Y-100734347D01*
X106174750Y-100735400D01*
X105737250Y-100735400D01*
X105715809Y-100734347D01*
X105694574Y-100731197D01*
X105673750Y-100725981D01*
X105653538Y-100718749D01*
X105634132Y-100709570D01*
X105615719Y-100698534D01*
X105598476Y-100685746D01*
X105582570Y-100671330D01*
X105568154Y-100655424D01*
X105555366Y-100638181D01*
X105544330Y-100619768D01*
X105535151Y-100600362D01*
X105527919Y-100580150D01*
X105522703Y-100559326D01*
X105519553Y-100538091D01*
X105518500Y-100516650D01*
X105518500Y-100004150D01*
X105519553Y-99982709D01*
X105522703Y-99961474D01*
X105527919Y-99940650D01*
X105535151Y-99920438D01*
X105544330Y-99901032D01*
X105555366Y-99882619D01*
X105568154Y-99865376D01*
X105582570Y-99849470D01*
X105598476Y-99835054D01*
X105615719Y-99822266D01*
X105634132Y-99811230D01*
X105653538Y-99802051D01*
X105673750Y-99794819D01*
X105694574Y-99789603D01*
X105715809Y-99786453D01*
X105737250Y-99785400D01*
X106174750Y-99785400D01*
X106196191Y-99786453D01*
X106196191Y-99786453D01*
G37*
D19*
X105956000Y-100260400D03*
D12*
G36*
X107771191Y-99786453D02*
G01*
X107792426Y-99789603D01*
X107813250Y-99794819D01*
X107833462Y-99802051D01*
X107852868Y-99811230D01*
X107871281Y-99822266D01*
X107888524Y-99835054D01*
X107904430Y-99849470D01*
X107918846Y-99865376D01*
X107931634Y-99882619D01*
X107942670Y-99901032D01*
X107951849Y-99920438D01*
X107959081Y-99940650D01*
X107964297Y-99961474D01*
X107967447Y-99982709D01*
X107968500Y-100004150D01*
X107968500Y-100516650D01*
X107967447Y-100538091D01*
X107964297Y-100559326D01*
X107959081Y-100580150D01*
X107951849Y-100600362D01*
X107942670Y-100619768D01*
X107931634Y-100638181D01*
X107918846Y-100655424D01*
X107904430Y-100671330D01*
X107888524Y-100685746D01*
X107871281Y-100698534D01*
X107852868Y-100709570D01*
X107833462Y-100718749D01*
X107813250Y-100725981D01*
X107792426Y-100731197D01*
X107771191Y-100734347D01*
X107749750Y-100735400D01*
X107312250Y-100735400D01*
X107290809Y-100734347D01*
X107269574Y-100731197D01*
X107248750Y-100725981D01*
X107228538Y-100718749D01*
X107209132Y-100709570D01*
X107190719Y-100698534D01*
X107173476Y-100685746D01*
X107157570Y-100671330D01*
X107143154Y-100655424D01*
X107130366Y-100638181D01*
X107119330Y-100619768D01*
X107110151Y-100600362D01*
X107102919Y-100580150D01*
X107097703Y-100559326D01*
X107094553Y-100538091D01*
X107093500Y-100516650D01*
X107093500Y-100004150D01*
X107094553Y-99982709D01*
X107097703Y-99961474D01*
X107102919Y-99940650D01*
X107110151Y-99920438D01*
X107119330Y-99901032D01*
X107130366Y-99882619D01*
X107143154Y-99865376D01*
X107157570Y-99849470D01*
X107173476Y-99835054D01*
X107190719Y-99822266D01*
X107209132Y-99811230D01*
X107228538Y-99802051D01*
X107248750Y-99794819D01*
X107269574Y-99789603D01*
X107290809Y-99786453D01*
X107312250Y-99785400D01*
X107749750Y-99785400D01*
X107771191Y-99786453D01*
X107771191Y-99786453D01*
G37*
D19*
X107531000Y-100260400D03*
D12*
G36*
X105980291Y-110092253D02*
G01*
X106001526Y-110095403D01*
X106022350Y-110100619D01*
X106042562Y-110107851D01*
X106061968Y-110117030D01*
X106080381Y-110128066D01*
X106097624Y-110140854D01*
X106113530Y-110155270D01*
X106127946Y-110171176D01*
X106140734Y-110188419D01*
X106151770Y-110206832D01*
X106160949Y-110226238D01*
X106168181Y-110246450D01*
X106173397Y-110267274D01*
X106176547Y-110288509D01*
X106177600Y-110309950D01*
X106177600Y-110822450D01*
X106176547Y-110843891D01*
X106173397Y-110865126D01*
X106168181Y-110885950D01*
X106160949Y-110906162D01*
X106151770Y-110925568D01*
X106140734Y-110943981D01*
X106127946Y-110961224D01*
X106113530Y-110977130D01*
X106097624Y-110991546D01*
X106080381Y-111004334D01*
X106061968Y-111015370D01*
X106042562Y-111024549D01*
X106022350Y-111031781D01*
X106001526Y-111036997D01*
X105980291Y-111040147D01*
X105958850Y-111041200D01*
X105521350Y-111041200D01*
X105499909Y-111040147D01*
X105478674Y-111036997D01*
X105457850Y-111031781D01*
X105437638Y-111024549D01*
X105418232Y-111015370D01*
X105399819Y-111004334D01*
X105382576Y-110991546D01*
X105366670Y-110977130D01*
X105352254Y-110961224D01*
X105339466Y-110943981D01*
X105328430Y-110925568D01*
X105319251Y-110906162D01*
X105312019Y-110885950D01*
X105306803Y-110865126D01*
X105303653Y-110843891D01*
X105302600Y-110822450D01*
X105302600Y-110309950D01*
X105303653Y-110288509D01*
X105306803Y-110267274D01*
X105312019Y-110246450D01*
X105319251Y-110226238D01*
X105328430Y-110206832D01*
X105339466Y-110188419D01*
X105352254Y-110171176D01*
X105366670Y-110155270D01*
X105382576Y-110140854D01*
X105399819Y-110128066D01*
X105418232Y-110117030D01*
X105437638Y-110107851D01*
X105457850Y-110100619D01*
X105478674Y-110095403D01*
X105499909Y-110092253D01*
X105521350Y-110091200D01*
X105958850Y-110091200D01*
X105980291Y-110092253D01*
X105980291Y-110092253D01*
G37*
D19*
X105740100Y-110566200D03*
D12*
G36*
X107555291Y-110092253D02*
G01*
X107576526Y-110095403D01*
X107597350Y-110100619D01*
X107617562Y-110107851D01*
X107636968Y-110117030D01*
X107655381Y-110128066D01*
X107672624Y-110140854D01*
X107688530Y-110155270D01*
X107702946Y-110171176D01*
X107715734Y-110188419D01*
X107726770Y-110206832D01*
X107735949Y-110226238D01*
X107743181Y-110246450D01*
X107748397Y-110267274D01*
X107751547Y-110288509D01*
X107752600Y-110309950D01*
X107752600Y-110822450D01*
X107751547Y-110843891D01*
X107748397Y-110865126D01*
X107743181Y-110885950D01*
X107735949Y-110906162D01*
X107726770Y-110925568D01*
X107715734Y-110943981D01*
X107702946Y-110961224D01*
X107688530Y-110977130D01*
X107672624Y-110991546D01*
X107655381Y-111004334D01*
X107636968Y-111015370D01*
X107617562Y-111024549D01*
X107597350Y-111031781D01*
X107576526Y-111036997D01*
X107555291Y-111040147D01*
X107533850Y-111041200D01*
X107096350Y-111041200D01*
X107074909Y-111040147D01*
X107053674Y-111036997D01*
X107032850Y-111031781D01*
X107012638Y-111024549D01*
X106993232Y-111015370D01*
X106974819Y-111004334D01*
X106957576Y-110991546D01*
X106941670Y-110977130D01*
X106927254Y-110961224D01*
X106914466Y-110943981D01*
X106903430Y-110925568D01*
X106894251Y-110906162D01*
X106887019Y-110885950D01*
X106881803Y-110865126D01*
X106878653Y-110843891D01*
X106877600Y-110822450D01*
X106877600Y-110309950D01*
X106878653Y-110288509D01*
X106881803Y-110267274D01*
X106887019Y-110246450D01*
X106894251Y-110226238D01*
X106903430Y-110206832D01*
X106914466Y-110188419D01*
X106927254Y-110171176D01*
X106941670Y-110155270D01*
X106957576Y-110140854D01*
X106974819Y-110128066D01*
X106993232Y-110117030D01*
X107012638Y-110107851D01*
X107032850Y-110100619D01*
X107053674Y-110095403D01*
X107074909Y-110092253D01*
X107096350Y-110091200D01*
X107533850Y-110091200D01*
X107555291Y-110092253D01*
X107555291Y-110092253D01*
G37*
D19*
X107315100Y-110566200D03*
D12*
G36*
X101893904Y-108504204D02*
G01*
X101918173Y-108507804D01*
X101941971Y-108513765D01*
X101965071Y-108522030D01*
X101987249Y-108532520D01*
X102008293Y-108545133D01*
X102027998Y-108559747D01*
X102046177Y-108576223D01*
X102062653Y-108594402D01*
X102077267Y-108614107D01*
X102089880Y-108635151D01*
X102100370Y-108657329D01*
X102108635Y-108680429D01*
X102114596Y-108704227D01*
X102118196Y-108728496D01*
X102119400Y-108753000D01*
X102119400Y-109678000D01*
X102118196Y-109702504D01*
X102114596Y-109726773D01*
X102108635Y-109750571D01*
X102100370Y-109773671D01*
X102089880Y-109795849D01*
X102077267Y-109816893D01*
X102062653Y-109836598D01*
X102046177Y-109854777D01*
X102027998Y-109871253D01*
X102008293Y-109885867D01*
X101987249Y-109898480D01*
X101965071Y-109908970D01*
X101941971Y-109917235D01*
X101918173Y-109923196D01*
X101893904Y-109926796D01*
X101869400Y-109928000D01*
X100619400Y-109928000D01*
X100594896Y-109926796D01*
X100570627Y-109923196D01*
X100546829Y-109917235D01*
X100523729Y-109908970D01*
X100501551Y-109898480D01*
X100480507Y-109885867D01*
X100460802Y-109871253D01*
X100442623Y-109854777D01*
X100426147Y-109836598D01*
X100411533Y-109816893D01*
X100398920Y-109795849D01*
X100388430Y-109773671D01*
X100380165Y-109750571D01*
X100374204Y-109726773D01*
X100370604Y-109702504D01*
X100369400Y-109678000D01*
X100369400Y-108753000D01*
X100370604Y-108728496D01*
X100374204Y-108704227D01*
X100380165Y-108680429D01*
X100388430Y-108657329D01*
X100398920Y-108635151D01*
X100411533Y-108614107D01*
X100426147Y-108594402D01*
X100442623Y-108576223D01*
X100460802Y-108559747D01*
X100480507Y-108545133D01*
X100501551Y-108532520D01*
X100523729Y-108522030D01*
X100546829Y-108513765D01*
X100570627Y-108507804D01*
X100594896Y-108504204D01*
X100619400Y-108503000D01*
X101869400Y-108503000D01*
X101893904Y-108504204D01*
X101893904Y-108504204D01*
G37*
D24*
X101244400Y-109215500D03*
D12*
G36*
X101893904Y-105529204D02*
G01*
X101918173Y-105532804D01*
X101941971Y-105538765D01*
X101965071Y-105547030D01*
X101987249Y-105557520D01*
X102008293Y-105570133D01*
X102027998Y-105584747D01*
X102046177Y-105601223D01*
X102062653Y-105619402D01*
X102077267Y-105639107D01*
X102089880Y-105660151D01*
X102100370Y-105682329D01*
X102108635Y-105705429D01*
X102114596Y-105729227D01*
X102118196Y-105753496D01*
X102119400Y-105778000D01*
X102119400Y-106703000D01*
X102118196Y-106727504D01*
X102114596Y-106751773D01*
X102108635Y-106775571D01*
X102100370Y-106798671D01*
X102089880Y-106820849D01*
X102077267Y-106841893D01*
X102062653Y-106861598D01*
X102046177Y-106879777D01*
X102027998Y-106896253D01*
X102008293Y-106910867D01*
X101987249Y-106923480D01*
X101965071Y-106933970D01*
X101941971Y-106942235D01*
X101918173Y-106948196D01*
X101893904Y-106951796D01*
X101869400Y-106953000D01*
X100619400Y-106953000D01*
X100594896Y-106951796D01*
X100570627Y-106948196D01*
X100546829Y-106942235D01*
X100523729Y-106933970D01*
X100501551Y-106923480D01*
X100480507Y-106910867D01*
X100460802Y-106896253D01*
X100442623Y-106879777D01*
X100426147Y-106861598D01*
X100411533Y-106841893D01*
X100398920Y-106820849D01*
X100388430Y-106798671D01*
X100380165Y-106775571D01*
X100374204Y-106751773D01*
X100370604Y-106727504D01*
X100369400Y-106703000D01*
X100369400Y-105778000D01*
X100370604Y-105753496D01*
X100374204Y-105729227D01*
X100380165Y-105705429D01*
X100388430Y-105682329D01*
X100398920Y-105660151D01*
X100411533Y-105639107D01*
X100426147Y-105619402D01*
X100442623Y-105601223D01*
X100460802Y-105584747D01*
X100480507Y-105570133D01*
X100501551Y-105557520D01*
X100523729Y-105547030D01*
X100546829Y-105538765D01*
X100570627Y-105532804D01*
X100594896Y-105529204D01*
X100619400Y-105528000D01*
X101869400Y-105528000D01*
X101893904Y-105529204D01*
X101893904Y-105529204D01*
G37*
D24*
X101244400Y-106240500D03*
D25*
X101886000Y-111874300D03*
X96837500Y-111512600D03*
D26*
X119088640Y-110037160D03*
X119088640Y-110637160D03*
X119088640Y-111237160D03*
X114456240Y-108573260D03*
X114456240Y-107969860D03*
D25*
X103936800Y-110464600D03*
X96050100Y-115722400D03*
X91808300Y-118008400D03*
X92570300Y-110788700D03*
X121814700Y-121682400D03*
X108508800Y-121170700D03*
X103936800Y-100863400D03*
X106133900Y-101981000D03*
X84239100Y-101904800D03*
X107365800Y-109080300D03*
X107327700Y-111899700D03*
X106006900Y-111925100D03*
X106095800Y-109029500D03*
D26*
X92929740Y-98962460D03*
X92929740Y-99562460D03*
X92329740Y-98962460D03*
D25*
X97967800Y-105772200D03*
X83235800Y-105746800D03*
X74847701Y-107035599D03*
X98958400Y-106934000D03*
X83362800Y-106984800D03*
D26*
X92329740Y-99562460D03*
D25*
X119583200Y-100736400D03*
X114325400Y-99021900D03*
X98894900Y-93827600D03*
X104622600Y-99250500D03*
X100749100Y-99288600D03*
X118376700Y-98425000D03*
X118071900Y-114027200D03*
X88932000Y-115233700D03*
X111506000Y-116471700D03*
X110744000Y-106032300D03*
D27*
X101911500Y-111848800D02*
X101886000Y-111874300D01*
X103092500Y-111848800D02*
X101911500Y-111848800D01*
X94696200Y-115571700D02*
X95262700Y-115005200D01*
X93571100Y-115571700D02*
X94696200Y-115571700D01*
X119544900Y-110429200D02*
X119701200Y-110585500D01*
X119544900Y-108258600D02*
X119544900Y-110429200D01*
X119406860Y-110037160D02*
X119929800Y-110560100D01*
X119088640Y-110037160D02*
X119406860Y-110037160D01*
X119852740Y-110637160D02*
X119929800Y-110560100D01*
X119088640Y-110637160D02*
X119852740Y-110637160D01*
X119252740Y-111237160D02*
X119929800Y-110560100D01*
X119088640Y-111237160D02*
X119252740Y-111237160D01*
X119088640Y-110037160D02*
X119088640Y-111237160D01*
X115416160Y-107969860D02*
X115704900Y-108258600D01*
X114456240Y-107969860D02*
X115416160Y-107969860D01*
X115390240Y-108573260D02*
X115704900Y-108258600D01*
X114456240Y-108573260D02*
X115390240Y-108573260D01*
X105638500Y-110464600D02*
X105740100Y-110566200D01*
X103936800Y-110464600D02*
X105638500Y-110464600D01*
X105278488Y-110104588D02*
X105033412Y-110104588D01*
X105740100Y-110566200D02*
X105278488Y-110104588D01*
X104813100Y-109884276D02*
X104813100Y-108897800D01*
X105033412Y-110104588D02*
X104813100Y-109884276D01*
X95332900Y-115005200D02*
X96050100Y-115722400D01*
X95262700Y-115005200D02*
X95332900Y-115005200D01*
X91671100Y-115571700D02*
X91671100Y-117561400D01*
X91808300Y-117698600D02*
X91808300Y-118008400D01*
X91671100Y-117561400D02*
X91808300Y-117698600D01*
X104813100Y-108142000D02*
X104813100Y-108897800D01*
X92621100Y-110839500D02*
X92570300Y-110788700D01*
X92621100Y-113371700D02*
X92621100Y-110839500D01*
X92570300Y-110012000D02*
X92557600Y-109999300D01*
X92570300Y-110788700D02*
X92570300Y-110012000D01*
X121713100Y-110623600D02*
X121751200Y-110585500D01*
X121941700Y-112541300D02*
X121941700Y-110598200D01*
X120184900Y-108798600D02*
X120184900Y-108258600D01*
X120837800Y-109451500D02*
X120184900Y-108798600D01*
X121417200Y-109451500D02*
X120837800Y-109451500D01*
X121751200Y-109785500D02*
X121417200Y-109451500D01*
X121751200Y-110585500D02*
X121751200Y-109785500D01*
X92621100Y-114151700D02*
X92684600Y-114215200D01*
X92621100Y-113371700D02*
X92621100Y-114151700D01*
X92684600Y-114215200D02*
X92684600Y-114255800D01*
X92684600Y-114255800D02*
X92900500Y-114471700D01*
X92900500Y-114471700D02*
X93941900Y-114471700D01*
X93941900Y-114471700D02*
X94030800Y-114382800D01*
X94310100Y-114382800D02*
X95262700Y-113430200D01*
X94030800Y-114382800D02*
X94310100Y-114382800D01*
X95262700Y-113430200D02*
X95837700Y-113430200D01*
X98171000Y-114096800D02*
X98171000Y-115366800D01*
X97504400Y-113430200D02*
X98171000Y-114096800D01*
X95262700Y-113430200D02*
X97504400Y-113430200D01*
X107315100Y-110566200D02*
X107950000Y-110566200D01*
X108801000Y-109715200D02*
X108801000Y-109383000D01*
X107950000Y-110566200D02*
X108801000Y-109715200D01*
X108314212Y-111027812D02*
X108635800Y-111349400D01*
X107776712Y-111027812D02*
X108314212Y-111027812D01*
X107315100Y-110566200D02*
X107776712Y-111027812D01*
X121814700Y-121898300D02*
X121814700Y-121682400D01*
X121941700Y-115782200D02*
X121941700Y-119586900D01*
X121941700Y-112541300D02*
X121941700Y-115782200D01*
X117030500Y-115125500D02*
X117030500Y-111919100D01*
X117779800Y-115874800D02*
X117030500Y-115125500D01*
X121849100Y-115874800D02*
X117779800Y-115874800D01*
X121941700Y-115782200D02*
X121849100Y-115874800D01*
X108635800Y-120478015D02*
X108635800Y-118770400D01*
X108508800Y-121170700D02*
X108508800Y-120605015D01*
X108508800Y-120605015D02*
X108635800Y-120478015D01*
X108635800Y-118770400D02*
X108635800Y-118999000D01*
X108635800Y-111349400D02*
X108635800Y-118770400D01*
X121814700Y-119713900D02*
X121814700Y-121682400D01*
X121941700Y-119586900D02*
X121814700Y-119713900D01*
X108623100Y-108112000D02*
X108623100Y-108892000D01*
X105956100Y-102106500D02*
X107226100Y-102106500D01*
X107353100Y-102546200D02*
X107353100Y-103292000D01*
X103149500Y-100863400D02*
X103936800Y-100863400D01*
X78365100Y-99288600D02*
X77127100Y-98050600D01*
X81622900Y-99288600D02*
X78365100Y-99288600D01*
X106083100Y-102546200D02*
X106083100Y-103292000D01*
X84239100Y-101904800D02*
X81622900Y-99288600D01*
X107353100Y-108121800D02*
X107353100Y-108629900D01*
X78270100Y-114535200D02*
X77089000Y-113354100D01*
X82035900Y-114535200D02*
X78270100Y-114535200D01*
X87960200Y-120459500D02*
X82035900Y-114535200D01*
X102336600Y-120459500D02*
X87960200Y-120459500D01*
X107327700Y-115468400D02*
X102336600Y-120459500D01*
X107327700Y-111899700D02*
X107327700Y-115468400D01*
X79629000Y-113354100D02*
X79629000Y-113518688D01*
X106083100Y-108629900D02*
X106006900Y-108706100D01*
X106083100Y-108121800D02*
X106083100Y-108629900D01*
X105994200Y-111912400D02*
X106006900Y-111925100D01*
X104571800Y-111912400D02*
X105994200Y-111912400D01*
X106083100Y-108121800D02*
X106083100Y-108892400D01*
X81667600Y-113290600D02*
X79667100Y-113290600D01*
X88900000Y-119278400D02*
X82912200Y-113290600D01*
X106006900Y-115189000D02*
X101917500Y-119278400D01*
X106006900Y-111925100D02*
X106006900Y-115189000D01*
X82912200Y-113290600D02*
X81667600Y-113290600D01*
X101917500Y-119278400D02*
X88900000Y-119278400D01*
D28*
X92595700Y-100821200D02*
X92557600Y-100859300D01*
X92595700Y-98259100D02*
X92595700Y-100821200D01*
X92659200Y-98868700D02*
X92659200Y-97382800D01*
X92621100Y-98906800D02*
X92659200Y-98868700D01*
D27*
X119544900Y-100937400D02*
X119544900Y-102828600D01*
X119777400Y-100704900D02*
X119544900Y-100937400D01*
X108483400Y-100565200D02*
X108178600Y-100260400D01*
X108496100Y-100743000D02*
X108483400Y-100730300D01*
X108178600Y-100260400D02*
X107531000Y-100260400D01*
X108483400Y-100730300D02*
X108483400Y-100565200D01*
X108496100Y-102141900D02*
X108496100Y-100743000D01*
X92785200Y-95206800D02*
X92659200Y-95332800D01*
X95224600Y-95473500D02*
X92810600Y-95473500D01*
X80778601Y-107035599D02*
X74847701Y-107035599D01*
X101244400Y-109215500D02*
X100268100Y-109215500D01*
X100268100Y-109215500D02*
X99568000Y-108515400D01*
X79629000Y-117037100D02*
X79629000Y-115881400D01*
X78708250Y-117957850D02*
X79629000Y-117037100D01*
X78600300Y-118065800D02*
X78708250Y-117957850D01*
X95173800Y-99434900D02*
X95173800Y-100852400D01*
X95199200Y-100082600D02*
X95199200Y-98506800D01*
X104686100Y-101530300D02*
X105956000Y-100260400D01*
X104686100Y-103102300D02*
X104686100Y-101530300D01*
X115704900Y-100922100D02*
X115704900Y-102828600D01*
X99590900Y-96558100D02*
X99885500Y-96263500D01*
X98810900Y-96558100D02*
X99590900Y-96558100D01*
X99885500Y-95060800D02*
X99949000Y-94997300D01*
X99885500Y-96263500D02*
X99885500Y-95060800D01*
X99949000Y-94997300D02*
X101131400Y-93814900D01*
X98907600Y-93814900D02*
X98894900Y-93827600D01*
X101131400Y-93814900D02*
X98907600Y-93814900D01*
X104946100Y-99250500D02*
X105956000Y-100260400D01*
X104622600Y-99250500D02*
X104946100Y-99250500D01*
X115639850Y-100336350D02*
X115639850Y-100857050D01*
X114325400Y-99021900D02*
X115639850Y-100336350D01*
X115639850Y-100857050D02*
X115704900Y-100922100D01*
X101574500Y-100114000D02*
X100749100Y-99288600D01*
X101574500Y-100863400D02*
X101574500Y-100114000D01*
X104813100Y-102541600D02*
X104813100Y-103292000D01*
X92621100Y-99085620D02*
X92621100Y-98906800D01*
X92980540Y-99165660D02*
X92697300Y-98882420D01*
X114693700Y-98653600D02*
X114325400Y-99021900D01*
X116243100Y-98653600D02*
X114693700Y-98653600D01*
X90017600Y-100859300D02*
X90017600Y-99015000D01*
X90030300Y-99650000D02*
X90030300Y-98417900D01*
X90043000Y-99662700D02*
X90030300Y-99650000D01*
X93814900Y-117729000D02*
X97108800Y-117729000D01*
X92621100Y-116535200D02*
X93814900Y-117729000D01*
X97108800Y-117729000D02*
X98171000Y-116666800D01*
X92621100Y-116535200D02*
X92621100Y-115571700D01*
X90017600Y-111499900D02*
X90131900Y-111614200D01*
X90017600Y-111513200D02*
X90017600Y-111258600D01*
X91671100Y-113371700D02*
X91671100Y-113166700D01*
X90017600Y-111258600D02*
X90017600Y-111499900D01*
X91671100Y-113166700D02*
X90017600Y-111513200D01*
X90017600Y-109999300D02*
X90017600Y-111258600D01*
X95097600Y-111640200D02*
X95097600Y-109999300D01*
X93571100Y-113166700D02*
X95097600Y-111640200D01*
X93571100Y-113371700D02*
X93571100Y-113166700D01*
X118988100Y-112566700D02*
X118592600Y-112171200D01*
X119663100Y-112566700D02*
X118988100Y-112566700D01*
X118904900Y-109268600D02*
X118904900Y-108258600D01*
X118592600Y-109580900D02*
X118904900Y-109268600D01*
X119127800Y-98761800D02*
X118721400Y-99168200D01*
X119802800Y-98761800D02*
X119127800Y-98761800D01*
X118721400Y-99168200D02*
X118721400Y-101236500D01*
X118809901Y-101325001D02*
X118809901Y-101808599D01*
X118721400Y-101236500D02*
X118809901Y-101325001D01*
X118904900Y-101818600D02*
X118904900Y-102828600D01*
X118894899Y-101808599D02*
X118904900Y-101818600D01*
X118809901Y-101808599D02*
X118894899Y-101808599D01*
X118904900Y-109268600D02*
X118829899Y-109343601D01*
X118563639Y-111489161D02*
X118563639Y-109609861D01*
X118592600Y-111518122D02*
X118563639Y-111489161D01*
X118563639Y-109609861D02*
X118829899Y-109343601D01*
X118592600Y-112171200D02*
X118592600Y-111518122D01*
X121827400Y-101504900D02*
X121827400Y-100704900D01*
X120654900Y-102828600D02*
X121827400Y-101656100D01*
X121827400Y-101656100D02*
X121827400Y-101504900D01*
X120184900Y-102828600D02*
X120654900Y-102828600D01*
X121852800Y-100679500D02*
X121827400Y-100704900D01*
X121852800Y-98761800D02*
X121852800Y-100679500D01*
X119557900Y-96742500D02*
X121609100Y-96742500D01*
X121852800Y-96986200D02*
X121852800Y-98761800D01*
X121609100Y-96742500D02*
X121852800Y-96986200D01*
X102909300Y-97508100D02*
X102933500Y-97532300D01*
X101010900Y-97508100D02*
X102909300Y-97508100D01*
X107531000Y-100260400D02*
X107645200Y-100146200D01*
X103733500Y-97532300D02*
X103780600Y-97485200D01*
X102933500Y-97532300D02*
X103733500Y-97532300D01*
X108623100Y-102546200D02*
X108623100Y-103292000D01*
X104432100Y-92722700D02*
X104927400Y-93218000D01*
X89268300Y-92722700D02*
X104432100Y-92722700D01*
X87096600Y-94894400D02*
X89268300Y-92722700D01*
X87071200Y-94894400D02*
X87096600Y-94894400D01*
X80149700Y-96139000D02*
X85826600Y-96139000D01*
X79667100Y-96621600D02*
X80149700Y-96139000D01*
X85826600Y-96139000D02*
X87071200Y-94894400D01*
X79667100Y-98050600D02*
X79667100Y-96621600D01*
X104927400Y-95707200D02*
X104927400Y-96189800D01*
X103584900Y-97532300D02*
X102933500Y-97532300D01*
X104927400Y-93218000D02*
X104927400Y-95707200D01*
X104927400Y-95707200D02*
X104927400Y-95897700D01*
X107057300Y-97532300D02*
X107645200Y-98120200D01*
X103584900Y-97532300D02*
X107057300Y-97532300D01*
X107645200Y-100146200D02*
X107645200Y-98120200D01*
X104927400Y-96189800D02*
X104927400Y-96100900D01*
X104927400Y-96189800D02*
X104470200Y-96647000D01*
X104470200Y-96647000D02*
X103584900Y-97532300D01*
X121852800Y-95698200D02*
X121852800Y-96986200D01*
X121709400Y-95554800D02*
X121852800Y-95698200D01*
X115798600Y-95554800D02*
X121709400Y-95554800D01*
X114706400Y-96647000D02*
X115798600Y-95554800D01*
X104470200Y-96647000D02*
X114706400Y-96647000D01*
X100776100Y-105772200D02*
X101244400Y-106240500D01*
X97967800Y-105772200D02*
X100776100Y-105772200D01*
X83235800Y-105746800D02*
X82067400Y-105746800D01*
X81461100Y-106353100D02*
X80778601Y-107035599D01*
X82067400Y-105746800D02*
X81461100Y-106353100D01*
X98958400Y-106934000D02*
X99568000Y-107543600D01*
X99568000Y-107543600D02*
X99568000Y-107784900D01*
X99568000Y-108515400D02*
X99568000Y-107784900D01*
X82631902Y-106984800D02*
X83362800Y-106984800D01*
X80072602Y-109544100D02*
X82631902Y-106984800D01*
X75260200Y-109544100D02*
X80072602Y-109544100D01*
X78708250Y-117957850D02*
X78536800Y-118129300D01*
X74396600Y-116287800D02*
X74396600Y-110407700D01*
X76238100Y-118129300D02*
X74396600Y-116287800D01*
X74396600Y-110407700D02*
X75260200Y-109544100D01*
X78536800Y-118129300D02*
X76238100Y-118129300D01*
X116344900Y-102828600D02*
X116344900Y-101523600D01*
X116344900Y-101523600D02*
X116598700Y-101269800D01*
X116598700Y-101269800D02*
X116763800Y-101269800D01*
X116984900Y-101490900D02*
X116984900Y-102828600D01*
X116763800Y-101269800D02*
X116984900Y-101490900D01*
X118264900Y-101818600D02*
X118160800Y-101714500D01*
X118264900Y-102828600D02*
X118264900Y-101818600D01*
X118160800Y-101714500D02*
X118160800Y-98691700D01*
X118376700Y-98475800D02*
X118376700Y-98425000D01*
X118160800Y-98691700D02*
X118376700Y-98475800D01*
X116344900Y-108258600D02*
X116344900Y-109268600D01*
X116344900Y-109268600D02*
X115676950Y-109936550D01*
X115676950Y-109936550D02*
X115586800Y-110026700D01*
X74821800Y-108210600D02*
X77127100Y-108210600D01*
X115676950Y-120035050D02*
X113697590Y-122014410D01*
X113697590Y-122014410D02*
X75039889Y-122014410D01*
X73672700Y-120647221D02*
X73672700Y-109359700D01*
X73672700Y-109359700D02*
X74821800Y-108210600D01*
X75039889Y-122014410D02*
X73672700Y-120647221D01*
X115676950Y-109936550D02*
X115676950Y-120035050D01*
X116984900Y-110298500D02*
X117030500Y-110344100D01*
X116984900Y-108258600D02*
X116984900Y-110298500D01*
X118264900Y-109268600D02*
X118059200Y-109474300D01*
X118264900Y-108258600D02*
X118264900Y-109268600D01*
X118059200Y-114014500D02*
X118071900Y-114027200D01*
X118059200Y-109474300D02*
X118059200Y-114014500D01*
D28*
X82842100Y-110750600D02*
X79959010Y-110750600D01*
X87325200Y-115233700D02*
X82842100Y-110750600D01*
X90347100Y-115233700D02*
X88932000Y-115233700D01*
X88932000Y-115233700D02*
X87325200Y-115233700D01*
D29*
X111506000Y-116471700D02*
X111506000Y-106680000D01*
X110858300Y-106032300D02*
X110744000Y-106032300D01*
X111506000Y-106680000D02*
X110858300Y-106032300D01*
D27*
X117957500Y-96717100D02*
X117982900Y-96742500D01*
X116446400Y-96717100D02*
X117957500Y-96717100D01*
X117624900Y-102828600D02*
X117624900Y-98122700D01*
X117982900Y-97764700D02*
X117982900Y-96742500D01*
X117624900Y-98122700D02*
X117982900Y-97764700D01*
X92444300Y-95117900D02*
X92659200Y-95332800D01*
X90055700Y-95384600D02*
X92469700Y-95384600D01*
X98790600Y-95587800D02*
X98810900Y-95608100D01*
X92659200Y-94657800D02*
X92684600Y-94632400D01*
X92659200Y-95332800D02*
X92659200Y-94657800D01*
X97383600Y-97129600D02*
X97383600Y-95877300D01*
X97762100Y-97508100D02*
X97383600Y-97129600D01*
X97383600Y-95877300D02*
X97652800Y-95608100D01*
X98810900Y-97508100D02*
X97762100Y-97508100D01*
X97978000Y-95608100D02*
X98810900Y-95608100D01*
X97652800Y-95608100D02*
X97978000Y-95608100D01*
X97030500Y-93652300D02*
X97030500Y-93690400D01*
X92659200Y-94657800D02*
X92659200Y-94259400D01*
X93266300Y-93652300D02*
X97030500Y-93652300D01*
X92659200Y-94259400D02*
X93266300Y-93652300D01*
X97548700Y-95178800D02*
X97978000Y-95608100D01*
X97030500Y-93690400D02*
X97548700Y-94208600D01*
X97548700Y-94208600D02*
X97548700Y-95178800D01*
X102933500Y-93867000D02*
X102881400Y-93814900D01*
X102933500Y-95482300D02*
X102933500Y-93867000D01*
D30*
G36*
X92970350Y-98859500D02*
G01*
X93384600Y-98862572D01*
X93414390Y-98859638D01*
X93392562Y-99769147D01*
X93392094Y-99768763D01*
X93281780Y-99709798D01*
X93162082Y-99673488D01*
X93037600Y-99661228D01*
X92843350Y-99664300D01*
X92684600Y-99823050D01*
X92684600Y-100037900D01*
X92430600Y-100037900D01*
X92430600Y-99823050D01*
X92271850Y-99664300D01*
X92077600Y-99661228D01*
X91953118Y-99673488D01*
X91935300Y-99678893D01*
X91935300Y-98857717D01*
X91984600Y-98862572D01*
X92398850Y-98859500D01*
X92553950Y-98704400D01*
X92815250Y-98704400D01*
X92970350Y-98859500D01*
X92970350Y-98859500D01*
G37*
X92970350Y-98859500D02*
X93384600Y-98862572D01*
X93414390Y-98859638D01*
X93392562Y-99769147D01*
X93392094Y-99768763D01*
X93281780Y-99709798D01*
X93162082Y-99673488D01*
X93037600Y-99661228D01*
X92843350Y-99664300D01*
X92684600Y-99823050D01*
X92684600Y-100037900D01*
X92430600Y-100037900D01*
X92430600Y-99823050D01*
X92271850Y-99664300D01*
X92077600Y-99661228D01*
X91953118Y-99673488D01*
X91935300Y-99678893D01*
X91935300Y-98857717D01*
X91984600Y-98862572D01*
X92398850Y-98859500D01*
X92553950Y-98704400D01*
X92815250Y-98704400D01*
X92970350Y-98859500D01*
M02*
