%TF.GenerationSoftware,KiCad,Pcbnew,(5.1.4-0-10_14)*%
%TF.CreationDate,2021-01-25T16:41:12+01:00*%
%TF.ProjectId,DAUGHTER_ALLin,44415547-4854-4455-925f-414c4c696e2e,rev?*%
%TF.SameCoordinates,Original*%
%TF.FileFunction,Legend,Bot*%
%TF.FilePolarity,Positive*%
%FSLAX46Y46*%
G04 Gerber Fmt 4.6, Leading zero omitted, Abs format (unit mm)*
G04 Created by KiCad (PCBNEW (5.1.4-0-10_14)) date 2021-01-25 16:41:12*
%MOMM*%
%LPD*%
G04 APERTURE LIST*
%ADD10C,0.120000*%
%ADD11C,0.200000*%
G04 APERTURE END LIST*
D10*
X100810900Y-98168100D02*
X98360900Y-98168100D01*
X99010900Y-94948100D02*
X100810900Y-94948100D01*
X102177667Y-94324900D02*
X101835133Y-94324900D01*
X102177667Y-93304900D02*
X101835133Y-93304900D01*
X102223500Y-96768552D02*
X102223500Y-96246048D01*
X103643500Y-96768552D02*
X103643500Y-96246048D01*
X103670100Y-102032000D02*
X103670100Y-109506000D01*
X109512100Y-102032000D02*
X109512100Y-108744000D01*
X103670100Y-102032000D02*
X109512100Y-102032000D01*
X103670100Y-109506000D02*
X108750100Y-109506000D01*
X109512100Y-108744000D02*
X108750100Y-109506000D01*
X75687100Y-96720600D02*
X75687100Y-117160600D01*
X75687100Y-117160600D02*
X73027100Y-117160600D01*
X73027100Y-117160600D02*
X73027100Y-96720600D01*
X73027100Y-96720600D02*
X75687100Y-96720600D01*
X73027100Y-97670600D02*
X67027100Y-97670600D01*
X67027100Y-97670600D02*
X67027100Y-98430600D01*
X67027100Y-98430600D02*
X73027100Y-98430600D01*
X73027100Y-97730600D02*
X67027100Y-97730600D01*
X73027100Y-97850600D02*
X67027100Y-97850600D01*
X73027100Y-97970600D02*
X67027100Y-97970600D01*
X73027100Y-98090600D02*
X67027100Y-98090600D01*
X73027100Y-98210600D02*
X67027100Y-98210600D01*
X73027100Y-98330600D02*
X67027100Y-98330600D01*
X76084171Y-97670600D02*
X75687100Y-97670600D01*
X76084171Y-98430600D02*
X75687100Y-98430600D01*
X78557100Y-97670600D02*
X78170029Y-97670600D01*
X78557100Y-98430600D02*
X78170029Y-98430600D01*
X75687100Y-99320600D02*
X73027100Y-99320600D01*
X73027100Y-100210600D02*
X67027100Y-100210600D01*
X67027100Y-100210600D02*
X67027100Y-100970600D01*
X67027100Y-100970600D02*
X73027100Y-100970600D01*
X76084171Y-100210600D02*
X75687100Y-100210600D01*
X76084171Y-100970600D02*
X75687100Y-100970600D01*
X78624171Y-100210600D02*
X78170029Y-100210600D01*
X78624171Y-100970600D02*
X78170029Y-100970600D01*
X75687100Y-101860600D02*
X73027100Y-101860600D01*
X73027100Y-102750600D02*
X67027100Y-102750600D01*
X67027100Y-102750600D02*
X67027100Y-103510600D01*
X67027100Y-103510600D02*
X73027100Y-103510600D01*
X76084171Y-102750600D02*
X75687100Y-102750600D01*
X76084171Y-103510600D02*
X75687100Y-103510600D01*
X78624171Y-102750600D02*
X78170029Y-102750600D01*
X78624171Y-103510600D02*
X78170029Y-103510600D01*
X75687100Y-104400600D02*
X73027100Y-104400600D01*
X73027100Y-105290600D02*
X67027100Y-105290600D01*
X67027100Y-105290600D02*
X67027100Y-106050600D01*
X67027100Y-106050600D02*
X73027100Y-106050600D01*
X76084171Y-105290600D02*
X75687100Y-105290600D01*
X76084171Y-106050600D02*
X75687100Y-106050600D01*
X78624171Y-105290600D02*
X78170029Y-105290600D01*
X78624171Y-106050600D02*
X78170029Y-106050600D01*
X75687100Y-106940600D02*
X73027100Y-106940600D01*
X73027100Y-107830600D02*
X67027100Y-107830600D01*
X67027100Y-107830600D02*
X67027100Y-108590600D01*
X67027100Y-108590600D02*
X73027100Y-108590600D01*
X76084171Y-107830600D02*
X75687100Y-107830600D01*
X76084171Y-108590600D02*
X75687100Y-108590600D01*
X78624171Y-107830600D02*
X78170029Y-107830600D01*
X78624171Y-108590600D02*
X78170029Y-108590600D01*
X75687100Y-109480600D02*
X73027100Y-109480600D01*
X73027100Y-110370600D02*
X67027100Y-110370600D01*
X67027100Y-110370600D02*
X67027100Y-111130600D01*
X67027100Y-111130600D02*
X73027100Y-111130600D01*
X76084171Y-110370600D02*
X75687100Y-110370600D01*
X76084171Y-111130600D02*
X75687100Y-111130600D01*
X78624171Y-110370600D02*
X78170029Y-110370600D01*
X78624171Y-111130600D02*
X78170029Y-111130600D01*
X75687100Y-112020600D02*
X73027100Y-112020600D01*
X73027100Y-112910600D02*
X67027100Y-112910600D01*
X67027100Y-112910600D02*
X67027100Y-113670600D01*
X67027100Y-113670600D02*
X73027100Y-113670600D01*
X76084171Y-112910600D02*
X75687100Y-112910600D01*
X76084171Y-113670600D02*
X75687100Y-113670600D01*
X78624171Y-112910600D02*
X78170029Y-112910600D01*
X78624171Y-113670600D02*
X78170029Y-113670600D01*
X75687100Y-114560600D02*
X73027100Y-114560600D01*
X73027100Y-115450600D02*
X67027100Y-115450600D01*
X67027100Y-115450600D02*
X67027100Y-116210600D01*
X67027100Y-116210600D02*
X73027100Y-116210600D01*
X76084171Y-115450600D02*
X75687100Y-115450600D01*
X76084171Y-116210600D02*
X75687100Y-116210600D01*
X78624171Y-115450600D02*
X78170029Y-115450600D01*
X78624171Y-116210600D02*
X78170029Y-116210600D01*
X80937100Y-98050600D02*
X80937100Y-96780600D01*
X80937100Y-96780600D02*
X79667100Y-96780600D01*
D11*
X95301540Y-111478300D02*
G75*
G03X95301540Y-111478300I-103940J0D01*
G01*
X89192600Y-101859300D02*
X89192600Y-108999300D01*
X95922600Y-101859300D02*
X89192600Y-101859300D01*
X95922600Y-108999300D02*
X95922600Y-101859300D01*
X89192600Y-108999300D02*
X95922600Y-108999300D01*
D10*
X115733100Y-98028879D02*
X115733100Y-97703321D01*
X116753100Y-98028879D02*
X116753100Y-97703321D01*
X118607621Y-96232500D02*
X118933179Y-96232500D01*
X118607621Y-97252500D02*
X118933179Y-97252500D01*
X117540500Y-110968821D02*
X117540500Y-111294379D01*
X116520500Y-110968821D02*
X116520500Y-111294379D01*
X121063652Y-101414900D02*
X120541148Y-101414900D01*
X121063652Y-99994900D02*
X120541148Y-99994900D01*
X121089052Y-99471800D02*
X120566548Y-99471800D01*
X121089052Y-98051800D02*
X120566548Y-98051800D01*
X121177952Y-113251300D02*
X120655448Y-113251300D01*
X121177952Y-111831300D02*
X120655448Y-111831300D01*
X121216052Y-111270100D02*
X120693548Y-111270100D01*
X121216052Y-109850100D02*
X120693548Y-109850100D01*
X91011100Y-115371700D02*
X91011100Y-112921700D01*
X94231100Y-113571700D02*
X94231100Y-115371700D01*
X97171000Y-115316800D02*
X97171000Y-116716800D01*
X97871000Y-117416800D02*
X98471000Y-117416800D01*
X99171000Y-116716800D02*
X99171000Y-115316800D01*
X98471000Y-114616800D02*
X97871000Y-114616800D01*
X97871000Y-114616800D02*
G75*
G03X97171000Y-115316800I0J-700000D01*
G01*
X99171000Y-115316800D02*
G75*
G03X98471000Y-114616800I-700000J0D01*
G01*
X98471000Y-117416800D02*
G75*
G03X99171000Y-116716800I0J700000D01*
G01*
X97171000Y-116716800D02*
G75*
G03X97871000Y-117416800I700000J0D01*
G01*
D11*
X120754900Y-109018600D02*
X120754900Y-107498600D01*
X115494900Y-107148600D02*
X120394900Y-107148600D01*
X115494900Y-103938600D02*
X115494900Y-107148600D01*
X120394900Y-103938600D02*
X115494900Y-103938600D01*
X120394900Y-107148600D02*
X120394900Y-103938600D01*
D10*
X89055700Y-94784600D02*
X89055700Y-98684600D01*
X91055700Y-94784600D02*
X91055700Y-98684600D01*
X89055700Y-94784600D02*
X91055700Y-94784600D01*
X94224600Y-94873500D02*
X94224600Y-98773500D01*
X96224600Y-94873500D02*
X96224600Y-98773500D01*
X94224600Y-94873500D02*
X96224600Y-94873500D01*
X95772700Y-114054921D02*
X95772700Y-114380479D01*
X94752700Y-114054921D02*
X94752700Y-114380479D01*
X93394600Y-96363248D02*
X93394600Y-96885752D01*
X91974600Y-96363248D02*
X91974600Y-96885752D01*
X102199221Y-100353400D02*
X102524779Y-100353400D01*
X102199221Y-101373400D02*
X102524779Y-101373400D01*
X103858279Y-112587500D02*
X103532721Y-112587500D01*
X103858279Y-111567500D02*
X103532721Y-111567500D01*
X106906279Y-100770400D02*
X106580721Y-100770400D01*
X106906279Y-99750400D02*
X106580721Y-99750400D01*
X106690379Y-111076200D02*
X106364821Y-111076200D01*
X106690379Y-110056200D02*
X106364821Y-110056200D01*
X102154400Y-107125936D02*
X102154400Y-108330064D01*
X100334400Y-107125936D02*
X100334400Y-108330064D01*
M02*
