%TF.GenerationSoftware,KiCad,Pcbnew,(5.1.4-0-10_14)*%
%TF.CreationDate,2021-01-25T16:41:12+01:00*%
%TF.ProjectId,DAUGHTER_ALLin,44415547-4854-4455-925f-414c4c696e2e,rev?*%
%TF.SameCoordinates,Original*%
%TF.FileFunction,Soldermask,Top*%
%TF.FilePolarity,Negative*%
%FSLAX46Y46*%
G04 Gerber Fmt 4.6, Leading zero omitted, Abs format (unit mm)*
G04 Created by KiCad (PCBNEW (5.1.4-0-10_14)) date 2021-01-25 16:41:12*
%MOMM*%
%LPD*%
G04 APERTURE LIST*
%ADD10C,0.100000*%
%ADD11C,0.150000*%
G04 APERTURE END LIST*
D10*
G36*
X130098800Y-88353900D02*
G01*
X129501900Y-122897900D01*
X71526400Y-123266200D01*
X71399400Y-87985600D01*
X130098800Y-88353900D01*
G37*
X130098800Y-88353900D02*
X129501900Y-122897900D01*
X71526400Y-123266200D01*
X71399400Y-87985600D01*
X130098800Y-88353900D01*
D11*
G36*
X79777542Y-114936118D02*
G01*
X79843727Y-114942637D01*
X80013566Y-114994157D01*
X80170091Y-115077822D01*
X80205829Y-115107152D01*
X80307286Y-115190414D01*
X80390548Y-115291871D01*
X80419878Y-115327609D01*
X80503543Y-115484134D01*
X80555063Y-115653973D01*
X80572459Y-115830600D01*
X80555063Y-116007227D01*
X80503543Y-116177066D01*
X80419878Y-116333591D01*
X80390548Y-116369329D01*
X80307286Y-116470786D01*
X80233207Y-116531580D01*
X80170091Y-116583378D01*
X80013566Y-116667043D01*
X79843727Y-116718563D01*
X79777542Y-116725082D01*
X79711360Y-116731600D01*
X79622840Y-116731600D01*
X79556658Y-116725082D01*
X79490473Y-116718563D01*
X79320634Y-116667043D01*
X79164109Y-116583378D01*
X79100993Y-116531580D01*
X79026914Y-116470786D01*
X78943652Y-116369329D01*
X78914322Y-116333591D01*
X78830657Y-116177066D01*
X78779137Y-116007227D01*
X78761741Y-115830600D01*
X78779137Y-115653973D01*
X78830657Y-115484134D01*
X78914322Y-115327609D01*
X78943652Y-115291871D01*
X79026914Y-115190414D01*
X79128371Y-115107152D01*
X79164109Y-115077822D01*
X79320634Y-114994157D01*
X79490473Y-114942637D01*
X79556658Y-114936118D01*
X79622840Y-114929600D01*
X79711360Y-114929600D01*
X79777542Y-114936118D01*
X79777542Y-114936118D01*
G37*
G36*
X77237542Y-114936118D02*
G01*
X77303727Y-114942637D01*
X77473566Y-114994157D01*
X77630091Y-115077822D01*
X77665829Y-115107152D01*
X77767286Y-115190414D01*
X77850548Y-115291871D01*
X77879878Y-115327609D01*
X77963543Y-115484134D01*
X78015063Y-115653973D01*
X78032459Y-115830600D01*
X78015063Y-116007227D01*
X77963543Y-116177066D01*
X77879878Y-116333591D01*
X77850548Y-116369329D01*
X77767286Y-116470786D01*
X77693207Y-116531580D01*
X77630091Y-116583378D01*
X77473566Y-116667043D01*
X77303727Y-116718563D01*
X77237542Y-116725082D01*
X77171360Y-116731600D01*
X77082840Y-116731600D01*
X77016658Y-116725082D01*
X76950473Y-116718563D01*
X76780634Y-116667043D01*
X76624109Y-116583378D01*
X76560993Y-116531580D01*
X76486914Y-116470786D01*
X76403652Y-116369329D01*
X76374322Y-116333591D01*
X76290657Y-116177066D01*
X76239137Y-116007227D01*
X76221741Y-115830600D01*
X76239137Y-115653973D01*
X76290657Y-115484134D01*
X76374322Y-115327609D01*
X76403652Y-115291871D01*
X76486914Y-115190414D01*
X76588371Y-115107152D01*
X76624109Y-115077822D01*
X76780634Y-114994157D01*
X76950473Y-114942637D01*
X77016658Y-114936118D01*
X77082840Y-114929600D01*
X77171360Y-114929600D01*
X77237542Y-114936118D01*
X77237542Y-114936118D01*
G37*
G36*
X95688420Y-113861803D02*
G01*
X95722585Y-113872167D01*
X95754064Y-113888993D01*
X95781660Y-113911640D01*
X95804307Y-113939236D01*
X95821133Y-113970715D01*
X95831497Y-114004880D01*
X95835600Y-114046542D01*
X95835600Y-116420858D01*
X95831497Y-116462520D01*
X95821133Y-116496685D01*
X95804307Y-116528164D01*
X95781660Y-116555760D01*
X95754064Y-116578407D01*
X95722585Y-116595233D01*
X95688420Y-116605597D01*
X95646758Y-116609700D01*
X94397442Y-116609700D01*
X94355780Y-116605597D01*
X94321615Y-116595233D01*
X94290136Y-116578407D01*
X94262540Y-116555760D01*
X94239893Y-116528164D01*
X94223067Y-116496685D01*
X94212703Y-116462520D01*
X94208600Y-116420858D01*
X94208600Y-114046542D01*
X94212703Y-114004880D01*
X94223067Y-113970715D01*
X94239893Y-113939236D01*
X94262540Y-113911640D01*
X94290136Y-113888993D01*
X94321615Y-113872167D01*
X94355780Y-113861803D01*
X94397442Y-113857700D01*
X95646758Y-113857700D01*
X95688420Y-113861803D01*
X95688420Y-113861803D01*
G37*
G36*
X91013420Y-113861803D02*
G01*
X91047585Y-113872167D01*
X91079064Y-113888993D01*
X91106660Y-113911640D01*
X91129307Y-113939236D01*
X91146133Y-113970715D01*
X91156497Y-114004880D01*
X91160600Y-114046542D01*
X91160600Y-116420858D01*
X91156497Y-116462520D01*
X91146133Y-116496685D01*
X91129307Y-116528164D01*
X91106660Y-116555760D01*
X91079064Y-116578407D01*
X91047585Y-116595233D01*
X91013420Y-116605597D01*
X90971758Y-116609700D01*
X89722442Y-116609700D01*
X89680780Y-116605597D01*
X89646615Y-116595233D01*
X89615136Y-116578407D01*
X89587540Y-116555760D01*
X89564893Y-116528164D01*
X89548067Y-116496685D01*
X89537703Y-116462520D01*
X89533600Y-116420858D01*
X89533600Y-114046542D01*
X89537703Y-114004880D01*
X89548067Y-113970715D01*
X89564893Y-113939236D01*
X89587540Y-113911640D01*
X89615136Y-113888993D01*
X89646615Y-113872167D01*
X89680780Y-113861803D01*
X89722442Y-113857700D01*
X90971758Y-113857700D01*
X91013420Y-113861803D01*
X91013420Y-113861803D01*
G37*
G36*
X79758409Y-112394234D02*
G01*
X79843727Y-112402637D01*
X80013566Y-112454157D01*
X80170091Y-112537822D01*
X80205829Y-112567152D01*
X80307286Y-112650414D01*
X80390548Y-112751871D01*
X80419878Y-112787609D01*
X80503543Y-112944134D01*
X80555063Y-113113973D01*
X80572459Y-113290600D01*
X80555063Y-113467227D01*
X80503543Y-113637066D01*
X80419878Y-113793591D01*
X80390548Y-113829329D01*
X80307286Y-113930786D01*
X80217001Y-114004880D01*
X80170091Y-114043378D01*
X80013566Y-114127043D01*
X79843727Y-114178563D01*
X79777542Y-114185082D01*
X79711360Y-114191600D01*
X79622840Y-114191600D01*
X79556658Y-114185082D01*
X79490473Y-114178563D01*
X79320634Y-114127043D01*
X79164109Y-114043378D01*
X79117199Y-114004880D01*
X79026914Y-113930786D01*
X78943652Y-113829329D01*
X78914322Y-113793591D01*
X78830657Y-113637066D01*
X78779137Y-113467227D01*
X78761741Y-113290600D01*
X78779137Y-113113973D01*
X78830657Y-112944134D01*
X78914322Y-112787609D01*
X78943652Y-112751871D01*
X79026914Y-112650414D01*
X79128371Y-112567152D01*
X79164109Y-112537822D01*
X79320634Y-112454157D01*
X79490473Y-112402637D01*
X79575791Y-112394234D01*
X79622840Y-112389600D01*
X79711360Y-112389600D01*
X79758409Y-112394234D01*
X79758409Y-112394234D01*
G37*
G36*
X77218409Y-112394234D02*
G01*
X77303727Y-112402637D01*
X77473566Y-112454157D01*
X77630091Y-112537822D01*
X77665829Y-112567152D01*
X77767286Y-112650414D01*
X77850548Y-112751871D01*
X77879878Y-112787609D01*
X77963543Y-112944134D01*
X78015063Y-113113973D01*
X78032459Y-113290600D01*
X78015063Y-113467227D01*
X77963543Y-113637066D01*
X77879878Y-113793591D01*
X77850548Y-113829329D01*
X77767286Y-113930786D01*
X77677001Y-114004880D01*
X77630091Y-114043378D01*
X77473566Y-114127043D01*
X77303727Y-114178563D01*
X77237542Y-114185082D01*
X77171360Y-114191600D01*
X77082840Y-114191600D01*
X77016658Y-114185082D01*
X76950473Y-114178563D01*
X76780634Y-114127043D01*
X76624109Y-114043378D01*
X76577199Y-114004880D01*
X76486914Y-113930786D01*
X76403652Y-113829329D01*
X76374322Y-113793591D01*
X76290657Y-113637066D01*
X76239137Y-113467227D01*
X76221741Y-113290600D01*
X76239137Y-113113973D01*
X76290657Y-112944134D01*
X76374322Y-112787609D01*
X76403652Y-112751871D01*
X76486914Y-112650414D01*
X76588371Y-112567152D01*
X76624109Y-112537822D01*
X76780634Y-112454157D01*
X76950473Y-112402637D01*
X77035791Y-112394234D01*
X77082840Y-112389600D01*
X77171360Y-112389600D01*
X77218409Y-112394234D01*
X77218409Y-112394234D01*
G37*
G36*
X95954974Y-110931165D02*
G01*
X95992667Y-110942599D01*
X96027403Y-110961166D01*
X96057848Y-110986152D01*
X96082834Y-111016597D01*
X96101401Y-111051333D01*
X96112835Y-111089026D01*
X96117300Y-111134361D01*
X96117300Y-112221039D01*
X96112835Y-112266374D01*
X96101401Y-112304067D01*
X96082834Y-112338803D01*
X96057848Y-112369248D01*
X96027403Y-112394234D01*
X95992667Y-112412801D01*
X95954974Y-112424235D01*
X95909639Y-112428700D01*
X95072961Y-112428700D01*
X95027626Y-112424235D01*
X94989933Y-112412801D01*
X94955197Y-112394234D01*
X94924752Y-112369248D01*
X94899766Y-112338803D01*
X94881199Y-112304067D01*
X94869765Y-112266374D01*
X94865300Y-112221039D01*
X94865300Y-111134361D01*
X94869765Y-111089026D01*
X94881199Y-111051333D01*
X94899766Y-111016597D01*
X94924752Y-110986152D01*
X94955197Y-110961166D01*
X94989933Y-110942599D01*
X95027626Y-110931165D01*
X95072961Y-110926700D01*
X95909639Y-110926700D01*
X95954974Y-110931165D01*
X95954974Y-110931165D01*
G37*
G36*
X93904974Y-110931165D02*
G01*
X93942667Y-110942599D01*
X93977403Y-110961166D01*
X94007848Y-110986152D01*
X94032834Y-111016597D01*
X94051401Y-111051333D01*
X94062835Y-111089026D01*
X94067300Y-111134361D01*
X94067300Y-112221039D01*
X94062835Y-112266374D01*
X94051401Y-112304067D01*
X94032834Y-112338803D01*
X94007848Y-112369248D01*
X93977403Y-112394234D01*
X93942667Y-112412801D01*
X93904974Y-112424235D01*
X93859639Y-112428700D01*
X93022961Y-112428700D01*
X92977626Y-112424235D01*
X92939933Y-112412801D01*
X92905197Y-112394234D01*
X92874752Y-112369248D01*
X92849766Y-112338803D01*
X92831199Y-112304067D01*
X92819765Y-112266374D01*
X92815300Y-112221039D01*
X92815300Y-111134361D01*
X92819765Y-111089026D01*
X92831199Y-111051333D01*
X92849766Y-111016597D01*
X92874752Y-110986152D01*
X92905197Y-110961166D01*
X92939933Y-110942599D01*
X92977626Y-110931165D01*
X93022961Y-110926700D01*
X93859639Y-110926700D01*
X93904974Y-110931165D01*
X93904974Y-110931165D01*
G37*
G36*
X79777543Y-109856119D02*
G01*
X79843727Y-109862637D01*
X80013566Y-109914157D01*
X80170091Y-109997822D01*
X80205829Y-110027152D01*
X80307286Y-110110414D01*
X80390548Y-110211871D01*
X80419878Y-110247609D01*
X80503543Y-110404134D01*
X80555063Y-110573973D01*
X80572459Y-110750600D01*
X80555063Y-110927227D01*
X80503543Y-111097066D01*
X80419878Y-111253591D01*
X80390548Y-111289329D01*
X80307286Y-111390786D01*
X80205829Y-111474048D01*
X80170091Y-111503378D01*
X80013566Y-111587043D01*
X79843727Y-111638563D01*
X79777542Y-111645082D01*
X79711360Y-111651600D01*
X79622840Y-111651600D01*
X79556658Y-111645082D01*
X79490473Y-111638563D01*
X79320634Y-111587043D01*
X79164109Y-111503378D01*
X79128371Y-111474048D01*
X79026914Y-111390786D01*
X78943652Y-111289329D01*
X78914322Y-111253591D01*
X78830657Y-111097066D01*
X78779137Y-110927227D01*
X78761741Y-110750600D01*
X78779137Y-110573973D01*
X78830657Y-110404134D01*
X78914322Y-110247609D01*
X78943652Y-110211871D01*
X79026914Y-110110414D01*
X79128371Y-110027152D01*
X79164109Y-109997822D01*
X79320634Y-109914157D01*
X79490473Y-109862637D01*
X79556657Y-109856119D01*
X79622840Y-109849600D01*
X79711360Y-109849600D01*
X79777543Y-109856119D01*
X79777543Y-109856119D01*
G37*
G36*
X77237543Y-109856119D02*
G01*
X77303727Y-109862637D01*
X77473566Y-109914157D01*
X77630091Y-109997822D01*
X77665829Y-110027152D01*
X77767286Y-110110414D01*
X77850548Y-110211871D01*
X77879878Y-110247609D01*
X77963543Y-110404134D01*
X78015063Y-110573973D01*
X78032459Y-110750600D01*
X78015063Y-110927227D01*
X77963543Y-111097066D01*
X77879878Y-111253591D01*
X77850548Y-111289329D01*
X77767286Y-111390786D01*
X77665829Y-111474048D01*
X77630091Y-111503378D01*
X77473566Y-111587043D01*
X77303727Y-111638563D01*
X77237542Y-111645082D01*
X77171360Y-111651600D01*
X77082840Y-111651600D01*
X77016658Y-111645082D01*
X76950473Y-111638563D01*
X76780634Y-111587043D01*
X76624109Y-111503378D01*
X76588371Y-111474048D01*
X76486914Y-111390786D01*
X76403652Y-111289329D01*
X76374322Y-111253591D01*
X76290657Y-111097066D01*
X76239137Y-110927227D01*
X76221741Y-110750600D01*
X76239137Y-110573973D01*
X76290657Y-110404134D01*
X76374322Y-110247609D01*
X76403652Y-110211871D01*
X76486914Y-110110414D01*
X76588371Y-110027152D01*
X76624109Y-109997822D01*
X76780634Y-109914157D01*
X76950473Y-109862637D01*
X77016657Y-109856119D01*
X77082840Y-109849600D01*
X77171360Y-109849600D01*
X77237543Y-109856119D01*
X77237543Y-109856119D01*
G37*
G36*
X79777543Y-107316119D02*
G01*
X79843727Y-107322637D01*
X80013566Y-107374157D01*
X80013568Y-107374158D01*
X80091829Y-107415990D01*
X80170091Y-107457822D01*
X80203145Y-107484949D01*
X80307286Y-107570414D01*
X80368065Y-107644475D01*
X80419878Y-107707609D01*
X80503543Y-107864134D01*
X80555063Y-108033973D01*
X80572459Y-108210600D01*
X80555063Y-108387227D01*
X80503543Y-108557066D01*
X80419878Y-108713591D01*
X80390548Y-108749329D01*
X80307286Y-108850786D01*
X80205829Y-108934048D01*
X80170091Y-108963378D01*
X80013566Y-109047043D01*
X79843727Y-109098563D01*
X79777543Y-109105081D01*
X79711360Y-109111600D01*
X79622840Y-109111600D01*
X79556657Y-109105081D01*
X79490473Y-109098563D01*
X79320634Y-109047043D01*
X79164109Y-108963378D01*
X79128371Y-108934048D01*
X79026914Y-108850786D01*
X78943652Y-108749329D01*
X78914322Y-108713591D01*
X78830657Y-108557066D01*
X78779137Y-108387227D01*
X78761741Y-108210600D01*
X78779137Y-108033973D01*
X78830657Y-107864134D01*
X78914322Y-107707609D01*
X78966135Y-107644475D01*
X79026914Y-107570414D01*
X79131055Y-107484949D01*
X79164109Y-107457822D01*
X79242372Y-107415989D01*
X79320632Y-107374158D01*
X79320634Y-107374157D01*
X79490473Y-107322637D01*
X79556657Y-107316119D01*
X79622840Y-107309600D01*
X79711360Y-107309600D01*
X79777543Y-107316119D01*
X79777543Y-107316119D01*
G37*
G36*
X77237543Y-107316119D02*
G01*
X77303727Y-107322637D01*
X77473566Y-107374157D01*
X77473568Y-107374158D01*
X77551829Y-107415990D01*
X77630091Y-107457822D01*
X77663145Y-107484949D01*
X77767286Y-107570414D01*
X77828065Y-107644475D01*
X77879878Y-107707609D01*
X77963543Y-107864134D01*
X78015063Y-108033973D01*
X78032459Y-108210600D01*
X78015063Y-108387227D01*
X77963543Y-108557066D01*
X77879878Y-108713591D01*
X77850548Y-108749329D01*
X77767286Y-108850786D01*
X77665829Y-108934048D01*
X77630091Y-108963378D01*
X77473566Y-109047043D01*
X77303727Y-109098563D01*
X77237543Y-109105081D01*
X77171360Y-109111600D01*
X77082840Y-109111600D01*
X77016657Y-109105081D01*
X76950473Y-109098563D01*
X76780634Y-109047043D01*
X76624109Y-108963378D01*
X76588371Y-108934048D01*
X76486914Y-108850786D01*
X76403652Y-108749329D01*
X76374322Y-108713591D01*
X76290657Y-108557066D01*
X76239137Y-108387227D01*
X76221741Y-108210600D01*
X76239137Y-108033973D01*
X76290657Y-107864134D01*
X76374322Y-107707609D01*
X76426135Y-107644475D01*
X76486914Y-107570414D01*
X76591055Y-107484949D01*
X76624109Y-107457822D01*
X76702372Y-107415989D01*
X76780632Y-107374158D01*
X76780634Y-107374157D01*
X76950473Y-107322637D01*
X77016657Y-107316119D01*
X77082840Y-107309600D01*
X77171360Y-107309600D01*
X77237543Y-107316119D01*
X77237543Y-107316119D01*
G37*
G36*
X109861620Y-104901703D02*
G01*
X109895785Y-104912067D01*
X109927264Y-104928893D01*
X109954860Y-104951540D01*
X109977507Y-104979136D01*
X109994333Y-105010615D01*
X110004697Y-105044780D01*
X110008800Y-105086442D01*
X110008800Y-107460758D01*
X110004697Y-107502420D01*
X109994333Y-107536585D01*
X109977507Y-107568064D01*
X109954860Y-107595660D01*
X109927264Y-107618307D01*
X109895785Y-107635133D01*
X109861620Y-107645497D01*
X109819958Y-107649600D01*
X108570642Y-107649600D01*
X108528980Y-107645497D01*
X108494815Y-107635133D01*
X108463336Y-107618307D01*
X108435740Y-107595660D01*
X108413093Y-107568064D01*
X108396267Y-107536585D01*
X108385903Y-107502420D01*
X108381800Y-107460758D01*
X108381800Y-105086442D01*
X108385903Y-105044780D01*
X108396267Y-105010615D01*
X108413093Y-104979136D01*
X108435740Y-104951540D01*
X108463336Y-104928893D01*
X108494815Y-104912067D01*
X108528980Y-104901703D01*
X108570642Y-104897600D01*
X109819958Y-104897600D01*
X109861620Y-104901703D01*
X109861620Y-104901703D01*
G37*
G36*
X105186620Y-104901703D02*
G01*
X105220785Y-104912067D01*
X105252264Y-104928893D01*
X105279860Y-104951540D01*
X105302507Y-104979136D01*
X105319333Y-105010615D01*
X105329697Y-105044780D01*
X105333800Y-105086442D01*
X105333800Y-107460758D01*
X105329697Y-107502420D01*
X105319333Y-107536585D01*
X105302507Y-107568064D01*
X105279860Y-107595660D01*
X105252264Y-107618307D01*
X105220785Y-107635133D01*
X105186620Y-107645497D01*
X105144958Y-107649600D01*
X103895642Y-107649600D01*
X103853980Y-107645497D01*
X103819815Y-107635133D01*
X103788336Y-107618307D01*
X103760740Y-107595660D01*
X103738093Y-107568064D01*
X103721267Y-107536585D01*
X103710903Y-107502420D01*
X103706800Y-107460758D01*
X103706800Y-105086442D01*
X103710903Y-105044780D01*
X103721267Y-105010615D01*
X103738093Y-104979136D01*
X103760740Y-104951540D01*
X103788336Y-104928893D01*
X103819815Y-104912067D01*
X103853980Y-104901703D01*
X103895642Y-104897600D01*
X105144958Y-104897600D01*
X105186620Y-104901703D01*
X105186620Y-104901703D01*
G37*
G36*
X116108620Y-104482603D02*
G01*
X116142785Y-104492967D01*
X116174264Y-104509793D01*
X116201860Y-104532440D01*
X116224507Y-104560036D01*
X116241333Y-104591515D01*
X116251697Y-104625680D01*
X116255800Y-104667342D01*
X116255800Y-107041658D01*
X116251697Y-107083320D01*
X116241333Y-107117485D01*
X116224507Y-107148964D01*
X116201860Y-107176560D01*
X116174264Y-107199207D01*
X116142785Y-107216033D01*
X116108620Y-107226397D01*
X116066958Y-107230500D01*
X114817642Y-107230500D01*
X114775980Y-107226397D01*
X114741815Y-107216033D01*
X114710336Y-107199207D01*
X114682740Y-107176560D01*
X114660093Y-107148964D01*
X114643267Y-107117485D01*
X114632903Y-107083320D01*
X114628800Y-107041658D01*
X114628800Y-104667342D01*
X114632903Y-104625680D01*
X114643267Y-104591515D01*
X114660093Y-104560036D01*
X114682740Y-104532440D01*
X114710336Y-104509793D01*
X114741815Y-104492967D01*
X114775980Y-104482603D01*
X114817642Y-104478500D01*
X116066958Y-104478500D01*
X116108620Y-104482603D01*
X116108620Y-104482603D01*
G37*
G36*
X120783620Y-104482603D02*
G01*
X120817785Y-104492967D01*
X120849264Y-104509793D01*
X120876860Y-104532440D01*
X120899507Y-104560036D01*
X120916333Y-104591515D01*
X120926697Y-104625680D01*
X120930800Y-104667342D01*
X120930800Y-107041658D01*
X120926697Y-107083320D01*
X120916333Y-107117485D01*
X120899507Y-107148964D01*
X120876860Y-107176560D01*
X120849264Y-107199207D01*
X120817785Y-107216033D01*
X120783620Y-107226397D01*
X120741958Y-107230500D01*
X119492642Y-107230500D01*
X119450980Y-107226397D01*
X119416815Y-107216033D01*
X119385336Y-107199207D01*
X119357740Y-107176560D01*
X119335093Y-107148964D01*
X119318267Y-107117485D01*
X119307903Y-107083320D01*
X119303800Y-107041658D01*
X119303800Y-104667342D01*
X119307903Y-104625680D01*
X119318267Y-104591515D01*
X119335093Y-104560036D01*
X119357740Y-104532440D01*
X119385336Y-104509793D01*
X119416815Y-104492967D01*
X119450980Y-104482603D01*
X119492642Y-104478500D01*
X120741958Y-104478500D01*
X120783620Y-104482603D01*
X120783620Y-104482603D01*
G37*
G36*
X79777543Y-104776119D02*
G01*
X79843727Y-104782637D01*
X80013566Y-104834157D01*
X80170091Y-104917822D01*
X80200222Y-104942550D01*
X80307286Y-105030414D01*
X80390548Y-105131871D01*
X80419878Y-105167609D01*
X80503543Y-105324134D01*
X80555063Y-105493973D01*
X80572459Y-105670600D01*
X80555063Y-105847227D01*
X80503543Y-106017066D01*
X80419878Y-106173591D01*
X80390548Y-106209329D01*
X80307286Y-106310786D01*
X80205829Y-106394048D01*
X80170091Y-106423378D01*
X80013566Y-106507043D01*
X79843727Y-106558563D01*
X79777543Y-106565081D01*
X79711360Y-106571600D01*
X79622840Y-106571600D01*
X79556657Y-106565081D01*
X79490473Y-106558563D01*
X79320634Y-106507043D01*
X79164109Y-106423378D01*
X79128371Y-106394048D01*
X79026914Y-106310786D01*
X78943652Y-106209329D01*
X78914322Y-106173591D01*
X78830657Y-106017066D01*
X78779137Y-105847227D01*
X78761741Y-105670600D01*
X78779137Y-105493973D01*
X78830657Y-105324134D01*
X78914322Y-105167609D01*
X78943652Y-105131871D01*
X79026914Y-105030414D01*
X79133978Y-104942550D01*
X79164109Y-104917822D01*
X79320634Y-104834157D01*
X79490473Y-104782637D01*
X79556657Y-104776119D01*
X79622840Y-104769600D01*
X79711360Y-104769600D01*
X79777543Y-104776119D01*
X79777543Y-104776119D01*
G37*
G36*
X77237543Y-104776119D02*
G01*
X77303727Y-104782637D01*
X77473566Y-104834157D01*
X77630091Y-104917822D01*
X77660222Y-104942550D01*
X77767286Y-105030414D01*
X77850548Y-105131871D01*
X77879878Y-105167609D01*
X77963543Y-105324134D01*
X78015063Y-105493973D01*
X78032459Y-105670600D01*
X78015063Y-105847227D01*
X77963543Y-106017066D01*
X77879878Y-106173591D01*
X77850548Y-106209329D01*
X77767286Y-106310786D01*
X77665829Y-106394048D01*
X77630091Y-106423378D01*
X77473566Y-106507043D01*
X77303727Y-106558563D01*
X77237543Y-106565081D01*
X77171360Y-106571600D01*
X77082840Y-106571600D01*
X77016657Y-106565081D01*
X76950473Y-106558563D01*
X76780634Y-106507043D01*
X76624109Y-106423378D01*
X76588371Y-106394048D01*
X76486914Y-106310786D01*
X76403652Y-106209329D01*
X76374322Y-106173591D01*
X76290657Y-106017066D01*
X76239137Y-105847227D01*
X76221741Y-105670600D01*
X76239137Y-105493973D01*
X76290657Y-105324134D01*
X76374322Y-105167609D01*
X76403652Y-105131871D01*
X76486914Y-105030414D01*
X76593978Y-104942550D01*
X76624109Y-104917822D01*
X76780634Y-104834157D01*
X76950473Y-104782637D01*
X77016657Y-104776119D01*
X77082840Y-104769600D01*
X77171360Y-104769600D01*
X77237543Y-104776119D01*
X77237543Y-104776119D01*
G37*
G36*
X79777542Y-102236118D02*
G01*
X79843727Y-102242637D01*
X80013566Y-102294157D01*
X80170091Y-102377822D01*
X80205829Y-102407152D01*
X80307286Y-102490414D01*
X80390548Y-102591871D01*
X80419878Y-102627609D01*
X80503543Y-102784134D01*
X80555063Y-102953973D01*
X80572459Y-103130600D01*
X80555063Y-103307227D01*
X80503543Y-103477066D01*
X80419878Y-103633591D01*
X80390548Y-103669329D01*
X80307286Y-103770786D01*
X80205829Y-103854048D01*
X80170091Y-103883378D01*
X80013566Y-103967043D01*
X79843727Y-104018563D01*
X79777543Y-104025081D01*
X79711360Y-104031600D01*
X79622840Y-104031600D01*
X79556658Y-104025082D01*
X79490473Y-104018563D01*
X79320634Y-103967043D01*
X79164109Y-103883378D01*
X79128371Y-103854048D01*
X79026914Y-103770786D01*
X78943652Y-103669329D01*
X78914322Y-103633591D01*
X78830657Y-103477066D01*
X78779137Y-103307227D01*
X78761741Y-103130600D01*
X78779137Y-102953973D01*
X78830657Y-102784134D01*
X78914322Y-102627609D01*
X78943652Y-102591871D01*
X79026914Y-102490414D01*
X79128371Y-102407152D01*
X79164109Y-102377822D01*
X79320634Y-102294157D01*
X79490473Y-102242637D01*
X79556657Y-102236119D01*
X79622840Y-102229600D01*
X79711360Y-102229600D01*
X79777542Y-102236118D01*
X79777542Y-102236118D01*
G37*
G36*
X77237542Y-102236118D02*
G01*
X77303727Y-102242637D01*
X77473566Y-102294157D01*
X77630091Y-102377822D01*
X77665829Y-102407152D01*
X77767286Y-102490414D01*
X77850548Y-102591871D01*
X77879878Y-102627609D01*
X77963543Y-102784134D01*
X78015063Y-102953973D01*
X78032459Y-103130600D01*
X78015063Y-103307227D01*
X77963543Y-103477066D01*
X77879878Y-103633591D01*
X77850548Y-103669329D01*
X77767286Y-103770786D01*
X77665829Y-103854048D01*
X77630091Y-103883378D01*
X77473566Y-103967043D01*
X77303727Y-104018563D01*
X77237543Y-104025081D01*
X77171360Y-104031600D01*
X77082840Y-104031600D01*
X77016658Y-104025082D01*
X76950473Y-104018563D01*
X76780634Y-103967043D01*
X76624109Y-103883378D01*
X76588371Y-103854048D01*
X76486914Y-103770786D01*
X76403652Y-103669329D01*
X76374322Y-103633591D01*
X76290657Y-103477066D01*
X76239137Y-103307227D01*
X76221741Y-103130600D01*
X76239137Y-102953973D01*
X76290657Y-102784134D01*
X76374322Y-102627609D01*
X76403652Y-102591871D01*
X76486914Y-102490414D01*
X76588371Y-102407152D01*
X76624109Y-102377822D01*
X76780634Y-102294157D01*
X76950473Y-102242637D01*
X77016657Y-102236119D01*
X77082840Y-102229600D01*
X77171360Y-102229600D01*
X77237542Y-102236118D01*
X77237542Y-102236118D01*
G37*
G36*
X79777543Y-99696119D02*
G01*
X79843727Y-99702637D01*
X80013566Y-99754157D01*
X80170091Y-99837822D01*
X80205829Y-99867152D01*
X80307286Y-99950414D01*
X80390548Y-100051871D01*
X80419878Y-100087609D01*
X80503543Y-100244134D01*
X80555063Y-100413973D01*
X80572459Y-100590600D01*
X80555063Y-100767227D01*
X80503543Y-100937066D01*
X80419878Y-101093591D01*
X80390548Y-101129329D01*
X80307286Y-101230786D01*
X80205829Y-101314048D01*
X80170091Y-101343378D01*
X80013566Y-101427043D01*
X79843727Y-101478563D01*
X79777543Y-101485081D01*
X79711360Y-101491600D01*
X79622840Y-101491600D01*
X79556657Y-101485081D01*
X79490473Y-101478563D01*
X79320634Y-101427043D01*
X79164109Y-101343378D01*
X79128371Y-101314048D01*
X79026914Y-101230786D01*
X78943652Y-101129329D01*
X78914322Y-101093591D01*
X78830657Y-100937066D01*
X78779137Y-100767227D01*
X78761741Y-100590600D01*
X78779137Y-100413973D01*
X78830657Y-100244134D01*
X78914322Y-100087609D01*
X78943652Y-100051871D01*
X79026914Y-99950414D01*
X79128371Y-99867152D01*
X79164109Y-99837822D01*
X79320634Y-99754157D01*
X79490473Y-99702637D01*
X79556658Y-99696118D01*
X79622840Y-99689600D01*
X79711360Y-99689600D01*
X79777543Y-99696119D01*
X79777543Y-99696119D01*
G37*
G36*
X77237543Y-99696119D02*
G01*
X77303727Y-99702637D01*
X77473566Y-99754157D01*
X77630091Y-99837822D01*
X77665829Y-99867152D01*
X77767286Y-99950414D01*
X77850548Y-100051871D01*
X77879878Y-100087609D01*
X77963543Y-100244134D01*
X78015063Y-100413973D01*
X78032459Y-100590600D01*
X78015063Y-100767227D01*
X77963543Y-100937066D01*
X77879878Y-101093591D01*
X77850548Y-101129329D01*
X77767286Y-101230786D01*
X77665829Y-101314048D01*
X77630091Y-101343378D01*
X77473566Y-101427043D01*
X77303727Y-101478563D01*
X77237543Y-101485081D01*
X77171360Y-101491600D01*
X77082840Y-101491600D01*
X77016657Y-101485081D01*
X76950473Y-101478563D01*
X76780634Y-101427043D01*
X76624109Y-101343378D01*
X76588371Y-101314048D01*
X76486914Y-101230786D01*
X76403652Y-101129329D01*
X76374322Y-101093591D01*
X76290657Y-100937066D01*
X76239137Y-100767227D01*
X76221741Y-100590600D01*
X76239137Y-100413973D01*
X76290657Y-100244134D01*
X76374322Y-100087609D01*
X76403652Y-100051871D01*
X76486914Y-99950414D01*
X76588371Y-99867152D01*
X76624109Y-99837822D01*
X76780634Y-99754157D01*
X76950473Y-99702637D01*
X77016658Y-99696118D01*
X77082840Y-99689600D01*
X77171360Y-99689600D01*
X77237543Y-99696119D01*
X77237543Y-99696119D01*
G37*
G36*
X77237543Y-97156119D02*
G01*
X77303727Y-97162637D01*
X77473566Y-97214157D01*
X77630091Y-97297822D01*
X77665829Y-97327152D01*
X77767286Y-97410414D01*
X77850548Y-97511871D01*
X77879878Y-97547609D01*
X77963543Y-97704134D01*
X78015063Y-97873973D01*
X78032459Y-98050600D01*
X78015063Y-98227227D01*
X77963543Y-98397066D01*
X77879878Y-98553591D01*
X77850548Y-98589329D01*
X77767286Y-98690786D01*
X77665829Y-98774048D01*
X77630091Y-98803378D01*
X77473566Y-98887043D01*
X77303727Y-98938563D01*
X77237543Y-98945081D01*
X77171360Y-98951600D01*
X77082840Y-98951600D01*
X77016658Y-98945082D01*
X76950473Y-98938563D01*
X76780634Y-98887043D01*
X76624109Y-98803378D01*
X76588371Y-98774048D01*
X76486914Y-98690786D01*
X76403652Y-98589329D01*
X76374322Y-98553591D01*
X76290657Y-98397066D01*
X76239137Y-98227227D01*
X76221741Y-98050600D01*
X76239137Y-97873973D01*
X76290657Y-97704134D01*
X76374322Y-97547609D01*
X76403652Y-97511871D01*
X76486914Y-97410414D01*
X76588371Y-97327152D01*
X76624109Y-97297822D01*
X76780634Y-97214157D01*
X76950473Y-97162637D01*
X77016657Y-97156119D01*
X77082840Y-97149600D01*
X77171360Y-97149600D01*
X77237543Y-97156119D01*
X77237543Y-97156119D01*
G37*
G36*
X80568100Y-98951600D02*
G01*
X78766100Y-98951600D01*
X78766100Y-97149600D01*
X80568100Y-97149600D01*
X80568100Y-98951600D01*
X80568100Y-98951600D01*
G37*
M02*
