%TF.GenerationSoftware,KiCad,Pcbnew,(5.1.4-0-10_14)*%
%TF.CreationDate,2021-01-25T16:41:12+01:00*%
%TF.ProjectId,DAUGHTER_ALLin,44415547-4854-4455-925f-414c4c696e2e,rev?*%
%TF.SameCoordinates,Original*%
%TF.FileFunction,Copper,L1,Top*%
%TF.FilePolarity,Positive*%
%FSLAX46Y46*%
G04 Gerber Fmt 4.6, Leading zero omitted, Abs format (unit mm)*
G04 Created by KiCad (PCBNEW (5.1.4-0-10_14)) date 2021-01-25 16:41:12*
%MOMM*%
%LPD*%
G04 APERTURE LIST*
%ADD10R,1.700000X1.700000*%
%ADD11O,1.700000X1.700000*%
%ADD12C,0.150000*%
%ADD13C,1.525000*%
%ADD14C,1.150000*%
%ADD15C,0.800000*%
%ADD16C,0.400000*%
%ADD17C,1.000000*%
%ADD18C,0.250000*%
%ADD19C,0.500000*%
%ADD20C,0.254000*%
G04 APERTURE END LIST*
D10*
X79667100Y-98050600D03*
D11*
X77127100Y-98050600D03*
X79667100Y-100590600D03*
X77127100Y-100590600D03*
X79667100Y-103130600D03*
X77127100Y-103130600D03*
X79667100Y-105670600D03*
X77127100Y-105670600D03*
X79667100Y-108210600D03*
X77127100Y-108210600D03*
X79667100Y-110750600D03*
X77127100Y-110750600D03*
X79667100Y-113290600D03*
X77127100Y-113290600D03*
X79667100Y-115830600D03*
X77127100Y-115830600D03*
D12*
G36*
X115979305Y-104530704D02*
G01*
X116003573Y-104534304D01*
X116027372Y-104540265D01*
X116050471Y-104548530D01*
X116072650Y-104559020D01*
X116093693Y-104571632D01*
X116113399Y-104586247D01*
X116131577Y-104602723D01*
X116148053Y-104620901D01*
X116162668Y-104640607D01*
X116175280Y-104661650D01*
X116185770Y-104683829D01*
X116194035Y-104706928D01*
X116199996Y-104730727D01*
X116203596Y-104754995D01*
X116204800Y-104779499D01*
X116204800Y-106929501D01*
X116203596Y-106954005D01*
X116199996Y-106978273D01*
X116194035Y-107002072D01*
X116185770Y-107025171D01*
X116175280Y-107047350D01*
X116162668Y-107068393D01*
X116148053Y-107088099D01*
X116131577Y-107106277D01*
X116113399Y-107122753D01*
X116093693Y-107137368D01*
X116072650Y-107149980D01*
X116050471Y-107160470D01*
X116027372Y-107168735D01*
X116003573Y-107174696D01*
X115979305Y-107178296D01*
X115954801Y-107179500D01*
X114929799Y-107179500D01*
X114905295Y-107178296D01*
X114881027Y-107174696D01*
X114857228Y-107168735D01*
X114834129Y-107160470D01*
X114811950Y-107149980D01*
X114790907Y-107137368D01*
X114771201Y-107122753D01*
X114753023Y-107106277D01*
X114736547Y-107088099D01*
X114721932Y-107068393D01*
X114709320Y-107047350D01*
X114698830Y-107025171D01*
X114690565Y-107002072D01*
X114684604Y-106978273D01*
X114681004Y-106954005D01*
X114679800Y-106929501D01*
X114679800Y-104779499D01*
X114681004Y-104754995D01*
X114684604Y-104730727D01*
X114690565Y-104706928D01*
X114698830Y-104683829D01*
X114709320Y-104661650D01*
X114721932Y-104640607D01*
X114736547Y-104620901D01*
X114753023Y-104602723D01*
X114771201Y-104586247D01*
X114790907Y-104571632D01*
X114811950Y-104559020D01*
X114834129Y-104548530D01*
X114857228Y-104540265D01*
X114881027Y-104534304D01*
X114905295Y-104530704D01*
X114929799Y-104529500D01*
X115954801Y-104529500D01*
X115979305Y-104530704D01*
X115979305Y-104530704D01*
G37*
D13*
X115442300Y-105854500D03*
D12*
G36*
X120654305Y-104530704D02*
G01*
X120678573Y-104534304D01*
X120702372Y-104540265D01*
X120725471Y-104548530D01*
X120747650Y-104559020D01*
X120768693Y-104571632D01*
X120788399Y-104586247D01*
X120806577Y-104602723D01*
X120823053Y-104620901D01*
X120837668Y-104640607D01*
X120850280Y-104661650D01*
X120860770Y-104683829D01*
X120869035Y-104706928D01*
X120874996Y-104730727D01*
X120878596Y-104754995D01*
X120879800Y-104779499D01*
X120879800Y-106929501D01*
X120878596Y-106954005D01*
X120874996Y-106978273D01*
X120869035Y-107002072D01*
X120860770Y-107025171D01*
X120850280Y-107047350D01*
X120837668Y-107068393D01*
X120823053Y-107088099D01*
X120806577Y-107106277D01*
X120788399Y-107122753D01*
X120768693Y-107137368D01*
X120747650Y-107149980D01*
X120725471Y-107160470D01*
X120702372Y-107168735D01*
X120678573Y-107174696D01*
X120654305Y-107178296D01*
X120629801Y-107179500D01*
X119604799Y-107179500D01*
X119580295Y-107178296D01*
X119556027Y-107174696D01*
X119532228Y-107168735D01*
X119509129Y-107160470D01*
X119486950Y-107149980D01*
X119465907Y-107137368D01*
X119446201Y-107122753D01*
X119428023Y-107106277D01*
X119411547Y-107088099D01*
X119396932Y-107068393D01*
X119384320Y-107047350D01*
X119373830Y-107025171D01*
X119365565Y-107002072D01*
X119359604Y-106978273D01*
X119356004Y-106954005D01*
X119354800Y-106929501D01*
X119354800Y-104779499D01*
X119356004Y-104754995D01*
X119359604Y-104730727D01*
X119365565Y-104706928D01*
X119373830Y-104683829D01*
X119384320Y-104661650D01*
X119396932Y-104640607D01*
X119411547Y-104620901D01*
X119428023Y-104602723D01*
X119446201Y-104586247D01*
X119465907Y-104571632D01*
X119486950Y-104559020D01*
X119509129Y-104548530D01*
X119532228Y-104540265D01*
X119556027Y-104534304D01*
X119580295Y-104530704D01*
X119604799Y-104529500D01*
X120629801Y-104529500D01*
X120654305Y-104530704D01*
X120654305Y-104530704D01*
G37*
D13*
X120117300Y-105854500D03*
D12*
G36*
X95840805Y-110978904D02*
G01*
X95865073Y-110982504D01*
X95888872Y-110988465D01*
X95911971Y-110996730D01*
X95934150Y-111007220D01*
X95955193Y-111019832D01*
X95974899Y-111034447D01*
X95993077Y-111050923D01*
X96009553Y-111069101D01*
X96024168Y-111088807D01*
X96036780Y-111109850D01*
X96047270Y-111132029D01*
X96055535Y-111155128D01*
X96061496Y-111178927D01*
X96065096Y-111203195D01*
X96066300Y-111227699D01*
X96066300Y-112127701D01*
X96065096Y-112152205D01*
X96061496Y-112176473D01*
X96055535Y-112200272D01*
X96047270Y-112223371D01*
X96036780Y-112245550D01*
X96024168Y-112266593D01*
X96009553Y-112286299D01*
X95993077Y-112304477D01*
X95974899Y-112320953D01*
X95955193Y-112335568D01*
X95934150Y-112348180D01*
X95911971Y-112358670D01*
X95888872Y-112366935D01*
X95865073Y-112372896D01*
X95840805Y-112376496D01*
X95816301Y-112377700D01*
X95166299Y-112377700D01*
X95141795Y-112376496D01*
X95117527Y-112372896D01*
X95093728Y-112366935D01*
X95070629Y-112358670D01*
X95048450Y-112348180D01*
X95027407Y-112335568D01*
X95007701Y-112320953D01*
X94989523Y-112304477D01*
X94973047Y-112286299D01*
X94958432Y-112266593D01*
X94945820Y-112245550D01*
X94935330Y-112223371D01*
X94927065Y-112200272D01*
X94921104Y-112176473D01*
X94917504Y-112152205D01*
X94916300Y-112127701D01*
X94916300Y-111227699D01*
X94917504Y-111203195D01*
X94921104Y-111178927D01*
X94927065Y-111155128D01*
X94935330Y-111132029D01*
X94945820Y-111109850D01*
X94958432Y-111088807D01*
X94973047Y-111069101D01*
X94989523Y-111050923D01*
X95007701Y-111034447D01*
X95027407Y-111019832D01*
X95048450Y-111007220D01*
X95070629Y-110996730D01*
X95093728Y-110988465D01*
X95117527Y-110982504D01*
X95141795Y-110978904D01*
X95166299Y-110977700D01*
X95816301Y-110977700D01*
X95840805Y-110978904D01*
X95840805Y-110978904D01*
G37*
D14*
X95491300Y-111677700D03*
D12*
G36*
X93790805Y-110978904D02*
G01*
X93815073Y-110982504D01*
X93838872Y-110988465D01*
X93861971Y-110996730D01*
X93884150Y-111007220D01*
X93905193Y-111019832D01*
X93924899Y-111034447D01*
X93943077Y-111050923D01*
X93959553Y-111069101D01*
X93974168Y-111088807D01*
X93986780Y-111109850D01*
X93997270Y-111132029D01*
X94005535Y-111155128D01*
X94011496Y-111178927D01*
X94015096Y-111203195D01*
X94016300Y-111227699D01*
X94016300Y-112127701D01*
X94015096Y-112152205D01*
X94011496Y-112176473D01*
X94005535Y-112200272D01*
X93997270Y-112223371D01*
X93986780Y-112245550D01*
X93974168Y-112266593D01*
X93959553Y-112286299D01*
X93943077Y-112304477D01*
X93924899Y-112320953D01*
X93905193Y-112335568D01*
X93884150Y-112348180D01*
X93861971Y-112358670D01*
X93838872Y-112366935D01*
X93815073Y-112372896D01*
X93790805Y-112376496D01*
X93766301Y-112377700D01*
X93116299Y-112377700D01*
X93091795Y-112376496D01*
X93067527Y-112372896D01*
X93043728Y-112366935D01*
X93020629Y-112358670D01*
X92998450Y-112348180D01*
X92977407Y-112335568D01*
X92957701Y-112320953D01*
X92939523Y-112304477D01*
X92923047Y-112286299D01*
X92908432Y-112266593D01*
X92895820Y-112245550D01*
X92885330Y-112223371D01*
X92877065Y-112200272D01*
X92871104Y-112176473D01*
X92867504Y-112152205D01*
X92866300Y-112127701D01*
X92866300Y-111227699D01*
X92867504Y-111203195D01*
X92871104Y-111178927D01*
X92877065Y-111155128D01*
X92885330Y-111132029D01*
X92895820Y-111109850D01*
X92908432Y-111088807D01*
X92923047Y-111069101D01*
X92939523Y-111050923D01*
X92957701Y-111034447D01*
X92977407Y-111019832D01*
X92998450Y-111007220D01*
X93020629Y-110996730D01*
X93043728Y-110988465D01*
X93067527Y-110982504D01*
X93091795Y-110978904D01*
X93116299Y-110977700D01*
X93766301Y-110977700D01*
X93790805Y-110978904D01*
X93790805Y-110978904D01*
G37*
D14*
X93441300Y-111677700D03*
D12*
G36*
X95559105Y-113909904D02*
G01*
X95583373Y-113913504D01*
X95607172Y-113919465D01*
X95630271Y-113927730D01*
X95652450Y-113938220D01*
X95673493Y-113950832D01*
X95693199Y-113965447D01*
X95711377Y-113981923D01*
X95727853Y-114000101D01*
X95742468Y-114019807D01*
X95755080Y-114040850D01*
X95765570Y-114063029D01*
X95773835Y-114086128D01*
X95779796Y-114109927D01*
X95783396Y-114134195D01*
X95784600Y-114158699D01*
X95784600Y-116308701D01*
X95783396Y-116333205D01*
X95779796Y-116357473D01*
X95773835Y-116381272D01*
X95765570Y-116404371D01*
X95755080Y-116426550D01*
X95742468Y-116447593D01*
X95727853Y-116467299D01*
X95711377Y-116485477D01*
X95693199Y-116501953D01*
X95673493Y-116516568D01*
X95652450Y-116529180D01*
X95630271Y-116539670D01*
X95607172Y-116547935D01*
X95583373Y-116553896D01*
X95559105Y-116557496D01*
X95534601Y-116558700D01*
X94509599Y-116558700D01*
X94485095Y-116557496D01*
X94460827Y-116553896D01*
X94437028Y-116547935D01*
X94413929Y-116539670D01*
X94391750Y-116529180D01*
X94370707Y-116516568D01*
X94351001Y-116501953D01*
X94332823Y-116485477D01*
X94316347Y-116467299D01*
X94301732Y-116447593D01*
X94289120Y-116426550D01*
X94278630Y-116404371D01*
X94270365Y-116381272D01*
X94264404Y-116357473D01*
X94260804Y-116333205D01*
X94259600Y-116308701D01*
X94259600Y-114158699D01*
X94260804Y-114134195D01*
X94264404Y-114109927D01*
X94270365Y-114086128D01*
X94278630Y-114063029D01*
X94289120Y-114040850D01*
X94301732Y-114019807D01*
X94316347Y-114000101D01*
X94332823Y-113981923D01*
X94351001Y-113965447D01*
X94370707Y-113950832D01*
X94391750Y-113938220D01*
X94413929Y-113927730D01*
X94437028Y-113919465D01*
X94460827Y-113913504D01*
X94485095Y-113909904D01*
X94509599Y-113908700D01*
X95534601Y-113908700D01*
X95559105Y-113909904D01*
X95559105Y-113909904D01*
G37*
D13*
X95022100Y-115233700D03*
D12*
G36*
X90884105Y-113909904D02*
G01*
X90908373Y-113913504D01*
X90932172Y-113919465D01*
X90955271Y-113927730D01*
X90977450Y-113938220D01*
X90998493Y-113950832D01*
X91018199Y-113965447D01*
X91036377Y-113981923D01*
X91052853Y-114000101D01*
X91067468Y-114019807D01*
X91080080Y-114040850D01*
X91090570Y-114063029D01*
X91098835Y-114086128D01*
X91104796Y-114109927D01*
X91108396Y-114134195D01*
X91109600Y-114158699D01*
X91109600Y-116308701D01*
X91108396Y-116333205D01*
X91104796Y-116357473D01*
X91098835Y-116381272D01*
X91090570Y-116404371D01*
X91080080Y-116426550D01*
X91067468Y-116447593D01*
X91052853Y-116467299D01*
X91036377Y-116485477D01*
X91018199Y-116501953D01*
X90998493Y-116516568D01*
X90977450Y-116529180D01*
X90955271Y-116539670D01*
X90932172Y-116547935D01*
X90908373Y-116553896D01*
X90884105Y-116557496D01*
X90859601Y-116558700D01*
X89834599Y-116558700D01*
X89810095Y-116557496D01*
X89785827Y-116553896D01*
X89762028Y-116547935D01*
X89738929Y-116539670D01*
X89716750Y-116529180D01*
X89695707Y-116516568D01*
X89676001Y-116501953D01*
X89657823Y-116485477D01*
X89641347Y-116467299D01*
X89626732Y-116447593D01*
X89614120Y-116426550D01*
X89603630Y-116404371D01*
X89595365Y-116381272D01*
X89589404Y-116357473D01*
X89585804Y-116333205D01*
X89584600Y-116308701D01*
X89584600Y-114158699D01*
X89585804Y-114134195D01*
X89589404Y-114109927D01*
X89595365Y-114086128D01*
X89603630Y-114063029D01*
X89614120Y-114040850D01*
X89626732Y-114019807D01*
X89641347Y-114000101D01*
X89657823Y-113981923D01*
X89676001Y-113965447D01*
X89695707Y-113950832D01*
X89716750Y-113938220D01*
X89738929Y-113927730D01*
X89762028Y-113919465D01*
X89785827Y-113913504D01*
X89810095Y-113909904D01*
X89834599Y-113908700D01*
X90859601Y-113908700D01*
X90884105Y-113909904D01*
X90884105Y-113909904D01*
G37*
D13*
X90347100Y-115233700D03*
D12*
G36*
X105057305Y-104949804D02*
G01*
X105081573Y-104953404D01*
X105105372Y-104959365D01*
X105128471Y-104967630D01*
X105150650Y-104978120D01*
X105171693Y-104990732D01*
X105191399Y-105005347D01*
X105209577Y-105021823D01*
X105226053Y-105040001D01*
X105240668Y-105059707D01*
X105253280Y-105080750D01*
X105263770Y-105102929D01*
X105272035Y-105126028D01*
X105277996Y-105149827D01*
X105281596Y-105174095D01*
X105282800Y-105198599D01*
X105282800Y-107348601D01*
X105281596Y-107373105D01*
X105277996Y-107397373D01*
X105272035Y-107421172D01*
X105263770Y-107444271D01*
X105253280Y-107466450D01*
X105240668Y-107487493D01*
X105226053Y-107507199D01*
X105209577Y-107525377D01*
X105191399Y-107541853D01*
X105171693Y-107556468D01*
X105150650Y-107569080D01*
X105128471Y-107579570D01*
X105105372Y-107587835D01*
X105081573Y-107593796D01*
X105057305Y-107597396D01*
X105032801Y-107598600D01*
X104007799Y-107598600D01*
X103983295Y-107597396D01*
X103959027Y-107593796D01*
X103935228Y-107587835D01*
X103912129Y-107579570D01*
X103889950Y-107569080D01*
X103868907Y-107556468D01*
X103849201Y-107541853D01*
X103831023Y-107525377D01*
X103814547Y-107507199D01*
X103799932Y-107487493D01*
X103787320Y-107466450D01*
X103776830Y-107444271D01*
X103768565Y-107421172D01*
X103762604Y-107397373D01*
X103759004Y-107373105D01*
X103757800Y-107348601D01*
X103757800Y-105198599D01*
X103759004Y-105174095D01*
X103762604Y-105149827D01*
X103768565Y-105126028D01*
X103776830Y-105102929D01*
X103787320Y-105080750D01*
X103799932Y-105059707D01*
X103814547Y-105040001D01*
X103831023Y-105021823D01*
X103849201Y-105005347D01*
X103868907Y-104990732D01*
X103889950Y-104978120D01*
X103912129Y-104967630D01*
X103935228Y-104959365D01*
X103959027Y-104953404D01*
X103983295Y-104949804D01*
X104007799Y-104948600D01*
X105032801Y-104948600D01*
X105057305Y-104949804D01*
X105057305Y-104949804D01*
G37*
D13*
X104520300Y-106273600D03*
D12*
G36*
X109732305Y-104949804D02*
G01*
X109756573Y-104953404D01*
X109780372Y-104959365D01*
X109803471Y-104967630D01*
X109825650Y-104978120D01*
X109846693Y-104990732D01*
X109866399Y-105005347D01*
X109884577Y-105021823D01*
X109901053Y-105040001D01*
X109915668Y-105059707D01*
X109928280Y-105080750D01*
X109938770Y-105102929D01*
X109947035Y-105126028D01*
X109952996Y-105149827D01*
X109956596Y-105174095D01*
X109957800Y-105198599D01*
X109957800Y-107348601D01*
X109956596Y-107373105D01*
X109952996Y-107397373D01*
X109947035Y-107421172D01*
X109938770Y-107444271D01*
X109928280Y-107466450D01*
X109915668Y-107487493D01*
X109901053Y-107507199D01*
X109884577Y-107525377D01*
X109866399Y-107541853D01*
X109846693Y-107556468D01*
X109825650Y-107569080D01*
X109803471Y-107579570D01*
X109780372Y-107587835D01*
X109756573Y-107593796D01*
X109732305Y-107597396D01*
X109707801Y-107598600D01*
X108682799Y-107598600D01*
X108658295Y-107597396D01*
X108634027Y-107593796D01*
X108610228Y-107587835D01*
X108587129Y-107579570D01*
X108564950Y-107569080D01*
X108543907Y-107556468D01*
X108524201Y-107541853D01*
X108506023Y-107525377D01*
X108489547Y-107507199D01*
X108474932Y-107487493D01*
X108462320Y-107466450D01*
X108451830Y-107444271D01*
X108443565Y-107421172D01*
X108437604Y-107397373D01*
X108434004Y-107373105D01*
X108432800Y-107348601D01*
X108432800Y-105198599D01*
X108434004Y-105174095D01*
X108437604Y-105149827D01*
X108443565Y-105126028D01*
X108451830Y-105102929D01*
X108462320Y-105080750D01*
X108474932Y-105059707D01*
X108489547Y-105040001D01*
X108506023Y-105021823D01*
X108524201Y-105005347D01*
X108543907Y-104990732D01*
X108564950Y-104978120D01*
X108587129Y-104967630D01*
X108610228Y-104959365D01*
X108634027Y-104953404D01*
X108658295Y-104949804D01*
X108682799Y-104948600D01*
X109707801Y-104948600D01*
X109732305Y-104949804D01*
X109732305Y-104949804D01*
G37*
D13*
X109195300Y-106273600D03*
D15*
X101886000Y-111874300D03*
X96837500Y-111512600D03*
D16*
X119088640Y-110037160D03*
X119088640Y-110637160D03*
X119088640Y-111237160D03*
X114456240Y-108573260D03*
X114456240Y-107969860D03*
D15*
X103936800Y-110464600D03*
X96050100Y-115722400D03*
X91808300Y-118008400D03*
X92570300Y-110788700D03*
X121814700Y-121682400D03*
X108508800Y-121170700D03*
X103936800Y-100863400D03*
X106133900Y-101981000D03*
X84239100Y-101904800D03*
X107365800Y-109080300D03*
X107327700Y-111899700D03*
X106006900Y-111925100D03*
X106095800Y-109029500D03*
D16*
X92929740Y-98962460D03*
X92929740Y-99562460D03*
X92329740Y-98962460D03*
D15*
X97967800Y-105772200D03*
X83235800Y-105746800D03*
X74847701Y-107035599D03*
X98958400Y-106934000D03*
X83362800Y-106984800D03*
D16*
X92329740Y-99562460D03*
D15*
X119583200Y-100736400D03*
X114325400Y-99021900D03*
X98894900Y-93827600D03*
X104622600Y-99250500D03*
X100749100Y-99288600D03*
X118376700Y-98425000D03*
X118071900Y-114027200D03*
X88932000Y-115233700D03*
X111506000Y-116471700D03*
X110744000Y-106032300D03*
D17*
X77127100Y-105670600D02*
X79667100Y-105670600D01*
D18*
X96799400Y-111474500D02*
X96837500Y-111512600D01*
X95636300Y-111474500D02*
X96799400Y-111474500D01*
X92373985Y-118008400D02*
X93021685Y-117360700D01*
X91808300Y-118008400D02*
X92373985Y-118008400D01*
X93021685Y-117360700D02*
X94615000Y-117360700D01*
X95022100Y-116953600D02*
X95022100Y-115233700D01*
X94615000Y-117360700D02*
X95022100Y-116953600D01*
D17*
X82219800Y-108223300D02*
X79667100Y-105670600D01*
X82677000Y-108680500D02*
X82219800Y-108223300D01*
X95173800Y-109321600D02*
X94532700Y-108680500D01*
X94532700Y-108680500D02*
X82677000Y-108680500D01*
X95173800Y-108680500D02*
X95173800Y-109321600D01*
X95536000Y-108680500D02*
X95173800Y-108680500D01*
D18*
X93441300Y-111659700D02*
X92570300Y-110788700D01*
X93441300Y-111677700D02*
X93441300Y-111659700D01*
X92766300Y-111677700D02*
X93441300Y-111677700D01*
X84600799Y-109575599D02*
X86702900Y-111677700D01*
X76883990Y-110263872D02*
X77572263Y-109575599D01*
X76883990Y-111440528D02*
X76883990Y-110263872D01*
X81840910Y-111927210D02*
X77370672Y-111927210D01*
X77572263Y-109575599D02*
X84600799Y-109575599D01*
X86702900Y-111677700D02*
X92766300Y-111677700D01*
X77370672Y-111927210D02*
X76883990Y-111440528D01*
X108169600Y-121509900D02*
X108508800Y-121170700D01*
X108169600Y-121758600D02*
X108169600Y-121509900D01*
D19*
X82550000Y-112636300D02*
X82550000Y-117106700D01*
D18*
X82550000Y-112636300D02*
X81840910Y-111927210D01*
D19*
X82550000Y-117106700D02*
X87299800Y-121856500D01*
X87299800Y-121856500D02*
X121881900Y-121856500D01*
D18*
X106008400Y-102106500D02*
X106133900Y-101981000D01*
X105956100Y-102106500D02*
X106008400Y-102106500D01*
X106133900Y-101415315D02*
X105581985Y-100863400D01*
X105581985Y-100863400D02*
X103936800Y-100863400D01*
X106133900Y-101981000D02*
X106133900Y-101415315D01*
X103936800Y-100863400D02*
X102527100Y-100863400D01*
X84264500Y-101879400D02*
X84239100Y-101904800D01*
X101511100Y-101879400D02*
X84264500Y-101879400D01*
X102527100Y-100863400D02*
X101511100Y-101879400D01*
X107365800Y-111861600D02*
X107327700Y-111899700D01*
X107365800Y-109080300D02*
X107365800Y-111861600D01*
X106006900Y-111385600D02*
X106006900Y-112160300D01*
X106006900Y-111563400D02*
X106006900Y-111385600D01*
X106057700Y-111874300D02*
X106006900Y-111925100D01*
X106057700Y-109067600D02*
X106057700Y-111874300D01*
X74847701Y-107601284D02*
X74549000Y-107899985D01*
X74847701Y-107035599D02*
X74847701Y-107601284D01*
X91808300Y-105772200D02*
X91782900Y-105746800D01*
X91782900Y-105746800D02*
X83235800Y-105746800D01*
X97967800Y-105772200D02*
X91808300Y-105772200D01*
X93192600Y-105746800D02*
X91782900Y-105746800D01*
X74549000Y-113252500D02*
X74599800Y-113303300D01*
X74549000Y-107899985D02*
X74549000Y-113252500D01*
X74599800Y-113303300D02*
X74599800Y-114973100D01*
X75457300Y-115830600D02*
X77127100Y-115830600D01*
X74599800Y-114973100D02*
X75457300Y-115830600D01*
X93662500Y-107080300D02*
X83400900Y-107080300D01*
X93840300Y-106902500D02*
X93662500Y-107080300D01*
X98958400Y-106902500D02*
X93840300Y-106902500D01*
X119583200Y-100170715D02*
X119399585Y-99987100D01*
X119583200Y-100736400D02*
X119583200Y-100170715D01*
X115290600Y-99987100D02*
X114325400Y-99021900D01*
X119399585Y-99987100D02*
X115290600Y-99987100D01*
D19*
X88932000Y-115233700D02*
X90347100Y-115233700D01*
D17*
X79667100Y-110750600D02*
X82607400Y-110750600D01*
X82607400Y-110750600D02*
X87261700Y-115404900D01*
X87261700Y-115404900D02*
X87261700Y-118846600D01*
X87261700Y-118846600D02*
X88485799Y-120070699D01*
X123337501Y-120070699D02*
X125488700Y-117919500D01*
X125488700Y-117919500D02*
X125488700Y-106883200D01*
X125488700Y-106883200D02*
X124383800Y-105778300D01*
X124307600Y-105854500D02*
X120117300Y-105854500D01*
X124383800Y-105778300D02*
X124307600Y-105854500D01*
X111066399Y-120070699D02*
X109367501Y-120070699D01*
X111066399Y-120070699D02*
X123337501Y-120070699D01*
X108056499Y-120070699D02*
X109088101Y-120070699D01*
X88485799Y-120070699D02*
X108056499Y-120070699D01*
X108056499Y-120070699D02*
X111066399Y-120070699D01*
X109088101Y-120070699D02*
X111467900Y-117690900D01*
X111467900Y-116509800D02*
X111506000Y-116471700D01*
X111467900Y-117690900D02*
X111467900Y-116509800D01*
X109277600Y-106032300D02*
X109195300Y-105950000D01*
X110744000Y-106032300D02*
X109277600Y-106032300D01*
D20*
G36*
X116653004Y-104561694D02*
G01*
X116829103Y-104580813D01*
X116992126Y-104632017D01*
X117142044Y-104714017D01*
X117273099Y-104823667D01*
X117380265Y-104956756D01*
X117459433Y-105108187D01*
X117507564Y-105272146D01*
X117523372Y-105448576D01*
X117503200Y-107756155D01*
X117503709Y-107768679D01*
X117520484Y-107954572D01*
X117525182Y-107979166D01*
X117578102Y-108158156D01*
X117587533Y-108181351D01*
X117674542Y-108346479D01*
X117688341Y-108367372D01*
X117806056Y-108512220D01*
X117823686Y-108530000D01*
X117967531Y-108648938D01*
X117988306Y-108662913D01*
X118152691Y-108751318D01*
X118175804Y-108760946D01*
X118354338Y-108815382D01*
X118378892Y-108820288D01*
X118564637Y-108838638D01*
X118577157Y-108839253D01*
X118608141Y-108839245D01*
X118798533Y-108859463D01*
X118973963Y-108917194D01*
X119133306Y-109010564D01*
X119269420Y-109135390D01*
X119376199Y-109286068D01*
X119448867Y-109455861D01*
X119485453Y-109643800D01*
X119757517Y-112791972D01*
X119754499Y-112977036D01*
X119715303Y-113151220D01*
X119641465Y-113313779D01*
X119536084Y-113457891D01*
X119403560Y-113577537D01*
X119249459Y-113667694D01*
X119080226Y-113724589D01*
X118896457Y-113746616D01*
X118859731Y-113747232D01*
X118811867Y-113631679D01*
X118720487Y-113494919D01*
X118604181Y-113378613D01*
X118467421Y-113287233D01*
X118315460Y-113224289D01*
X118154140Y-113192200D01*
X117989660Y-113192200D01*
X117828340Y-113224289D01*
X117676379Y-113287233D01*
X117539619Y-113378613D01*
X117423313Y-113494919D01*
X117331933Y-113631679D01*
X117273039Y-113773863D01*
X104005243Y-113996547D01*
X103992966Y-113997349D01*
X103800694Y-114019304D01*
X103776660Y-114024442D01*
X103592217Y-114083020D01*
X103569623Y-114092691D01*
X103399916Y-114185698D01*
X103389425Y-114192127D01*
X98714752Y-117378297D01*
X98553026Y-117465892D01*
X98383169Y-117517075D01*
X98199972Y-117533413D01*
X94673070Y-117487874D01*
X94497972Y-117468453D01*
X94335903Y-117417328D01*
X94186821Y-117335753D01*
X94056383Y-117226823D01*
X93949539Y-117094672D01*
X93870341Y-116944311D01*
X93821797Y-116781454D01*
X93805159Y-116606072D01*
X93816441Y-112809866D01*
X93900348Y-112801602D01*
X94029244Y-112762501D01*
X94148035Y-112699006D01*
X94252156Y-112613556D01*
X94337606Y-112509435D01*
X94401101Y-112390644D01*
X94440202Y-112261748D01*
X94453404Y-112127701D01*
X94453404Y-111842860D01*
X105171900Y-111842860D01*
X105171900Y-112007340D01*
X105203989Y-112168660D01*
X105266933Y-112320621D01*
X105358313Y-112457381D01*
X105474619Y-112573687D01*
X105611379Y-112665067D01*
X105763340Y-112728011D01*
X105924660Y-112760100D01*
X106089140Y-112760100D01*
X106250460Y-112728011D01*
X106402421Y-112665067D01*
X106539181Y-112573687D01*
X106655487Y-112457381D01*
X106675786Y-112427002D01*
X106679113Y-112431981D01*
X106795419Y-112548287D01*
X106932179Y-112639667D01*
X107084140Y-112702611D01*
X107245460Y-112734700D01*
X107409940Y-112734700D01*
X107571260Y-112702611D01*
X107723221Y-112639667D01*
X107859981Y-112548287D01*
X107976287Y-112431981D01*
X108067667Y-112295221D01*
X108130611Y-112143260D01*
X108162700Y-111981940D01*
X108162700Y-111817460D01*
X108130611Y-111656140D01*
X108067667Y-111504179D01*
X107976287Y-111367419D01*
X107925800Y-111316932D01*
X107925800Y-109701168D01*
X108014387Y-109612581D01*
X108105767Y-109475821D01*
X108168711Y-109323860D01*
X108200800Y-109162540D01*
X108200800Y-108998060D01*
X108168711Y-108836740D01*
X108105767Y-108684779D01*
X108014387Y-108548019D01*
X107898081Y-108431713D01*
X107761321Y-108340333D01*
X107609360Y-108277389D01*
X107448040Y-108245300D01*
X107283560Y-108245300D01*
X107122240Y-108277389D01*
X106970279Y-108340333D01*
X106833519Y-108431713D01*
X106753850Y-108511382D01*
X106744387Y-108497219D01*
X106628081Y-108380913D01*
X106491321Y-108289533D01*
X106339360Y-108226589D01*
X106178040Y-108194500D01*
X106013560Y-108194500D01*
X105852240Y-108226589D01*
X105700279Y-108289533D01*
X105563519Y-108380913D01*
X105447213Y-108497219D01*
X105355833Y-108633979D01*
X105292889Y-108785940D01*
X105260800Y-108947260D01*
X105260800Y-109111740D01*
X105292889Y-109273060D01*
X105355833Y-109425021D01*
X105447213Y-109561781D01*
X105497700Y-109612268D01*
X105497701Y-111150289D01*
X105487025Y-111170261D01*
X105459255Y-111261805D01*
X105455003Y-111275822D01*
X105452784Y-111298348D01*
X105358313Y-111392819D01*
X105266933Y-111529579D01*
X105203989Y-111681540D01*
X105171900Y-111842860D01*
X94453404Y-111842860D01*
X94453404Y-111227699D01*
X94440202Y-111093652D01*
X94401101Y-110964756D01*
X94337606Y-110845965D01*
X94252156Y-110741844D01*
X94148035Y-110656394D01*
X94029244Y-110592899D01*
X93900348Y-110553798D01*
X93823168Y-110546197D01*
X93825070Y-109906226D01*
X93843701Y-109726268D01*
X93895863Y-109559735D01*
X93980132Y-109406912D01*
X94093129Y-109273926D01*
X94230339Y-109166087D01*
X94386266Y-109087718D01*
X94560842Y-109040278D01*
X100448798Y-108058952D01*
X100460673Y-108056384D01*
X100645326Y-108007094D01*
X100668072Y-107998621D01*
X100839975Y-107915101D01*
X100860692Y-107902457D01*
X101013567Y-107787760D01*
X101031502Y-107771404D01*
X101159764Y-107629717D01*
X101174259Y-107610249D01*
X101273224Y-107446749D01*
X101279011Y-107436066D01*
X102209550Y-105502775D01*
X102297067Y-105357584D01*
X102406143Y-105235743D01*
X102536044Y-105136395D01*
X102682200Y-105063037D01*
X102839480Y-105018244D01*
X103008323Y-105003051D01*
X105318564Y-105012574D01*
X105506030Y-105033009D01*
X105678850Y-105089799D01*
X105836125Y-105181193D01*
X105971031Y-105303222D01*
X106077692Y-105450573D01*
X106151475Y-105616845D01*
X106190552Y-105801331D01*
X106289373Y-106745620D01*
X106291429Y-106758669D01*
X106334404Y-106961947D01*
X106342515Y-106987057D01*
X106426570Y-107177067D01*
X106439694Y-107199959D01*
X106561200Y-107368498D01*
X106578771Y-107388184D01*
X106732482Y-107527976D01*
X106753742Y-107543605D01*
X106933023Y-107648616D01*
X106957054Y-107659515D01*
X107154165Y-107725211D01*
X107179930Y-107730909D01*
X107386363Y-107754455D01*
X107399549Y-107755267D01*
X108137708Y-107762277D01*
X108196944Y-107834456D01*
X108301065Y-107919906D01*
X108419856Y-107983401D01*
X108548752Y-108022502D01*
X108682799Y-108035704D01*
X109707801Y-108035704D01*
X109841848Y-108022502D01*
X109970744Y-107983401D01*
X110089535Y-107919906D01*
X110193656Y-107834456D01*
X110236534Y-107782209D01*
X112370539Y-107802475D01*
X112383021Y-107801979D01*
X112578740Y-107784532D01*
X112603259Y-107779885D01*
X112791787Y-107724503D01*
X112814924Y-107715151D01*
X112988983Y-107623972D01*
X113009843Y-107610277D01*
X113162713Y-107486823D01*
X113180493Y-107469313D01*
X113306271Y-107318349D01*
X113320284Y-107297699D01*
X113414113Y-107125054D01*
X113423818Y-107102064D01*
X113482077Y-106914404D01*
X113485189Y-106902305D01*
X113825562Y-105245391D01*
X113878277Y-105075611D01*
X113960185Y-104924947D01*
X114069980Y-104793219D01*
X114203427Y-104685510D01*
X114355356Y-104605993D01*
X114519917Y-104557730D01*
X114696988Y-104542037D01*
X116653004Y-104561694D01*
X116653004Y-104561694D01*
G37*
X116653004Y-104561694D02*
X116829103Y-104580813D01*
X116992126Y-104632017D01*
X117142044Y-104714017D01*
X117273099Y-104823667D01*
X117380265Y-104956756D01*
X117459433Y-105108187D01*
X117507564Y-105272146D01*
X117523372Y-105448576D01*
X117503200Y-107756155D01*
X117503709Y-107768679D01*
X117520484Y-107954572D01*
X117525182Y-107979166D01*
X117578102Y-108158156D01*
X117587533Y-108181351D01*
X117674542Y-108346479D01*
X117688341Y-108367372D01*
X117806056Y-108512220D01*
X117823686Y-108530000D01*
X117967531Y-108648938D01*
X117988306Y-108662913D01*
X118152691Y-108751318D01*
X118175804Y-108760946D01*
X118354338Y-108815382D01*
X118378892Y-108820288D01*
X118564637Y-108838638D01*
X118577157Y-108839253D01*
X118608141Y-108839245D01*
X118798533Y-108859463D01*
X118973963Y-108917194D01*
X119133306Y-109010564D01*
X119269420Y-109135390D01*
X119376199Y-109286068D01*
X119448867Y-109455861D01*
X119485453Y-109643800D01*
X119757517Y-112791972D01*
X119754499Y-112977036D01*
X119715303Y-113151220D01*
X119641465Y-113313779D01*
X119536084Y-113457891D01*
X119403560Y-113577537D01*
X119249459Y-113667694D01*
X119080226Y-113724589D01*
X118896457Y-113746616D01*
X118859731Y-113747232D01*
X118811867Y-113631679D01*
X118720487Y-113494919D01*
X118604181Y-113378613D01*
X118467421Y-113287233D01*
X118315460Y-113224289D01*
X118154140Y-113192200D01*
X117989660Y-113192200D01*
X117828340Y-113224289D01*
X117676379Y-113287233D01*
X117539619Y-113378613D01*
X117423313Y-113494919D01*
X117331933Y-113631679D01*
X117273039Y-113773863D01*
X104005243Y-113996547D01*
X103992966Y-113997349D01*
X103800694Y-114019304D01*
X103776660Y-114024442D01*
X103592217Y-114083020D01*
X103569623Y-114092691D01*
X103399916Y-114185698D01*
X103389425Y-114192127D01*
X98714752Y-117378297D01*
X98553026Y-117465892D01*
X98383169Y-117517075D01*
X98199972Y-117533413D01*
X94673070Y-117487874D01*
X94497972Y-117468453D01*
X94335903Y-117417328D01*
X94186821Y-117335753D01*
X94056383Y-117226823D01*
X93949539Y-117094672D01*
X93870341Y-116944311D01*
X93821797Y-116781454D01*
X93805159Y-116606072D01*
X93816441Y-112809866D01*
X93900348Y-112801602D01*
X94029244Y-112762501D01*
X94148035Y-112699006D01*
X94252156Y-112613556D01*
X94337606Y-112509435D01*
X94401101Y-112390644D01*
X94440202Y-112261748D01*
X94453404Y-112127701D01*
X94453404Y-111842860D01*
X105171900Y-111842860D01*
X105171900Y-112007340D01*
X105203989Y-112168660D01*
X105266933Y-112320621D01*
X105358313Y-112457381D01*
X105474619Y-112573687D01*
X105611379Y-112665067D01*
X105763340Y-112728011D01*
X105924660Y-112760100D01*
X106089140Y-112760100D01*
X106250460Y-112728011D01*
X106402421Y-112665067D01*
X106539181Y-112573687D01*
X106655487Y-112457381D01*
X106675786Y-112427002D01*
X106679113Y-112431981D01*
X106795419Y-112548287D01*
X106932179Y-112639667D01*
X107084140Y-112702611D01*
X107245460Y-112734700D01*
X107409940Y-112734700D01*
X107571260Y-112702611D01*
X107723221Y-112639667D01*
X107859981Y-112548287D01*
X107976287Y-112431981D01*
X108067667Y-112295221D01*
X108130611Y-112143260D01*
X108162700Y-111981940D01*
X108162700Y-111817460D01*
X108130611Y-111656140D01*
X108067667Y-111504179D01*
X107976287Y-111367419D01*
X107925800Y-111316932D01*
X107925800Y-109701168D01*
X108014387Y-109612581D01*
X108105767Y-109475821D01*
X108168711Y-109323860D01*
X108200800Y-109162540D01*
X108200800Y-108998060D01*
X108168711Y-108836740D01*
X108105767Y-108684779D01*
X108014387Y-108548019D01*
X107898081Y-108431713D01*
X107761321Y-108340333D01*
X107609360Y-108277389D01*
X107448040Y-108245300D01*
X107283560Y-108245300D01*
X107122240Y-108277389D01*
X106970279Y-108340333D01*
X106833519Y-108431713D01*
X106753850Y-108511382D01*
X106744387Y-108497219D01*
X106628081Y-108380913D01*
X106491321Y-108289533D01*
X106339360Y-108226589D01*
X106178040Y-108194500D01*
X106013560Y-108194500D01*
X105852240Y-108226589D01*
X105700279Y-108289533D01*
X105563519Y-108380913D01*
X105447213Y-108497219D01*
X105355833Y-108633979D01*
X105292889Y-108785940D01*
X105260800Y-108947260D01*
X105260800Y-109111740D01*
X105292889Y-109273060D01*
X105355833Y-109425021D01*
X105447213Y-109561781D01*
X105497700Y-109612268D01*
X105497701Y-111150289D01*
X105487025Y-111170261D01*
X105459255Y-111261805D01*
X105455003Y-111275822D01*
X105452784Y-111298348D01*
X105358313Y-111392819D01*
X105266933Y-111529579D01*
X105203989Y-111681540D01*
X105171900Y-111842860D01*
X94453404Y-111842860D01*
X94453404Y-111227699D01*
X94440202Y-111093652D01*
X94401101Y-110964756D01*
X94337606Y-110845965D01*
X94252156Y-110741844D01*
X94148035Y-110656394D01*
X94029244Y-110592899D01*
X93900348Y-110553798D01*
X93823168Y-110546197D01*
X93825070Y-109906226D01*
X93843701Y-109726268D01*
X93895863Y-109559735D01*
X93980132Y-109406912D01*
X94093129Y-109273926D01*
X94230339Y-109166087D01*
X94386266Y-109087718D01*
X94560842Y-109040278D01*
X100448798Y-108058952D01*
X100460673Y-108056384D01*
X100645326Y-108007094D01*
X100668072Y-107998621D01*
X100839975Y-107915101D01*
X100860692Y-107902457D01*
X101013567Y-107787760D01*
X101031502Y-107771404D01*
X101159764Y-107629717D01*
X101174259Y-107610249D01*
X101273224Y-107446749D01*
X101279011Y-107436066D01*
X102209550Y-105502775D01*
X102297067Y-105357584D01*
X102406143Y-105235743D01*
X102536044Y-105136395D01*
X102682200Y-105063037D01*
X102839480Y-105018244D01*
X103008323Y-105003051D01*
X105318564Y-105012574D01*
X105506030Y-105033009D01*
X105678850Y-105089799D01*
X105836125Y-105181193D01*
X105971031Y-105303222D01*
X106077692Y-105450573D01*
X106151475Y-105616845D01*
X106190552Y-105801331D01*
X106289373Y-106745620D01*
X106291429Y-106758669D01*
X106334404Y-106961947D01*
X106342515Y-106987057D01*
X106426570Y-107177067D01*
X106439694Y-107199959D01*
X106561200Y-107368498D01*
X106578771Y-107388184D01*
X106732482Y-107527976D01*
X106753742Y-107543605D01*
X106933023Y-107648616D01*
X106957054Y-107659515D01*
X107154165Y-107725211D01*
X107179930Y-107730909D01*
X107386363Y-107754455D01*
X107399549Y-107755267D01*
X108137708Y-107762277D01*
X108196944Y-107834456D01*
X108301065Y-107919906D01*
X108419856Y-107983401D01*
X108548752Y-108022502D01*
X108682799Y-108035704D01*
X109707801Y-108035704D01*
X109841848Y-108022502D01*
X109970744Y-107983401D01*
X110089535Y-107919906D01*
X110193656Y-107834456D01*
X110236534Y-107782209D01*
X112370539Y-107802475D01*
X112383021Y-107801979D01*
X112578740Y-107784532D01*
X112603259Y-107779885D01*
X112791787Y-107724503D01*
X112814924Y-107715151D01*
X112988983Y-107623972D01*
X113009843Y-107610277D01*
X113162713Y-107486823D01*
X113180493Y-107469313D01*
X113306271Y-107318349D01*
X113320284Y-107297699D01*
X113414113Y-107125054D01*
X113423818Y-107102064D01*
X113482077Y-106914404D01*
X113485189Y-106902305D01*
X113825562Y-105245391D01*
X113878277Y-105075611D01*
X113960185Y-104924947D01*
X114069980Y-104793219D01*
X114203427Y-104685510D01*
X114355356Y-104605993D01*
X114519917Y-104557730D01*
X114696988Y-104542037D01*
X116653004Y-104561694D01*
G36*
X102737677Y-96224849D02*
G01*
X96906858Y-96128270D01*
X98025855Y-92188586D01*
X101244924Y-92164563D01*
X102737677Y-96224849D01*
X102737677Y-96224849D01*
G37*
X102737677Y-96224849D02*
X96906858Y-96128270D01*
X98025855Y-92188586D01*
X101244924Y-92164563D01*
X102737677Y-96224849D01*
G36*
X117599197Y-95856919D02*
G01*
X117763879Y-95906925D01*
X117915543Y-95988293D01*
X118048272Y-96097845D01*
X118156921Y-96231335D01*
X118237245Y-96383553D01*
X118286120Y-96548573D01*
X118302215Y-96726267D01*
X118296593Y-97390000D01*
X118274761Y-97390000D01*
X118074802Y-97429774D01*
X117886444Y-97507795D01*
X117716926Y-97621063D01*
X117572763Y-97765226D01*
X117459495Y-97934744D01*
X117381474Y-98123102D01*
X117341700Y-98323061D01*
X117341700Y-98526939D01*
X117381474Y-98726898D01*
X117459495Y-98915256D01*
X117572763Y-99084774D01*
X117716926Y-99228937D01*
X117886444Y-99342205D01*
X118074802Y-99420226D01*
X118213278Y-99447770D01*
X118212430Y-99450491D01*
X118130904Y-99600372D01*
X118021772Y-99731512D01*
X117889201Y-99838903D01*
X117738254Y-99918442D01*
X117574726Y-99967078D01*
X117398627Y-99983538D01*
X104368038Y-99921749D01*
X104238698Y-99868174D01*
X104038739Y-99828400D01*
X103834861Y-99828400D01*
X103634902Y-99868174D01*
X103515324Y-99917705D01*
X90698143Y-99856928D01*
X90698058Y-99856928D01*
X90697076Y-99856924D01*
X90697036Y-99856924D01*
X85056077Y-99835718D01*
X85044911Y-99836168D01*
X84869705Y-99850967D01*
X84847705Y-99854795D01*
X84677799Y-99900053D01*
X84656809Y-99907676D01*
X84497456Y-99981994D01*
X84487545Y-99987159D01*
X82118169Y-101357697D01*
X81980472Y-101422551D01*
X81839026Y-101461956D01*
X81687631Y-101477638D01*
X76757370Y-101571199D01*
X76579438Y-101556956D01*
X76413836Y-101509770D01*
X76260731Y-101430978D01*
X76126082Y-101323647D01*
X76015142Y-101191963D01*
X75932227Y-101041054D01*
X75880567Y-100876793D01*
X75861502Y-100699309D01*
X75846048Y-98804132D01*
X75886394Y-98879614D01*
X76071966Y-99105734D01*
X76298086Y-99291306D01*
X76556066Y-99429199D01*
X76835989Y-99514113D01*
X77054150Y-99535600D01*
X77200050Y-99535600D01*
X77418211Y-99514113D01*
X77698134Y-99429199D01*
X77956114Y-99291306D01*
X78182234Y-99105734D01*
X78206707Y-99075913D01*
X78227598Y-99144780D01*
X78286563Y-99255094D01*
X78365915Y-99351785D01*
X78462606Y-99431137D01*
X78572920Y-99490102D01*
X78692618Y-99526412D01*
X78817100Y-99538672D01*
X80517100Y-99538672D01*
X80641582Y-99526412D01*
X80761280Y-99490102D01*
X80871594Y-99431137D01*
X80968285Y-99351785D01*
X81047637Y-99255094D01*
X81106602Y-99144780D01*
X81142912Y-99025082D01*
X81155172Y-98900600D01*
X81155172Y-97200600D01*
X81142912Y-97076118D01*
X81106602Y-96956420D01*
X81047637Y-96846106D01*
X80968285Y-96749415D01*
X80871594Y-96670063D01*
X80761280Y-96611098D01*
X80641582Y-96574788D01*
X80517100Y-96562528D01*
X78817100Y-96562528D01*
X78692618Y-96574788D01*
X78572920Y-96611098D01*
X78462606Y-96670063D01*
X78365915Y-96749415D01*
X78286563Y-96846106D01*
X78227598Y-96956420D01*
X78206707Y-97025287D01*
X78182234Y-96995466D01*
X77956114Y-96809894D01*
X77698134Y-96672001D01*
X77418211Y-96587087D01*
X77200050Y-96565600D01*
X77054150Y-96565600D01*
X76835989Y-96587087D01*
X76556066Y-96672001D01*
X76298086Y-96809894D01*
X76071966Y-96995466D01*
X75886394Y-97221586D01*
X75833944Y-97319713D01*
X75829636Y-96791391D01*
X75845711Y-96614102D01*
X75894422Y-96449427D01*
X75974449Y-96297482D01*
X76082682Y-96164167D01*
X76214950Y-96054626D01*
X76366094Y-95973126D01*
X76530290Y-95922809D01*
X76707416Y-95905003D01*
X117421616Y-95839604D01*
X117599197Y-95856919D01*
X117599197Y-95856919D01*
G37*
X117599197Y-95856919D02*
X117763879Y-95906925D01*
X117915543Y-95988293D01*
X118048272Y-96097845D01*
X118156921Y-96231335D01*
X118237245Y-96383553D01*
X118286120Y-96548573D01*
X118302215Y-96726267D01*
X118296593Y-97390000D01*
X118274761Y-97390000D01*
X118074802Y-97429774D01*
X117886444Y-97507795D01*
X117716926Y-97621063D01*
X117572763Y-97765226D01*
X117459495Y-97934744D01*
X117381474Y-98123102D01*
X117341700Y-98323061D01*
X117341700Y-98526939D01*
X117381474Y-98726898D01*
X117459495Y-98915256D01*
X117572763Y-99084774D01*
X117716926Y-99228937D01*
X117886444Y-99342205D01*
X118074802Y-99420226D01*
X118213278Y-99447770D01*
X118212430Y-99450491D01*
X118130904Y-99600372D01*
X118021772Y-99731512D01*
X117889201Y-99838903D01*
X117738254Y-99918442D01*
X117574726Y-99967078D01*
X117398627Y-99983538D01*
X104368038Y-99921749D01*
X104238698Y-99868174D01*
X104038739Y-99828400D01*
X103834861Y-99828400D01*
X103634902Y-99868174D01*
X103515324Y-99917705D01*
X90698143Y-99856928D01*
X90698058Y-99856928D01*
X90697076Y-99856924D01*
X90697036Y-99856924D01*
X85056077Y-99835718D01*
X85044911Y-99836168D01*
X84869705Y-99850967D01*
X84847705Y-99854795D01*
X84677799Y-99900053D01*
X84656809Y-99907676D01*
X84497456Y-99981994D01*
X84487545Y-99987159D01*
X82118169Y-101357697D01*
X81980472Y-101422551D01*
X81839026Y-101461956D01*
X81687631Y-101477638D01*
X76757370Y-101571199D01*
X76579438Y-101556956D01*
X76413836Y-101509770D01*
X76260731Y-101430978D01*
X76126082Y-101323647D01*
X76015142Y-101191963D01*
X75932227Y-101041054D01*
X75880567Y-100876793D01*
X75861502Y-100699309D01*
X75846048Y-98804132D01*
X75886394Y-98879614D01*
X76071966Y-99105734D01*
X76298086Y-99291306D01*
X76556066Y-99429199D01*
X76835989Y-99514113D01*
X77054150Y-99535600D01*
X77200050Y-99535600D01*
X77418211Y-99514113D01*
X77698134Y-99429199D01*
X77956114Y-99291306D01*
X78182234Y-99105734D01*
X78206707Y-99075913D01*
X78227598Y-99144780D01*
X78286563Y-99255094D01*
X78365915Y-99351785D01*
X78462606Y-99431137D01*
X78572920Y-99490102D01*
X78692618Y-99526412D01*
X78817100Y-99538672D01*
X80517100Y-99538672D01*
X80641582Y-99526412D01*
X80761280Y-99490102D01*
X80871594Y-99431137D01*
X80968285Y-99351785D01*
X81047637Y-99255094D01*
X81106602Y-99144780D01*
X81142912Y-99025082D01*
X81155172Y-98900600D01*
X81155172Y-97200600D01*
X81142912Y-97076118D01*
X81106602Y-96956420D01*
X81047637Y-96846106D01*
X80968285Y-96749415D01*
X80871594Y-96670063D01*
X80761280Y-96611098D01*
X80641582Y-96574788D01*
X80517100Y-96562528D01*
X78817100Y-96562528D01*
X78692618Y-96574788D01*
X78572920Y-96611098D01*
X78462606Y-96670063D01*
X78365915Y-96749415D01*
X78286563Y-96846106D01*
X78227598Y-96956420D01*
X78206707Y-97025287D01*
X78182234Y-96995466D01*
X77956114Y-96809894D01*
X77698134Y-96672001D01*
X77418211Y-96587087D01*
X77200050Y-96565600D01*
X77054150Y-96565600D01*
X76835989Y-96587087D01*
X76556066Y-96672001D01*
X76298086Y-96809894D01*
X76071966Y-96995466D01*
X75886394Y-97221586D01*
X75833944Y-97319713D01*
X75829636Y-96791391D01*
X75845711Y-96614102D01*
X75894422Y-96449427D01*
X75974449Y-96297482D01*
X76082682Y-96164167D01*
X76214950Y-96054626D01*
X76366094Y-95973126D01*
X76530290Y-95922809D01*
X76707416Y-95905003D01*
X117421616Y-95839604D01*
X117599197Y-95856919D01*
M02*
