M48
; DRILL file {KiCad (5.1.4-0-10_14)} date 2021 January 25, Monday 16:41:28
; FORMAT={3:3/ absolute / metric / suppress leading zeros}
; #@! TF.CreationDate,2021-01-25T16:41:28+01:00
; #@! TF.GenerationSoftware,Kicad,Pcbnew,(5.1.4-0-10_14)
FMAT,2
METRIC,TZ
T1C0.300
T2C0.400
T3C1.000
%
G90
G05
T1
X92330Y-98962
X92330Y-99562
X92930Y-98962
X92930Y-99562
X114456Y-107970
X114456Y-108573
X119089Y-110037
X119089Y-110637
X119089Y-111237
T2
X74848Y-107036
X83236Y-105747
X83363Y-106985
X84239Y-101905
X88932Y-115234
X91808Y-118008
X92570Y-110789
X96050Y-115722
X96837Y-111513
X97968Y-105772
X98895Y-93828
X98958Y-106934
X100749Y-99289
X101886Y-111874
X103937Y-100863
X103937Y-110465
X104623Y-99251
X106007Y-111925
X106096Y-109030
X106134Y-101981
X107328Y-111900
X107366Y-109080
X108509Y-121171
X110744Y-106032
X111506Y-116472
X114325Y-99022
X118072Y-114027
X118377Y-98425
X119583Y-100736
X121815Y-121682
T3
X77127Y-98051
X77127Y-100591
X77127Y-103131
X77127Y-105671
X77127Y-108211
X77127Y-110751
X77127Y-113291
X77127Y-115831
X79667Y-98051
X79667Y-100591
X79667Y-103131
X79667Y-105671
X79667Y-108211
X79667Y-110751
X79667Y-113291
X79667Y-115831
T0
M30
